<svg width="830" height="566" viewBox="0 0 830 566" fill="none" xmlns="http://www.w3.org/2000/svg">
<g clip-path="url(#clip0_147_223)">
<path opacity="0.1" d="M482.244 99.8185C429.034 98.0684 378.316 81.8117 329.958 64.029C281.601 46.2464 233.671 26.5401 181.707 17.1173C148.297 11.0499 110.088 10.1966 83.1735 27.1476C57.2678 43.455 48.9 71.6078 44.399 97.7285C41.0137 117.384 39.0497 138.067 48.304 156.471C54.746 169.242 66.1781 179.981 74.0874 192.217C101.598 234.79 82.1495 287.292 52.3312 328.896C38.3467 348.421 22.1231 366.999 11.3329 387.761C0.542642 408.523 -4.4551 432.308 4.99018 453.483C14.3514 474.454 36.6502 490.234 60.8136 501.32C109.889 523.818 167.715 530.254 224.104 533.942C348.925 542.02 474.419 538.52 599.569 535.019C645.886 533.718 692.409 532.409 737.97 525.618C763.272 521.851 789.399 515.877 807.77 501.457C831.085 483.147 836.87 452.152 821.242 429.191C795.031 390.69 722.564 381.123 704.239 339.801C694.159 317.057 704.514 291.718 719.171 270.623C750.602 225.374 803.299 185.673 806.073 133.945C807.984 98.4155 782.651 62.843 743.479 46.0294C702.428 28.3914 645.496 30.6188 615.212 59.7696C584.025 89.8026 529.218 101.359 482.244 99.8185Z" fill="#FC7790"/>
<path d="M185.123 524.324C185.123 524.324 143.093 494.255 135.153 456.007C131.933 439.942 123.297 425.299 110.539 414.273C104.436 409.086 97.844 404.438 90.8459 400.388" stroke="#535461" stroke-width="2" stroke-miterlimit="10"/>
<path d="M85.703 376.292C89.3864 381.007 91.0523 400.988 91.0523 400.988C91.0523 400.988 71.3593 393.648 67.6683 388.94C65.896 386.677 65.1462 383.84 65.584 381.054C66.0218 378.267 67.6114 375.76 70.0029 374.083C72.3944 372.405 75.3921 371.696 78.3365 372.11C81.2808 372.525 83.9306 374.029 85.703 376.292Z" fill="#FC7790"/>
<path d="M121.023 391.97C121.405 397.821 111.341 415.451 111.341 415.451C111.341 415.451 99.015 399.151 98.6253 393.301C98.477 390.512 99.4961 387.78 101.462 385.697C103.427 383.614 106.181 382.348 109.126 382.173C112.071 381.997 114.971 382.928 117.196 384.762C119.422 386.596 120.794 389.186 121.016 391.97H121.023Z" fill="#FC7790"/>
<path d="M155.259 437.038C152.477 442.274 134.374 452.687 134.374 452.687C134.374 452.687 132.44 432.728 135.222 427.492C136.591 425.03 138.927 423.175 141.727 422.326C144.527 421.477 147.567 421.703 150.194 422.954C152.82 424.205 154.822 426.382 155.769 429.016C156.716 431.65 156.533 434.531 155.259 437.038Z" fill="#FC7790"/>
<path d="M173.056 476.639C171.245 482.243 155.266 495.397 155.266 495.397C155.266 495.397 149.787 476.038 151.598 470.427C152.469 467.734 154.434 465.478 157.062 464.157C159.689 462.835 162.764 462.556 165.61 463.379C168.455 464.203 170.838 466.063 172.235 468.549C173.631 471.036 173.927 473.946 173.056 476.639Z" fill="#FC7790"/>
<path d="M93.123 429.626C99.2365 430.407 118.563 422.148 118.563 422.148C118.563 422.148 102.255 409.362 96.111 408.581C93.1621 408.206 90.1765 408.955 87.8112 410.664C85.4458 412.372 83.8944 414.899 83.4982 417.69C83.1019 420.48 83.8934 423.306 85.6984 425.544C87.5034 427.782 90.1741 429.251 93.123 429.626Z" fill="#FC7790"/>
<path d="M114.558 475.698C120.672 474.708 136.468 461.365 136.468 461.365C136.468 461.365 116.859 453.786 110.753 454.777C109.291 455.004 107.891 455.502 106.634 456.244C105.377 456.985 104.287 457.955 103.428 459.097C102.569 460.239 101.958 461.531 101.629 462.898C101.3 464.265 101.261 465.68 101.513 467.061C101.766 468.443 102.304 469.763 103.099 470.946C103.893 472.13 104.927 473.152 106.142 473.955C107.356 474.758 108.726 475.326 110.174 475.625C111.621 475.924 113.116 475.949 114.574 475.698H114.558Z" fill="#FC7790"/>
<path d="M141.878 517.779C148.075 517.779 166.034 507.156 166.034 507.156C166.034 507.156 148.068 496.547 141.87 496.547C138.895 496.547 136.042 497.666 133.938 499.657C131.834 501.647 130.652 504.348 130.652 507.163C130.652 509.979 131.834 512.679 133.938 514.67C136.042 516.661 138.895 517.779 141.87 517.779H141.878Z" fill="#FC7790"/>
<path d="M593.425 264.252C593.425 264.252 619.331 220.826 658.38 208.315C674.778 203.162 688.967 193.116 698.821 179.685C703.442 173.264 707.43 166.454 710.734 159.342" stroke="#535461" stroke-width="2" stroke-miterlimit="10"/>
<path d="M735.249 151.387C730.802 155.466 710.1 159.689 710.1 159.689C710.1 159.689 715.182 140.236 719.629 136.15C721.776 134.248 724.626 133.22 727.566 133.287C730.506 133.354 733.301 134.511 735.348 136.508C737.396 138.506 738.533 141.184 738.514 143.967C738.496 146.75 737.323 149.415 735.249 151.387Z" fill="#FC7790"/>
<path d="M723.542 186.555C717.428 187.698 697.659 180.596 697.659 180.596C697.659 180.596 713.095 166.856 719.171 165.735C720.629 165.429 722.138 165.401 723.608 165.654C725.078 165.907 726.48 166.436 727.732 167.208C728.983 167.981 730.059 168.982 730.895 170.154C731.732 171.325 732.313 172.643 732.604 174.03C732.896 175.417 732.891 176.845 732.591 178.23C732.291 179.616 731.702 180.93 730.857 182.097C730.013 183.264 728.931 184.259 727.675 185.024C726.419 185.79 725.014 186.31 723.542 186.555Z" fill="#FC7790"/>
<path d="M680.931 224.651C675.078 222.735 661.773 207.144 661.773 207.144C661.773 207.144 682.406 202.674 688.275 204.591C689.685 205.033 690.988 205.737 692.109 206.66C693.229 207.583 694.145 208.708 694.802 209.968C695.46 211.229 695.846 212.601 695.939 214.004C696.032 215.407 695.829 216.814 695.343 218.142C694.857 219.47 694.096 220.694 693.106 221.742C692.116 222.791 690.916 223.642 689.575 224.248C688.234 224.853 686.78 225.201 685.296 225.27C683.812 225.339 682.328 225.129 680.931 224.651Z" fill="#FC7790"/>
<path d="M641.774 246.607C635.661 245.652 619.797 232.382 619.797 232.382C619.797 232.382 639.352 224.673 645.458 225.628C648.397 226.085 651.023 227.629 652.759 229.918C654.495 232.208 655.199 235.057 654.716 237.838C654.233 240.619 652.602 243.105 650.182 244.748C647.762 246.391 644.751 247.057 641.813 246.599L641.774 246.607Z" fill="#FC7790"/>
<path d="M680.396 165.388C680.389 171.253 691.63 188.269 691.63 188.269C691.63 188.269 702.856 171.275 702.856 165.417C702.895 164 702.633 162.59 702.087 161.27C701.541 159.95 700.722 158.747 699.676 157.732C698.631 156.717 697.382 155.91 696.002 155.359C694.622 154.808 693.139 154.524 691.641 154.524C690.143 154.524 688.661 154.808 687.281 155.359C685.901 155.91 684.651 156.717 683.606 157.732C682.561 158.747 681.741 159.95 681.195 161.27C680.649 162.59 680.388 164 680.427 165.417L680.396 165.388Z" fill="#FC7790"/>
<path d="M634.981 191.61C636.83 197.207 652.909 210.26 652.909 210.26C652.909 210.26 658.258 190.865 656.393 185.268C655.426 182.674 653.434 180.537 650.835 179.307C648.236 178.076 645.234 177.847 642.461 178.669C639.688 179.491 637.36 181.3 635.968 183.713C634.575 186.127 634.227 188.958 634.996 191.61H634.981Z" fill="#FC7790"/>
<path d="M594.579 222.829C595.404 228.614 608.915 244.068 608.915 244.068C608.915 244.068 617.634 225.808 616.809 220.001C616.645 218.594 616.186 217.233 615.458 215.996C614.729 214.76 613.747 213.673 612.569 212.801C611.391 211.929 610.04 211.289 608.597 210.918C607.153 210.547 605.646 210.453 604.164 210.642C602.681 210.831 601.253 211.298 599.965 212.016C598.676 212.735 597.552 213.69 596.659 214.825C595.766 215.961 595.122 217.254 594.764 218.628C594.407 220.003 594.344 221.431 594.579 222.829Z" fill="#FC7790"/>
<path opacity="0.25" d="M735.249 151.387C730.802 155.466 710.1 159.689 710.1 159.689C710.1 159.689 715.182 140.236 719.629 136.15C721.776 134.248 724.626 133.22 727.566 133.287C730.506 133.354 733.301 134.511 735.348 136.508C737.396 138.506 738.533 141.184 738.514 143.967C738.496 146.75 737.323 149.415 735.249 151.387Z" fill="black"/>
<path opacity="0.25" d="M723.542 186.555C717.428 187.698 697.659 180.596 697.659 180.596C697.659 180.596 713.095 166.856 719.171 165.735C720.629 165.429 722.138 165.401 723.608 165.654C725.078 165.907 726.48 166.436 727.732 167.208C728.983 167.981 730.059 168.982 730.895 170.154C731.732 171.325 732.313 172.643 732.604 174.03C732.896 175.417 732.891 176.845 732.591 178.23C732.291 179.616 731.702 180.93 730.857 182.097C730.013 183.264 728.931 184.259 727.675 185.024C726.419 185.79 725.014 186.31 723.542 186.555Z" fill="black"/>
<path opacity="0.25" d="M680.931 224.651C675.078 222.735 661.773 207.144 661.773 207.144C661.773 207.144 682.406 202.674 688.275 204.591C689.685 205.033 690.988 205.737 692.109 206.66C693.229 207.583 694.145 208.708 694.802 209.968C695.46 211.229 695.846 212.601 695.939 214.004C696.032 215.407 695.829 216.814 695.343 218.142C694.857 219.47 694.096 220.694 693.106 221.742C692.116 222.791 690.916 223.642 689.575 224.248C688.234 224.853 686.78 225.201 685.296 225.27C683.812 225.339 682.328 225.129 680.931 224.651Z" fill="black"/>
<path opacity="0.25" d="M641.774 246.607C635.661 245.652 619.797 232.382 619.797 232.382C619.797 232.382 639.352 224.673 645.458 225.628C648.397 226.085 651.023 227.629 652.759 229.918C654.495 232.208 655.199 235.057 654.716 237.838C654.233 240.619 652.602 243.105 650.182 244.748C647.762 246.391 644.751 247.057 641.813 246.599L641.774 246.607Z" fill="black"/>
<path opacity="0.25" d="M680.396 165.388C680.389 171.253 691.63 188.269 691.63 188.269C691.63 188.269 702.856 171.275 702.856 165.417C702.895 164 702.633 162.59 702.087 161.27C701.541 159.95 700.722 158.747 699.676 157.732C698.631 156.717 697.382 155.91 696.002 155.359C694.622 154.808 693.139 154.524 691.641 154.524C690.143 154.524 688.661 154.808 687.281 155.359C685.901 155.91 684.651 156.717 683.606 157.732C682.561 158.747 681.741 159.95 681.195 161.27C680.649 162.59 680.388 164 680.427 165.417L680.396 165.388Z" fill="black"/>
<path opacity="0.25" d="M634.981 191.61C636.83 197.207 652.909 210.26 652.909 210.26C652.909 210.26 658.258 190.865 656.393 185.268C655.426 182.674 653.434 180.537 650.835 179.307C648.236 178.076 645.234 177.847 642.461 178.669C639.688 179.491 637.36 181.3 635.968 183.713C634.575 186.127 634.227 188.958 634.996 191.61H634.981Z" fill="black"/>
<path opacity="0.25" d="M594.579 222.829C595.404 228.614 608.915 244.068 608.915 244.068C608.915 244.068 617.634 225.808 616.809 220.001C616.645 218.594 616.186 217.233 615.458 215.996C614.729 214.76 613.747 213.673 612.569 212.801C611.391 211.929 610.04 211.289 608.597 210.918C607.153 210.547 605.646 210.453 604.164 210.642C602.681 210.831 601.253 211.298 599.965 212.016C598.676 212.735 597.552 213.69 596.659 214.825C595.766 215.961 595.122 217.254 594.764 218.628C594.407 220.003 594.344 221.431 594.579 222.829Z" fill="black"/>
<path d="M594.915 263.391C594.915 263.391 600.004 213.753 630.312 187.358C643.095 176.357 651.766 161.732 655.026 145.675C656.509 138.041 657.248 130.295 657.234 122.533" stroke="#535461" stroke-width="2" stroke-miterlimit="10"/>
<path d="M676.231 105.785C673.939 111.223 656.791 123.025 656.791 123.025C656.791 123.025 653.107 103.29 655.423 97.8515C656.538 95.2402 658.703 93.1549 661.442 92.0543C664.182 90.9538 667.271 90.9281 670.03 91.983C672.79 93.0379 674.993 95.0869 676.156 97.6792C677.319 100.272 677.346 103.195 676.231 105.806V105.785Z" fill="#FC7790"/>
<path d="M680.595 142.464C675.528 145.834 654.384 146.94 654.384 146.94C654.384 146.94 662.621 128.47 667.688 125.1C668.889 124.249 670.259 123.635 671.716 123.294C673.173 122.953 674.687 122.892 676.17 123.115C677.652 123.338 679.072 123.84 680.345 124.591C681.619 125.343 682.72 126.328 683.584 127.49C684.448 128.651 685.056 129.965 685.374 131.353C685.692 132.741 685.712 134.176 685.433 135.571C685.154 136.967 684.582 138.295 683.751 139.478C682.92 140.66 681.847 141.673 680.595 142.456V142.464Z" fill="#FC7790"/>
<path d="M657.929 193.649C651.755 194.141 632.91 184.971 632.91 184.971C632.91 184.971 649.875 172.967 656.05 172.475C659.015 172.239 661.957 173.127 664.23 174.945C666.503 176.762 667.92 179.359 668.169 182.165C668.419 184.971 667.48 187.756 665.56 189.907C663.639 192.058 660.895 193.399 657.929 193.635V193.649Z" fill="#FC7790"/>
<path d="M631.558 228.716C625.559 230.162 605.354 224.181 605.354 224.181C605.354 224.181 619.927 209.638 625.926 208.163C628.806 207.456 631.864 207.861 634.429 209.289C636.993 210.716 638.854 213.049 639.601 215.774C640.347 218.5 639.92 221.394 638.411 223.821C636.903 226.248 634.438 228.009 631.558 228.716Z" fill="#FC7790"/>
<path d="M632.092 139.658C634.599 145.016 652.129 156.291 652.129 156.291C652.129 156.291 655.11 136.447 652.603 131.088C651.354 128.581 649.118 126.636 646.374 125.668C643.629 124.7 640.594 124.786 637.915 125.908C635.237 127.029 633.129 129.098 632.041 131.671C630.953 134.245 630.971 137.119 632.092 139.679V139.658Z" fill="#FC7790"/>
<path d="M601.8 181.037C605.889 185.441 626.17 191.212 626.17 191.212C626.17 191.212 622.746 171.434 618.658 167.03C617.693 165.96 616.513 165.082 615.186 164.447C613.86 163.813 612.413 163.434 610.931 163.333C609.448 163.232 607.959 163.411 606.55 163.859C605.141 164.308 603.841 165.016 602.724 165.944C601.607 166.873 600.696 168.001 600.044 169.266C599.392 170.53 599.012 171.904 598.926 173.308C598.84 174.712 599.05 176.119 599.543 177.446C600.037 178.773 600.804 179.993 601.8 181.037Z" fill="#FC7790"/>
<path d="M578.195 225.093C581.435 230.082 600.394 239.014 600.394 239.014C600.394 239.014 600.555 218.975 597.337 213.977C595.736 211.67 593.248 210.044 590.4 209.444C587.553 208.843 584.571 209.316 582.086 210.762C579.601 212.208 577.808 214.513 577.089 217.188C576.37 219.863 576.78 222.699 578.233 225.093H578.195Z" fill="#FC7790"/>
<path d="M555.942 68.9972C557.21 64.5932 558.739 60.1674 559.808 55.7054C558.525 60.1674 556.989 64.6076 555.942 68.9972Z" fill="url(#paint0_linear_147_223)"/>
<path d="M550.256 111.418C550.149 111.245 550.073 111.071 549.989 110.912C549.989 110.84 549.912 110.782 549.882 110.709C549.715 110.784 549.544 110.849 549.37 110.905C549.034 111.028 548.69 111.143 548.338 111.237C547.987 111.331 547.841 111.382 547.574 111.44C547.352 111.512 547.125 111.568 546.894 111.606L546.955 111.736C547.238 111.678 547.513 111.628 547.796 111.555L547.872 112.452C548.193 112.452 548.491 112.409 548.781 112.409C548.919 112.402 549.057 112.402 549.194 112.409C549.79 112.409 550.31 112.409 550.722 112.409C550.562 112.083 550.394 111.744 550.256 111.418ZM705.385 345.095C701.793 340.517 694.625 291.385 694.625 291.385C694.625 291.385 680.526 256.449 684.37 242.506C688.214 228.564 673.87 192.89 673.87 192.89C673.87 192.89 664.394 188.992 663.882 183.207C663.882 183.207 625.192 171.636 623.381 162.958C621.914 155.842 597.918 150.737 589.298 149.124C586.67 139.086 584.025 129.721 582.077 124.609C581.55 123.018 581.053 121.644 580.594 120.559C577.301 112.604 567.122 111.881 559.74 112.517C559.42 111.162 558.826 109.877 557.99 108.735C557.868 108.343 557.626 107.993 557.294 107.73C557.136 107.602 556.967 107.486 556.79 107.383C556.656 107.148 556.481 106.938 556.27 106.761C556.061 106.582 555.83 106.427 555.583 106.298C555.405 106.207 555.221 106.127 555.032 106.059C554.59 105.9 554.132 105.781 553.665 105.705C553.12 105.599 552.569 105.531 552.014 105.503C553.363 104.944 554.565 104.112 555.537 103.066C556.198 102.331 556.689 101.474 556.981 100.549C557.223 99.7799 557.332 98.9788 557.302 98.1769C557.104 98.5074 556.874 98.8197 556.614 99.1098C556.935 95.9062 555.147 92.6519 554.123 89.4628C552.882 85.3109 552.652 80.9469 553.451 76.6989C554.475 70.2917 557.012 63.8121 558.731 57.2891C558.735 57.2531 558.735 57.2167 558.731 57.1807C559.633 53.9412 560.191 50.6248 560.397 47.2805C560.695 40.5334 558.869 33.8007 555.934 27.6538C553.328 22.2084 549.484 16.8497 543.6 14.6368C539.229 12.9663 534.331 13.2339 529.623 12.9591C519.062 12.3372 508.991 8.82258 498.949 5.62618C488.908 2.42979 478.576 -0.477336 468.007 0.0795014C457.439 0.636339 446.565 5.45985 441.743 14.3114C440.214 17.0739 439.335 20.1473 437.509 22.7435C434.085 27.6393 427.957 30.0909 422.844 33.4681C417.732 36.8452 413.231 41.6398 411.382 47.3601C410.372 50.4419 410.229 53.7199 410.969 56.8697C411.135 57.581 411.35 58.2815 411.611 58.9669C412.336 60.8777 413.467 62.6276 414.935 64.1086C416.042 65.2032 417.314 66.1366 418.71 66.8783C420.463 67.7979 422.34 68.4888 424.289 68.9321C424.22 69.1491 424.151 69.3805 424.075 69.6047C423.952 69.9735 423.845 70.3278 423.731 70.7256C423.479 71.6151 423.242 72.519 423.043 73.4302C423.035 73.4951 423.035 73.5606 423.043 73.6255C422.104 77.7388 421.633 81.9353 421.637 86.1434C421.635 88.1337 421.743 90.1226 421.958 92.1023C425.015 121.448 450.615 144.597 482.244 146.101C483.329 146.152 484.422 146.181 485.53 146.181C486.034 146.181 486.531 146.181 487.059 146.181C487.555 146.803 488.044 147.439 488.51 148.061C488.977 148.683 489.405 149.319 489.81 149.941L488.702 148.856L487.593 147.895C487.293 148.285 486.958 148.65 486.592 148.987C485.87 148.746 485.132 148.548 484.384 148.394C481.213 147.728 476.383 147.482 470.025 149.298C464.179 150.954 457.034 154.36 448.674 160.832L407.935 183.973L385.896 196.658L377.956 215.026C377.956 215.026 371.988 236.851 365.347 261.858C365.088 261.931 364.835 262.003 364.583 262.09C364.045 262.032 363.504 262.003 362.963 262.003C359.11 261.994 355.404 263.399 352.622 265.922C349.841 268.445 348.201 271.89 348.046 275.533C334.841 290.72 334.092 305.906 337.195 312.878C337.476 313.531 337.829 314.154 338.249 314.736C340.282 317.513 344.08 324.672 347.932 332.302C347.832 332.931 347.771 333.459 347.741 333.857C347.734 333.987 347.734 334.117 347.741 334.247C347.741 334.247 350.033 367.014 342.391 376.408C340.718 378.454 340.97 381.144 342.391 384.124C347.511 394.841 367.755 409.153 367.755 409.153C367.755 409.153 392.033 409.03 405.559 407.634C405.52 408.921 405.49 410.201 405.459 411.452C405.154 424.093 405.154 434.688 405.154 434.688L404.649 447.943C404.649 447.943 400.064 475.879 397.772 483.581C396.327 488.412 397.993 533.139 399.445 566.022H638.649C641.461 546.569 637.495 487.464 637.495 487.464C637.495 487.464 633.728 472.184 633.59 458.863C633.583 458.848 633.579 458.832 633.579 458.816C633.579 458.8 633.583 458.784 633.59 458.769C633.59 457.605 633.59 456.469 633.636 455.356L635.371 455.298L638.489 455.197H638.771C638.771 455.197 638.848 454.922 639.024 454.473C639.436 453.357 639.999 452.294 640.697 451.313C642.027 449.455 644.105 447.632 647.231 447.509C648.958 447.444 651.633 446.121 654.651 444.168C654.671 444.173 654.692 444.173 654.712 444.168C662.835 438.969 673.572 429.372 676.178 427.796C679.762 425.626 696.926 411.163 696.926 411.163C696.926 411.163 699.486 408.097 702.214 404.401L702.313 404.271C705.706 399.643 709.313 394.111 708.427 392.368C706.898 389.244 709.451 381.774 709.451 381.774C717.421 367.968 708.977 349.672 705.385 345.095ZM557.615 122.663C557.689 122.879 557.735 123.103 557.753 123.329C557.562 123.09 557.371 122.837 557.18 122.605L556.996 122.374L556.866 122.2L557.157 121.824C557.157 121.824 557.157 121.824 557.157 121.875C557.359 122.11 557.514 122.377 557.615 122.663ZM555.048 116.256C554.215 116.415 553.558 116.56 553.13 116.668C552.587 115.757 552.067 114.846 551.601 113.92C552.826 114.593 553.98 115.375 555.048 116.256ZM553.611 117.399C553.609 117.384 553.609 117.37 553.611 117.355L553.672 117.399C553.985 117.594 554.291 117.782 554.574 117.977C554.826 118.151 555.055 118.317 555.285 118.491C555.132 118.744 554.964 119.004 554.796 119.214C554.528 118.816 554.276 118.433 554.031 118.035C553.879 117.876 553.741 117.659 553.611 117.399ZM549.026 108.475C550.502 108.337 551.989 108.337 553.466 108.475C553.672 108.475 553.856 108.511 554.039 108.54C554.453 108.601 554.86 108.7 555.254 108.836C556.157 110.032 556.713 111.431 556.866 112.893L556.454 112.951L556.049 113.024C555.285 113.146 554.52 113.269 553.924 113.385L553.16 113.537C552.144 113.747 551.555 113.906 551.532 113.913C551.433 113.718 551.334 113.537 551.227 113.349C551.059 113.038 550.883 112.72 550.73 112.409C550.577 112.098 550.379 111.744 550.218 111.418C550.111 111.245 550.035 111.071 549.951 110.912C549.951 110.84 549.874 110.782 549.844 110.709C549.799 110.633 549.761 110.553 549.729 110.471C549.263 109.574 548.835 108.677 548.422 107.795C548.376 107.708 548.338 107.614 548.3 107.527L548.881 107.491V107.679L549.026 108.475ZM366.7 557.083C366.639 546.315 365.814 534.665 363.521 523.731C362.543 519.081 361.534 514.431 360.51 509.861C360.25 508.718 359.998 507.59 359.746 506.462L357.392 506.758H357.178C350.759 478.114 344.05 452.875 344.05 452.875C344.05 452.875 330.722 404.72 332.266 400.88C332.465 400.381 332.212 399.036 331.647 397.061C328.422 386.113 314.957 355.942 310.25 345.63C310.25 345.586 310.212 345.536 310.196 345.5C309.432 343.771 308.882 342.607 308.714 342.267L309.822 326.878L309.883 325.952L310.028 323.985L309.967 323.935L310.028 323.024C310.028 323.024 298.397 313.999 278.697 307.483C277.933 307.222 277.123 306.969 276.32 306.723C277.306 300.497 278.613 293.468 280.317 286.619C280.477 285.932 280.653 285.267 280.837 284.595C280.997 283.922 281.18 283.271 281.364 282.613C281.654 281.543 281.968 280.487 282.288 279.446C283.351 279.127 284.398 278.773 285.429 278.397L285.827 278.252C298.536 273.573 309.022 264.693 315.345 253.259C321.667 241.824 323.397 228.609 320.215 216.06C318.4 208.943 315.049 202.258 310.372 196.426C310.021 195.978 309.646 195.529 309.272 195.088C308.897 194.647 308.446 194.155 308.026 193.707C310.235 188.956 312.84 184.436 313.054 179.815C313.093 179.23 313.093 178.643 313.054 178.058V177.986C312.772 175.013 311.381 172.005 308.141 168.845C303.41 164.209 296.678 161.859 289.946 160.731C283.213 159.603 276.351 159.574 269.58 158.814C258.354 157.542 247.419 154.266 236.193 153.26C222.366 152.049 208.445 154.293 195.821 159.769C187.469 163.385 179.009 169.705 178.505 178.376C178.092 185.543 183.365 192.413 182.036 199.492C180.714 206.449 173.225 211.924 173.882 218.96C174.134 221.708 175.624 224.167 177.489 226.358C178.131 227.081 178.811 227.804 179.514 228.528C182.234 231.254 185.23 233.872 186.751 237.307C186.812 237.451 186.873 237.596 186.926 237.741C188.218 241.132 187.637 245.421 184.443 247.366C184.46 247.379 184.474 247.397 184.481 247.417C184.527 247.475 184.573 247.518 184.611 247.576C184.616 247.564 184.616 247.551 184.611 247.54C185.743 248.81 187.27 249.711 188.974 250.114L189.624 250.302C189.097 250.844 188.6 251.409 188.096 252.002L187.767 252.414C186.925 253.485 186.159 254.609 185.474 255.776C185.085 256.427 184.71 257.078 184.397 257.729C183.349 259.713 182.591 261.822 182.143 263.999C181.325 268.786 182.479 273.776 181.241 278.462C179.712 284.247 174.875 288.688 172.147 294.061C166.981 304.185 169.908 316.067 170.947 327.247C172.361 342.433 170.068 357.685 167.784 372.77C166.571 380.793 165.359 388.822 164.146 396.859C161.089 417.03 158.033 437.202 154.976 457.373C153.86 464.764 152.538 472.56 147.334 478.266H147.388C147.388 478.266 147.388 478.309 147.334 478.323C148.896 478.97 150.558 479.375 152.255 479.524C159.049 480.168 166.248 477.058 172.361 473.659C177.202 471.012 181.788 467.965 186.063 464.554C185.436 466.724 184.764 469.089 184.045 471.634C184.048 471.658 184.048 471.682 184.045 471.706C175.418 502.803 161.54 559.81 161.54 559.81C161.54 559.81 160.279 562.29 158.644 565.986H374.143C371.621 563.093 369.275 560.323 367.441 558.089L366.7 557.083ZM207.139 269.553C207.192 269.466 207.231 269.386 207.284 269.307C207.284 269.538 207.284 269.762 207.284 269.979C207.284 270.196 207.284 270.392 207.284 270.594C207.284 270.797 207.284 270.775 207.284 270.876C207.284 271.173 207.215 271.469 207.162 271.766C207.162 271.766 207.162 271.802 207.162 271.831L207.926 272.098L208.812 272.445C214.05 274.403 219.353 276.175 224.723 277.761C225.273 277.927 225.831 278.086 226.389 278.238L226.503 279.135C226.641 280.053 226.771 280.986 226.893 281.919C226.893 281.919 226.893 281.962 226.893 281.991C227.237 284.573 227.573 287.147 227.871 289.664C227.871 289.664 213.841 284.602 214.017 292.289C214.009 292.426 214.009 292.564 214.017 292.701C214.001 292.884 214.001 293.068 214.017 293.251C214.146 299.239 216.126 302.789 216.523 304.612C216.499 304.687 216.457 304.757 216.401 304.814C216.062 305.512 215.945 306.289 216.065 307.049C216.051 308.343 216.159 309.635 216.386 310.911C215.973 311.149 215.568 311.388 215.163 311.634C214.857 311.815 214.567 312.017 214.269 312.22C212.394 306.066 209.941 300.083 206.94 294.343C204.839 290.25 202.477 285.983 202.5 281.492C202.5 281.203 202.5 280.906 202.539 280.61C202.624 279.308 202.886 278.023 203.318 276.784C203.494 276.314 203.685 275.852 203.899 275.396C204.398 274.313 204.957 273.256 205.572 272.228C205.97 271.549 206.39 270.876 206.795 270.196C206.925 269.994 207.047 269.784 207.169 269.582L207.139 269.553ZM550.256 111.418C550.149 111.245 550.073 111.071 549.989 110.912C549.989 110.84 549.912 110.782 549.882 110.709C549.715 110.784 549.544 110.849 549.37 110.905C549.034 111.028 548.69 111.143 548.338 111.237C547.987 111.331 547.841 111.382 547.574 111.44L546.894 111.606L546.955 111.736C547.238 111.678 547.513 111.628 547.796 111.555L547.872 112.452C548.193 112.452 548.491 112.409 548.781 112.409H549.194C549.79 112.409 550.31 112.409 550.722 112.409C550.562 112.083 550.394 111.744 550.256 111.418Z" fill="url(#paint1_linear_147_223)"/>
<path d="M383.283 217.637L378.698 219.553C378.698 219.553 348.81 329.431 348.81 338.311C348.81 347.192 412.184 396.606 412.184 396.606L422.072 333.444C422.072 333.444 407.874 188.602 383.283 217.637Z" fill="#E8F5FF"/>
<path d="M522.295 182.686L495.816 169.611C494.333 163.628 491.701 157.953 488.052 152.87C484.177 147.576 479.027 142.377 472.608 139.665C456.384 132.78 541.231 96.6438 541.231 96.6438C542.568 100.985 544.141 105.257 545.946 109.444C550.317 119.655 557.569 132.86 566.915 136.62C582.803 143.02 522.295 182.686 522.295 182.686Z" fill="#FFC1C7"/>
<path opacity="0.1" d="M545.946 109.444C542.321 121.51 534.782 132.193 524.394 139.985C514.005 147.777 501.293 152.284 488.052 152.87C484.177 147.576 479.027 142.377 472.608 139.665C456.384 132.78 541.231 96.6438 541.231 96.6438C542.568 100.985 544.141 105.257 545.946 109.444Z" fill="black"/>
<path d="M548.33 91.1984C548.333 103.032 544.628 114.601 537.683 124.441C530.737 134.282 520.864 141.953 509.312 146.483C497.76 151.013 485.047 152.199 472.783 149.892C460.518 147.585 449.251 141.887 440.409 133.52C431.566 125.153 425.544 114.492 423.104 102.886C420.664 91.2793 421.916 79.249 426.702 68.3162C431.488 57.3835 439.592 48.0393 449.99 41.4656C460.388 34.8919 472.613 31.384 485.117 31.3854C493.429 31.349 501.665 32.8712 509.352 35.8642C517.038 38.8571 524.021 43.2614 529.899 48.8227C535.776 54.384 540.431 60.9921 543.595 68.2655C546.758 75.5388 548.368 83.3331 548.33 91.1984Z" fill="#FFC1C7"/>
<path d="M557.455 175.006L540.215 213.073L525.008 238.341H476.329L462.131 203.795L467.885 167.97H505.063L529.066 166.69L537.173 164.13L542.4 166.936L557.455 175.006Z" fill="#575A89"/>
<path opacity="0.1" d="M551.517 124.262C551.517 124.262 562.269 126.431 552.64 133.901C543.012 141.372 509.793 165.128 509.793 165.128C509.793 165.128 521.462 174.963 519.047 186.483L557.707 166.089L564.585 133.46C564.585 133.46 565.356 123.654 551.517 124.262Z" fill="black"/>
<path opacity="0.1" d="M517.396 165.128L492.805 168.968C492.805 168.968 497.879 186.721 495.342 191.762C495.266 191.919 495.202 192.081 495.151 192.246L485.117 217.912L492.637 238.066L518.665 204.475L509.793 191.762C509.793 191.762 519.169 180.003 524.748 175.925C530.326 171.846 517.396 165.128 517.396 165.128Z" fill="black"/>
<path d="M517.396 164.137L492.805 167.97C492.805 167.97 497.879 185.723 495.342 190.764C495.266 190.921 495.202 191.083 495.151 191.248L485.117 216.914L492.637 237.068L518.665 203.455L509.793 190.742C509.793 190.742 519.169 178.984 524.748 174.905C530.326 170.826 517.396 164.137 517.396 164.137Z" fill="#DCE6F2"/>
<path d="M552.549 122.345C552.549 122.345 563.301 124.515 553.665 131.985C544.028 139.455 509.793 165.128 509.793 165.128C509.793 165.128 522.471 173.046 520.063 184.559L558.723 164.173L565.601 131.544C565.601 131.544 566.365 121.738 552.549 122.345Z" fill="#575A89"/>
<path opacity="0.1" d="M489.741 155.133C489.741 155.133 492.087 159.284 502.441 166.769C502.441 166.769 485.202 175.447 491.796 187.647L465.424 181.138L461.367 169.141L489.741 155.133Z" fill="black"/>
<path d="M488.724 154.179C488.724 154.179 491.07 158.33 501.425 165.815C501.425 165.815 484.185 174.449 490.78 186.685L464.416 180.177L460.358 168.187L488.724 154.179Z" fill="#575A89"/>
<path opacity="0.1" d="M557.455 175.006L540.215 213.074L525.038 238.341H476.329L462.131 203.795L467.878 167.97H478.217C478.049 176.329 481.274 186.15 481.067 189.802C480.716 195.804 490.528 228.188 490.528 228.188C490.528 228.188 511.061 196.759 519.169 193.96C524.266 192.203 535.064 177.581 542.393 166.936L557.455 175.006Z" fill="black"/>
<path d="M625.368 375.33L623.618 377.413C623.618 377.413 636.295 437.631 632.788 451.306C632.192 453.771 631.851 456.285 631.771 458.812V458.921C631.152 472.835 635.592 490.892 635.592 490.892C635.592 490.892 639.138 544.117 637.121 566.007H399.751C398.36 533.638 396.862 491.702 398.222 487.052C400.515 479.379 405.1 451.544 405.1 451.544L405.604 438.354C405.604 438.354 405.604 425.605 406.017 411.402C406.193 405.016 406.453 398.312 406.827 392.368C407.309 384.89 407.981 378.592 408.906 375.496C409.475 373.15 409.803 370.758 409.884 368.352C409.884 368.127 409.884 367.896 409.93 367.665C409.93 366.941 410.006 366.16 410.037 365.358C410.037 365.133 410.037 364.909 410.037 364.634C410.182 359.977 410.128 354.452 409.968 348.725C409.968 348.414 409.968 348.096 409.968 347.777C409.838 343.482 409.647 339.099 409.433 334.934C408.768 321.917 407.905 310.911 407.905 310.911L378.751 219.502L386.607 201.192L408.409 188.551L448.72 165.518C468.382 150.223 481.327 152.06 486.264 153.738C486.743 153.893 487.213 154.074 487.67 154.28C487.823 154.352 487.945 154.41 488.06 154.475C488.217 154.546 488.367 154.628 488.51 154.721C487.159 155.337 485.984 156.252 485.087 157.39C484.076 158.684 483.356 160.161 482.97 161.729C482.712 162.7 482.531 163.689 482.428 164.686C482.328 165.735 482.29 166.82 482.29 167.912C482.344 170.306 482.561 172.695 482.94 175.064C482.94 175.107 482.94 175.165 482.94 175.223C483.192 176.915 483.505 178.571 483.811 180.126C483.807 180.152 483.807 180.179 483.811 180.206C484.162 182.021 484.514 183.698 484.751 185.145C484.797 185.405 484.835 185.644 484.873 185.868C485.041 186.824 485.121 187.792 485.11 188.761C485.196 191.1 485.529 193.426 486.103 195.703C486.302 196.658 486.531 197.677 486.783 198.74C487.127 200.187 487.502 201.763 487.907 203.369C488.128 204.251 488.365 205.162 488.61 206.066C488.701 206.428 488.801 206.789 488.893 207.158L489.045 207.729C490.673 213.854 492.438 219.951 493.523 223.639C494.165 225.808 494.57 227.146 494.57 227.146C494.57 227.146 506.079 209.537 515.264 199.514C515.402 199.369 515.524 199.232 515.654 199.102C516.564 198.111 517.458 197.207 518.314 196.412C520.186 194.647 521.867 193.389 523.22 192.926C523.508 192.826 523.787 192.703 524.053 192.557C527.812 190.54 533.88 183.214 539.558 175.541C540.116 174.818 540.658 174.03 541.208 173.285C542.469 171.564 543.692 169.835 544.846 168.179C545.732 166.914 546.581 165.684 547.383 164.513C551.204 158.887 553.894 154.692 553.894 154.692L559.197 154.468L560.122 154.425H560.741L584.82 153.369C584.82 153.369 585.859 153.535 587.571 153.861C587.663 153.861 587.755 153.861 587.854 153.918C596.398 155.524 620.133 160.608 621.585 167.659C623.358 176.293 661.643 187.813 661.643 187.813C662.148 193.599 671.524 197.41 671.524 197.41C671.524 197.41 685.723 232.917 681.925 246.831C678.173 260.571 691.691 294.56 692.05 295.514L689.46 298.609L625.368 375.33Z" fill="#E8F5FF"/>
<path opacity="0.1" d="M551.509 121.738C551.509 121.738 574.947 115.446 580.273 128.398C585.6 141.35 597.513 193.657 597.513 193.657C597.513 193.657 566.579 199.174 558.471 193.657C553.715 190.382 547.829 188.925 541.988 189.578L524.496 200.852L519.33 199.406C519.33 199.406 547.314 160.037 553.397 146.658C559.48 133.279 561.536 127.299 551.509 121.738Z" fill="black"/>
<path d="M550.493 118.845C550.493 118.845 573.946 112.554 579.295 125.505C584.644 138.457 596.535 190.764 596.535 190.764C596.535 190.764 565.609 196.282 557.493 190.764C552.74 187.489 546.856 186.032 541.017 186.685L523.51 197.959L518.344 196.513C518.344 196.513 546.328 157.144 552.411 143.765C558.494 130.387 560.519 124.421 550.493 118.845Z" fill="#E8F5FF"/>
<path opacity="0.1" d="M393.171 327.514C393.171 327.514 410.663 331.593 413.965 340.951C417.266 350.309 401.035 350.547 401.035 350.547C401.035 350.547 391.146 333.994 393.171 327.514Z" fill="black"/>
<path opacity="0.1" d="M458.325 396.606C458.325 396.606 415.485 479.618 425.374 487.537C435.262 495.455 458.325 396.606 458.325 396.606Z" fill="black"/>
<path opacity="0.1" d="M517.396 335.433C517.396 335.433 551.624 416.066 544.777 428.519C537.93 440.972 559.48 428.519 559.48 428.519L517.396 335.433Z" fill="black"/>
<path d="M565.058 415.083C565.058 415.083 449.453 420.362 483.176 454.43C516.9 488.498 586.104 455.876 586.104 455.876L565.058 415.083Z" fill="#FFC1C7"/>
<path opacity="0.1" d="M548.33 91.1985C548.341 99.0449 546.713 106.816 543.539 114.065C542.477 114.181 541.415 114.253 540.391 114.296C538.862 111.122 539.68 107.455 539.711 103.962C539.741 100.469 538.381 96.3619 534.827 95.4218C527.743 93.5343 522.853 106.067 515.868 103.803C510.519 102.082 511.917 94.4021 508.838 89.9691C506.4 86.4617 501.517 85.471 497.719 83.2726C489.641 78.5792 489.886 71.0728 486.134 63.9713C482.206 56.5299 473.907 58.7283 466.701 63.1179C461.229 66.459 456.506 70.9354 450.653 73.5966C445.586 75.9107 439.893 76.7496 434.276 76.8726C430.819 76.9994 427.359 76.6535 424.006 75.8457C427.95 61.8118 437.154 49.6148 449.901 41.5291C462.648 33.4433 478.067 30.021 493.283 31.9002C508.5 33.7793 522.474 40.8318 532.601 51.7423C542.728 62.6529 548.316 76.6767 548.323 91.1985H548.33Z" fill="black"/>
<path d="M466.724 61.2015C461.244 64.5425 456.529 69.0116 450.676 71.6874C445.609 73.9943 439.916 74.8331 434.299 74.9561C427.422 75.1007 420.017 73.9581 415.317 69.2575C410.999 64.9185 409.968 58.2437 411.794 52.5524C413.621 46.8611 417.999 42.1388 423.142 38.7182C428.285 35.2977 434.254 32.9329 437.662 28.0371C439.465 25.4482 440.336 22.3964 441.834 19.6411C446.626 10.8257 457.401 6.05286 467.816 5.45986C478.232 4.86686 488.556 7.80292 498.475 10.9848C508.394 14.1668 518.39 17.6669 528.859 18.325C533.521 18.5998 538.366 18.325 542.691 19.9955C548.506 22.2301 552.319 27.5743 554.918 33.0125C557.829 39.1449 559.64 45.8414 559.335 52.5379C558.693 66.8349 548.713 80.8643 553.099 94.5611C554.26 98.2131 556.438 101.959 555.277 105.611C553.58 110.941 546.313 112.156 540.437 112.409C538.908 109.234 539.726 105.56 539.756 102.075C539.787 98.5891 538.427 94.4743 534.881 93.5342C527.789 91.6612 522.899 104.172 515.929 101.916C510.618 100.187 511.994 92.5145 508.906 88.0815C506.469 84.5669 501.578 83.5834 497.788 81.385C489.71 76.6917 489.955 69.1852 486.203 62.0837C482.244 54.6062 473.937 56.8046 466.724 61.2015Z" fill="#99607E"/>
<path d="M354.626 336.388L348.795 338.311C348.795 338.311 351.088 370.941 343.446 380.298C335.804 389.656 368.542 412.92 368.542 412.92C368.542 412.92 413.414 412.682 414.683 409.305C415.951 405.927 412.39 348.848 412.39 348.848C412.39 348.848 388.303 339.967 390.328 325.815C390.328 325.815 382.977 359.16 372.08 357.721C361.183 356.282 348.81 347.669 354.626 336.388Z" fill="#E8F5FF"/>
<path opacity="0.1" d="M374.074 367.816C382.57 367.816 389.457 361.856 389.457 354.503C389.457 347.15 382.57 341.189 374.074 341.189C365.579 341.189 358.691 347.15 358.691 354.503C358.691 361.856 365.579 367.816 374.074 367.816Z" fill="black"/>
<path d="M390.894 337.35C390.894 337.35 387.837 249.066 361.228 268.736C334.62 288.406 334.36 311.93 339.426 318.88C344.493 325.83 360.739 360.621 360.739 360.621C363.281 362.015 366.135 362.819 369.068 362.968C372.001 363.116 374.929 362.605 377.613 361.476C380.297 360.348 382.661 358.633 384.51 356.473C386.358 354.313 387.64 351.769 388.25 349.05L390.894 337.35Z" fill="#FFC1C7"/>
<path opacity="0.1" d="M556.882 113.725C556.758 113.337 556.519 112.991 556.194 112.727C554.879 111.592 552.052 111.194 547.788 111.541L547.964 113.45C553.649 112.987 554.772 114.058 554.918 114.239V114.419L555.093 114.658C555.802 115.56 556.304 116.591 556.568 117.687C556.831 118.783 556.849 119.919 556.622 121.022C555.376 126.916 547.727 131.609 547.65 131.66L547.467 131.761L547.352 131.927C544.051 136.563 525.382 149.645 520.499 153.029L520.071 152.566C517.885 154.36 498.674 170.277 497.635 176.373C496.962 180.198 492.408 181.681 490.757 182.093C489.015 180.842 483.36 176.583 480.418 171.81C477.659 167.319 488.762 158.554 489.741 155.134L488.212 153.651C488.052 154.201 473.792 166.813 477.758 173.256C480.937 178.427 486.745 182.852 488.778 184.313C488.128 189.896 484.086 222.677 477.873 230.444C470.155 240.098 463.667 288.753 464.385 305.74C465.019 320.832 460.855 349.34 446.946 361.583C444.539 363.795 441.634 365.465 438.449 366.466C435.264 367.468 431.881 367.776 428.553 367.368H428.385H428.216C428.018 367.368 407.843 369.321 390.894 355.797C377.024 344.755 369.168 326.733 367.533 302.218H367.197L367.059 295.081C370.82 294.525 374.206 292.612 376.508 289.743C378.809 286.874 379.846 283.273 379.4 279.696C378.954 276.118 377.06 272.844 374.117 270.561C371.174 268.277 367.409 267.162 363.615 267.45C359.821 267.737 356.293 269.406 353.771 272.104C351.25 274.802 349.932 278.32 350.093 281.918C350.255 285.517 351.885 288.916 354.639 291.401C357.394 293.887 361.06 295.265 364.866 295.247H365.034L365.171 302.341L364.499 302.384C366.18 327.695 374.433 346.418 388.953 357.981C399.989 366.635 414.085 371.001 428.392 370.196C429.407 370.301 430.428 370.354 431.449 370.355C438.007 370.387 444.317 367.985 449.025 363.666C463.674 350.757 468.13 321.201 467.434 305.595C466.67 287.596 473.479 240.691 480.311 232.151C487.005 223.769 491.063 191.111 491.773 184.783C494.196 184.14 499.675 182.108 500.607 176.828C501.28 173.01 514.11 161.244 522.004 154.729L521.767 154.468C526.016 151.532 539.229 142.276 545.778 136.331C547.811 134.487 549.828 132.643 551.937 130.886C554.474 128.76 557.699 125.382 558.547 121.391C558.837 120.073 558.838 118.713 558.552 117.395C558.265 116.077 557.697 114.828 556.882 113.725Z" fill="black"/>
<path d="M488.518 183.858C488.197 183.648 480.586 178.492 476.773 172.287C472.814 165.844 487.074 153.239 487.227 152.689L488.755 154.172C487.784 157.585 476.681 166.357 479.44 170.841C482.917 176.503 490.237 181.457 490.314 181.507L488.518 183.858Z" fill="#353146"/>
<path d="M519.506 154.432L518.313 152.877C518.558 152.711 542.561 136.281 546.344 130.965L546.466 130.806L546.642 130.698C546.718 130.647 554.368 125.961 555.613 120.06C555.843 118.958 555.826 117.823 555.562 116.728C555.299 115.633 554.796 114.603 554.085 113.703L553.909 113.457V113.284C553.756 113.096 552.633 112.033 546.947 112.496L546.772 110.579C551.043 110.232 553.863 110.63 555.178 111.765C555.505 112.032 555.746 112.38 555.873 112.77C556.699 113.87 557.279 115.118 557.576 116.438C557.873 117.757 557.881 119.121 557.6 120.443C556.752 124.442 553.535 127.82 550.99 129.938C548.888 131.696 546.863 133.554 544.838 135.384C537.158 142.348 520.346 153.861 519.506 154.432Z" fill="#E8F5FF"/>
<path d="M366.073 292.563L364.048 292.598L364.274 304.246L366.299 304.211L366.073 292.563Z" fill="#E8F5FF"/>
<path d="M363.88 294.328C372.047 294.328 378.667 288.063 378.667 280.335C378.667 272.607 372.047 266.342 363.88 266.342C355.714 266.342 349.093 272.607 349.093 280.335C349.093 288.063 355.714 294.328 363.88 294.328Z" fill="#FC7790"/>
<path d="M363.88 291.956C370.662 291.956 376.16 286.753 376.16 280.335C376.16 273.917 370.662 268.714 363.88 268.714C357.098 268.714 351.6 273.917 351.6 280.335C351.6 286.753 357.098 291.956 363.88 291.956Z" fill="#E8F5FF"/>
<path d="M430.486 369.422C429.465 369.423 428.445 369.373 427.429 369.27C413.123 370.067 399.03 365.703 387.99 357.056C373.471 345.485 365.233 326.784 363.536 301.452L366.593 301.271C368.228 325.786 376.084 343.815 389.962 354.85C406.911 368.337 427.078 366.421 427.277 366.421H427.445H427.613C430.942 366.827 434.326 366.518 437.512 365.516C440.697 364.515 443.604 362.846 446.014 360.635C459.915 348.392 464.08 319.885 463.445 304.793C462.681 287.791 469.169 239.136 476.895 229.489C483.658 221.036 487.853 182.932 487.899 182.549L488.014 181.464L489.145 181.276C489.214 181.276 495.816 180.09 496.641 175.418C497.711 169.329 516.892 153.412 519.07 151.612L521.065 153.781C513.14 160.29 500.309 172.063 499.667 175.888C498.735 181.182 493.256 183.207 490.841 183.843C490.077 190.178 486.05 222.829 479.378 231.211C472.547 239.751 465.738 286.656 466.502 304.655C467.159 320.261 462.75 349.824 448.101 362.725C443.383 367.056 437.058 369.461 430.486 369.422Z" fill="#353146"/>
<g opacity="0.1">
<path d="M554.841 74.1027C556.095 69.7203 557.608 65.309 558.662 60.8688C557.401 65.3307 555.881 69.7203 554.841 74.1027Z" fill="black"/>
<path d="M542.057 108.54C540.528 105.365 541.346 101.691 541.377 98.2058C541.407 94.7202 540.047 90.6415 536.501 89.6652C529.409 87.7922 524.519 100.31 517.549 98.0467C512.2 96.3184 513.614 88.6456 510.527 84.2126C508.089 80.698 503.206 79.7145 499.415 77.5161C491.33 72.8227 491.575 65.3163 487.83 58.2148C483.895 50.7662 475.603 52.9646 468.39 57.3614C462.91 60.7025 458.195 65.1788 452.342 67.8473C447.275 70.1542 441.582 70.9931 435.965 71.116C429.126 71.2679 421.683 70.1181 416.983 65.4175C413.361 61.8017 412.054 56.5009 412.803 51.5327C412.673 51.8726 412.558 52.2125 412.444 52.5524C410.61 58.2437 411.68 64.933 415.967 69.2575C420.666 73.9581 428.11 75.1007 434.949 74.956C440.573 74.8331 446.259 73.9942 451.333 71.6873C457.202 69.0116 461.917 64.5425 467.381 61.2014C474.595 56.8046 482.894 54.6062 486.822 62.0548C490.566 69.1563 490.329 76.6627 498.407 81.3561C502.228 83.5256 507.08 84.538 509.525 88.0526C512.582 92.5 511.23 100.158 516.548 101.887C523.51 104.143 528.401 91.6323 535.492 93.5052C539.038 94.4454 540.406 98.5674 540.368 102.046C540.33 105.524 539.535 109.205 541.048 112.38C546.924 112.127 554.192 110.934 555.896 105.582C556.131 104.814 556.239 104.017 556.217 103.217C553.733 107.274 547.345 108.316 542.057 108.54Z" fill="black"/>
</g>
<path opacity="0.1" d="M680.167 286.728L689.039 295.608C689.039 295.608 696.138 344.545 699.684 349.123C703.23 353.7 711.605 371.91 703.742 385.585C703.742 385.585 701.205 393.026 702.726 396.143C704.246 399.26 691.324 414.858 691.324 414.858C691.324 414.858 674.336 429.249 670.783 431.412C667.229 433.574 648.476 450.843 642.141 451.082C635.806 451.32 633.735 458.762 633.735 458.762L597.987 459.962C597.987 459.962 578.241 458.986 573.946 461.626C573.946 461.626 576.238 433.075 554.177 414.359L582.314 404.763C582.314 404.763 592.966 400.424 596.26 395.89C598.332 393.11 601.271 391.014 604.666 389.895C604.666 389.895 612.522 384.616 612.774 381.737C613.026 378.859 622.38 375.33 622.38 375.33L617.084 332.555L619.873 261.54C619.873 261.54 628.745 202.038 647.506 205.401C666.267 208.763 680.167 286.728 680.167 286.728Z" fill="black"/>
<path d="M683.224 286.728L692.096 295.608C692.096 295.608 699.195 344.545 702.741 349.123C706.287 353.7 714.662 371.91 706.799 385.585C706.799 385.585 704.269 393.026 705.79 396.143C707.311 399.26 694.381 414.858 694.381 414.858C694.381 414.858 677.393 429.249 673.84 431.412C670.286 433.574 651.533 450.843 645.198 451.082C638.863 451.32 636.792 458.762 636.792 458.762L601.044 459.962C601.044 459.962 581.282 458.986 577.003 461.626C577.003 461.626 579.295 433.075 557.233 414.359L585.37 404.763C585.37 404.763 596.023 400.424 599.317 395.89C601.389 393.11 604.328 391.014 607.723 389.895C607.723 389.895 615.578 384.616 615.831 381.737C616.083 378.859 625.436 375.33 625.436 375.33L620.141 332.555L622.93 261.54C622.93 261.54 631.802 202.038 650.563 205.401C669.323 208.763 683.224 286.728 683.224 286.728Z" fill="#E8F5FF"/>
<path opacity="0.1" d="M650.242 358.466C650.242 358.466 676.354 351.957 683.201 359.912C690.048 367.867 650.242 358.466 650.242 358.466Z" fill="black"/>
<path opacity="0.1" d="M644.159 369.379C653.031 375.258 680.412 375.497 680.412 375.497L644.159 369.379Z" fill="black"/>
<path opacity="0.1" d="M657.593 398.768C658.357 399.007 676.415 417.245 683.995 411.727C691.576 406.209 657.593 398.768 657.593 398.768Z" fill="black"/>
<path opacity="0.1" d="M414.4 245.703C414.4 245.703 419.704 280.256 417.09 294.328C414.477 308.401 424.014 325.837 424.014 325.837L414.4 245.703Z" fill="black"/>
<path d="M296.991 259.754C290.878 264.288 286.415 275.02 283.183 286.815C277.543 307.389 275.701 331.246 275.701 331.246C275.701 331.246 227.023 320.688 230.569 315.893C232.8 312.878 229.805 290.156 227.306 273.682C225.816 263.948 224.486 256.391 224.486 256.391C224.486 256.391 313.727 247.272 296.991 259.754Z" fill="#FFCCD0"/>
<path opacity="0.1" d="M296.991 258.792C290.878 263.334 286.415 274.058 283.183 285.853C273.484 288.64 263.169 288.891 253.332 286.58C243.495 284.27 234.501 279.483 227.306 272.727C225.816 262.986 224.486 255.429 224.486 255.429C224.486 255.429 313.727 246.317 296.991 258.792Z" fill="black"/>
<path d="M323.157 232.946C323.162 245.524 318.465 257.699 309.896 267.314C301.328 276.93 289.441 283.368 276.34 285.487C263.239 287.607 249.767 285.272 238.31 278.896C226.853 272.52 218.148 262.513 213.738 250.648C209.327 238.783 209.494 225.823 214.21 214.063C218.925 202.303 227.885 192.501 239.503 186.391C251.121 180.282 264.649 178.259 277.692 180.68C290.735 183.102 302.452 189.812 310.769 199.623C318.785 209.073 323.154 220.828 323.157 232.946Z" fill="#FFCCD0"/>
<path opacity="0.1" d="M367.541 566.007H351.493L350.14 539.185L348.726 511.423C348.726 511.423 352.372 510.909 358.179 510.143L360.525 509.846H360.716C361.985 515.48 363.238 521.265 364.446 527.043C366.455 537.301 367.501 547.707 367.571 558.139C367.571 558.862 367.571 559.586 367.571 560.265C367.617 562.196 367.571 564.127 367.541 566.007Z" fill="black"/>
<path d="M364.461 566.007H163.206C164.077 564.134 164.658 562.999 164.658 562.999C164.658 562.999 180.759 496.337 188.944 468.134C188.946 468.11 188.946 468.086 188.944 468.062C189.966 464.23 191.201 460.453 192.642 456.744C192.736 456.492 192.856 456.25 193.002 456.021C197.052 449.787 202.126 443.069 195.027 433.473C187.927 423.876 190.442 381.651 190.442 381.651C190.442 381.651 199.062 345.659 208.186 326.466C209.571 323.493 211.536 320.794 213.978 318.511C214.772 317.776 215.62 317.094 216.515 316.472C217.196 315.988 217.905 315.541 218.64 315.134L218.785 315.047C222.618 312.99 226.874 311.74 231.264 311.381C234.382 311.072 237.53 311.155 240.625 311.626C255.42 313.68 267.265 317.115 276.679 321.028C302.195 331.636 309.921 345.854 310.074 346.15L310.135 346.273C311.159 348.537 326.137 381.629 331.532 397.068C332.931 401.089 333.695 403.917 333.389 404.691C331.861 408.523 345.051 456.505 345.051 456.505C345.051 456.505 351.164 479.647 357.278 506.773C357.545 507.901 357.797 509.029 358.042 510.172C359.135 515.096 360.22 520.115 361.267 525.127C363.295 535.455 364.341 545.935 364.392 556.44C364.504 559.713 364.527 562.902 364.461 566.007Z" fill="#FF748E"/>
<path opacity="0.1" d="M230.064 294.878C230.064 294.878 216.179 289.816 216.347 297.496C216.515 305.176 219.733 308.85 218.716 309.97C217.7 311.091 219.221 317.81 219.221 317.81C219.221 317.81 237.981 317.81 246.601 321.483C255.221 325.157 286.996 332.519 291.054 334.761C295.111 337.002 310.158 347.054 310.158 347.054L311.511 328.021C311.511 328.021 295.96 315.864 270.444 309.631C244.928 303.397 230.064 294.878 230.064 294.878Z" fill="black"/>
<path d="M230.064 293.916C230.064 293.916 216.179 288.854 216.347 296.534C216.515 304.214 219.733 307.888 218.716 309.009C217.7 310.13 219.221 316.848 219.221 316.848C219.221 316.848 237.981 316.848 246.601 320.529C255.221 324.21 286.996 331.564 291.054 333.799C295.111 336.033 310.158 346.093 310.158 346.093L311.526 327.117C311.526 327.117 295.975 314.96 270.459 308.727C244.943 302.493 230.064 293.916 230.064 293.916Z" fill="#FF748E"/>
<path opacity="0.1" d="M271.98 339.721C271.98 339.721 298.512 366.905 297.159 374.433C295.807 381.962 271.98 339.721 271.98 339.721Z" fill="black"/>
<path opacity="0.1" d="M228.88 437.92C228.88 437.92 209.431 454.878 203.7 455.84C197.969 456.802 208.094 459.998 214.681 457.446C221.269 454.893 235.314 448.175 235.314 448.175L228.88 437.92Z" fill="black"/>
<path d="M372.363 566.007H327.008C320.666 560.8 314.667 555.977 310.846 553.077C304.733 548.434 300.323 541.6 297.511 536.104C296.877 534.853 296.327 533.682 295.86 532.619C295.026 530.787 294.291 528.917 293.66 527.014L327.245 508.14C329.101 509.633 330.845 511.247 332.465 512.97L332.87 513.411C334.734 515.494 336.377 517.859 336.522 519.797C336.691 522.053 343.324 530.782 350.102 539.163C356.98 547.689 364.025 555.84 364.491 556.389C364.491 556.389 365.653 557.886 367.548 560.186C368.886 561.849 370.536 563.845 372.363 566.007Z" fill="#FFCCD0"/>
<path opacity="0.1" d="M310.769 199.623C309.157 203.065 307.713 206.637 307.499 210.47C306.895 221.535 307.873 246.274 294.928 251.828C288.517 254.562 281.654 248.559 274.624 248.415C269.565 248.313 264.926 251.351 261.839 255.147C258.752 258.944 256.834 263.449 254.595 267.745C252.556 271.644 250.209 275.391 247.572 278.954C246.783 280.044 245.915 281.081 244.973 282.056C237.08 278.904 230.051 274.089 224.422 267.977C218.793 261.864 214.713 254.617 212.492 246.787C210.271 238.956 209.968 230.749 211.607 222.791C213.245 214.833 216.782 207.334 221.946 200.865C227.111 194.397 233.768 189.129 241.411 185.464C249.053 181.799 257.478 179.833 266.045 179.716C274.611 179.598 283.093 181.333 290.844 184.788C298.594 188.243 305.409 193.327 310.769 199.652V199.623Z" fill="black"/>
<path d="M306.482 208.518C305.871 219.582 306.857 244.322 293.904 249.868C287.493 252.602 280.63 246.607 273.6 246.462C268.541 246.354 263.91 249.398 260.815 253.188C257.72 256.977 255.817 261.489 253.571 265.792C251.532 269.691 249.184 273.438 246.548 277.001C244.974 279.113 243.231 281.232 240.809 282.418C236.59 284.501 231.478 283.329 226.954 281.991C221.085 280.241 215.303 278.269 209.607 276.076C209.738 275.262 209.804 274.44 209.806 273.617C209.638 273.921 209.454 274.203 209.271 274.506L208.912 275.099C208.262 276.184 207.628 277.269 207.047 278.383C206.826 278.809 206.612 279.25 206.421 279.692C205.652 281.333 205.169 283.082 204.992 284.869C204.602 289.693 207.116 294.271 209.347 298.61C217.929 315.394 223.233 335.021 216.775 352.63C213.978 360.288 209.133 367.093 205.595 374.491C199.41 387.594 197.59 402.169 200.376 416.276C202.141 425.041 205.679 433.719 204.808 442.606C203.28 457.901 189.341 469.284 175.38 477.108C167.837 481.317 158.606 485.063 150.597 481.737C155.702 476.096 157.016 468.293 158.117 460.931C161.128 440.851 164.146 420.762 167.172 400.663C168.38 392.664 169.585 384.666 170.787 376.668C173.034 361.641 175.311 346.447 173.905 331.326C172.881 320.182 169.992 308.351 175.097 298.262C177.794 292.918 182.601 288.492 184.099 282.736C185.329 278.057 184.183 273.082 184.993 268.316C185.436 266.148 186.187 264.046 187.224 262.068C188.545 259.384 190.27 256.894 192.344 254.677C190.296 254.113 188.386 253.339 187.224 251.719C190.51 249.695 191.007 245.131 189.517 241.704C188.027 238.276 185.046 235.665 182.364 232.961C179.682 230.256 177.099 227.103 176.763 223.415C176.113 216.393 183.526 210.955 184.832 204.027C186.155 196.976 180.928 190.12 181.348 182.983C181.837 174.355 190.212 168.085 198.481 164.448C210.958 158.982 224.742 156.736 238.432 157.939C249.574 158.937 260.356 162.199 271.468 163.464C278.17 164.188 284.963 164.26 291.619 165.374C298.275 166.487 304.946 168.837 309.631 173.459C321.98 185.644 307.186 195.674 306.482 208.518Z" fill="#FFE0D0"/>
<path opacity="0.1" d="M296.151 536.112C292.253 534.513 285.162 535.468 272.988 531.961C260.815 528.453 258.469 512.601 258.469 512.601V512.551C258.324 512.189 257.193 509.832 249.536 501.573C241.076 492.454 222.789 446.396 222.789 446.396C222.789 446.396 206.573 429.915 207.085 423.84C207.597 417.766 204.204 401.603 204.541 383.524C204.877 365.444 241.046 353.454 241.046 353.454C310.685 341.775 294.286 417.751 292.429 423.507C290.572 429.264 300.209 444.812 300.209 444.812C298.848 451.581 305.787 462.059 305.787 462.059C305.787 462.059 307.468 471.33 307.812 474.852C307.831 475.015 307.87 475.175 307.927 475.33C309.042 478.649 318.136 481.657 321.835 483.487C325.725 485.41 338.234 502.202 338.234 502.202C340.932 514.532 300.033 537.731 296.151 536.112Z" fill="black"/>
<path d="M298.176 533.219C294.286 531.614 287.187 532.575 275.021 529.061C262.855 525.546 260.502 509.709 260.502 509.709V509.658C260.364 509.289 259.225 506.939 251.568 498.681C243.109 489.561 224.822 443.496 224.822 443.496C224.822 443.496 208.606 427.022 209.11 420.948C209.615 414.873 206.237 398.71 206.573 380.646C206.91 362.581 243.055 350.598 243.055 350.598C312.695 338.919 296.296 414.895 294.439 420.651C292.582 426.407 302.218 441.955 302.218 441.955C300.858 448.724 307.797 459.203 307.797 459.203C307.797 459.203 309.478 468.474 309.83 471.996C309.842 472.159 309.878 472.319 309.937 472.473C311.052 475.792 320.146 478.801 323.852 480.63C327.734 482.547 340.252 499.346 340.252 499.346C342.964 511.654 302.065 534.853 298.176 533.219Z" fill="#FF748E"/>
<path opacity="0.1" d="M244.431 390.264C244.431 390.264 274.853 420.637 282.793 420.637C290.733 420.637 244.431 390.264 244.431 390.264Z" fill="black"/>
<path d="M298.176 533.219C294.286 531.613 287.187 532.575 275.021 529.061C262.855 525.546 260.502 509.709 260.502 509.709V509.658C268.564 504.596 288.983 490.299 297.03 485.071C302.692 481.404 307.315 476.017 310.021 472.444C311.136 475.763 320.23 478.772 323.936 480.601C327.818 482.518 340.336 499.317 340.336 499.317C342.964 511.654 302.066 534.853 298.176 533.219Z" fill="#FF748E"/>
<g opacity="0.1">
<path d="M187.27 251.799C187.308 251.857 187.362 251.907 187.408 251.965C187.637 251.691 187.874 251.416 188.118 251.155C187.858 251.395 187.574 251.611 187.27 251.799Z" fill="black"/>
<path d="M204.999 284.949C205.32 280.935 207.59 277.399 209.714 273.87C208.323 273.364 206.933 272.85 205.557 272.315C205.688 271.504 205.754 270.684 205.756 269.864C203.608 273.479 201.27 277.037 200.941 281.109C200.552 285.94 203.066 290.51 205.297 294.849C213.887 311.626 219.182 331.253 212.725 348.87C209.921 356.521 205.083 363.333 201.545 370.731C195.362 383.832 193.544 398.405 196.333 412.508C198.083 421.28 201.629 429.951 200.758 438.839C199.23 454.133 185.299 465.516 171.329 473.334C165.621 476.53 158.95 479.459 152.569 479.249C151.978 480.149 151.319 481.007 150.597 481.816C158.613 485.165 167.837 481.397 175.38 477.174C189.356 469.363 203.318 458.01 204.846 442.686C205.718 433.798 202.172 425.127 200.414 416.355C197.624 402.253 199.437 387.682 205.611 374.578C209.126 367.187 214.017 360.368 216.791 352.717C223.248 335.1 217.944 315.474 209.363 298.696C207.139 294.328 204.609 289.78 204.999 284.949Z" fill="black"/>
<path d="M309.616 173.545C308.864 172.815 308.057 172.139 307.201 171.52C316.463 182.889 303.089 192.55 302.425 204.786C301.829 215.85 302.807 240.597 289.854 246.137C283.45 248.877 276.58 242.875 269.557 242.73C264.491 242.629 259.86 245.674 256.765 249.463C253.67 253.253 251.767 257.765 249.528 262.061C247.485 265.959 245.135 269.706 242.498 273.27C240.969 275.389 239.181 277.5 236.751 278.694C232.548 280.769 227.436 279.605 222.904 278.26C218.497 276.948 214.131 275.502 209.806 273.921C209.797 274.674 209.731 275.425 209.607 276.17C215.308 278.368 221.093 280.34 226.962 282.085C231.486 283.43 236.598 284.595 240.809 282.519C243.231 281.326 244.989 279.207 246.555 277.088C249.195 273.529 251.543 269.784 253.578 265.886C255.825 261.591 257.72 257.071 260.823 253.281C263.925 249.492 268.548 246.455 273.607 246.556C280.638 246.701 287.508 252.703 293.912 249.962C306.864 244.423 305.879 219.676 306.482 208.612C307.185 195.746 321.98 185.723 309.616 173.545Z" fill="black"/>
</g>
<path opacity="0.1" d="M208.919 275.107C208.27 276.191 207.636 277.276 207.055 278.39C206.833 278.816 206.619 279.258 206.428 279.699C202.424 275.88 192.673 266.805 187.232 263.992C188.555 261.308 190.279 258.819 192.352 256.601C192.352 256.601 205.32 263.088 208.919 275.107Z" fill="black"/>
<path d="M209.279 274.514C206.275 261.649 192.352 254.684 192.352 254.684C190.278 256.901 188.553 259.391 187.232 262.075C192.971 265.047 203.547 275.013 207.055 278.39L209.279 274.514Z" fill="#FF748E"/>
</g>
<defs>
<linearGradient id="paint0_linear_147_223" x1="557.875" y1="68.9972" x2="557.875" y2="55.7054" gradientUnits="userSpaceOnUse">
<stop stop-color="#808080" stop-opacity="0.25"/>
<stop offset="0.54" stop-color="#808080" stop-opacity="0.12"/>
<stop offset="1" stop-color="#808080" stop-opacity="0.1"/>
</linearGradient>
<linearGradient id="paint1_linear_147_223" x1="430.104" y1="566.007" x2="430.104" y2="-4.06692e-05" gradientUnits="userSpaceOnUse">
<stop stop-color="#808080" stop-opacity="0.25"/>
<stop offset="0.54" stop-color="#808080" stop-opacity="0.12"/>
<stop offset="1" stop-color="#808080" stop-opacity="0.1"/>
</linearGradient>
<clipPath id="clip0_147_223">
<rect width="830" height="566" fill="white"/>
</clipPath>
</defs>
</svg>
