<svg width="751" height="647" viewBox="0 0 751 647" fill="none" xmlns="http://www.w3.org/2000/svg">
<g clip-path="url(#clip0_209_565)">
<path d="M243.918 68.7598L252.048 105.846L234.755 157.466L206.895 102.004L210.761 69.8286L243.918 68.7598Z" fill="#FDB4B4"/>
<path d="M253.558 103.925H205.454V162.027H253.558V103.925Z" fill="#FF2D54"/>
<path d="M233.777 87.4408C251.92 87.4408 266.628 72.7375 266.628 54.6C266.628 36.4626 251.92 21.7593 233.777 21.7593C215.634 21.7593 200.926 36.4626 200.926 54.6C200.926 72.7375 215.634 87.4408 233.777 87.4408Z" fill="#FDB4B4"/>
<path d="M205.181 79.0203C205.181 79.0203 180.694 33.8106 202.772 12.0546C224.851 -9.70149 242.574 4.6344 242.574 4.6344L252.695 4.2255C252.695 4.2255 254.806 12.1878 258.209 7.87747C261.613 3.56715 267.763 19.2648 267.763 19.2648C279.179 39.8167 239.606 44.4207 239.606 44.4207C239.606 44.4207 242.463 53.5204 239.559 55.4261C236.654 57.3318 228.894 64.5007 228.894 64.5007L221.948 69.745L217.82 63.4578C217.82 63.4578 213.508 60.0553 211.33 61.4846C209.151 62.9138 212.148 81.7195 212.148 81.7195L205.181 79.0203Z" fill="#2E2E41"/>
<path d="M165.771 411.621L153.211 598.912L184.088 599.959L224.908 413.19L165.771 411.621Z" fill="#2E2E41"/>
<path d="M240.608 410.574L228.048 597.866L258.924 598.912L299.744 412.144L240.608 410.574Z" fill="#2E2E41"/>
<path d="M158.208 454.411L174.645 250.424L149.438 144.203C147.265 128.413 157.217 113.473 172.577 109.399L197.242 102.857L208.16 91.9434L232.991 146.762L248.5 91.9852L260.595 100.779L296.467 116.6L296.45 116.97L290.696 245.284L303.541 452.595L302.971 452.602L158.208 454.411Z" fill="#E8E9EA"/>
<path d="M256.942 596.784L265.882 623.465C265.882 623.465 300.859 628.219 301.403 639.044C301.948 649.869 253.868 643.603 225.714 645.017C197.561 646.432 220.996 615.954 220.996 615.954L223.997 598.44L256.942 596.784Z" fill="#2E2E41"/>
<path d="M183.93 594.863L192.87 621.544C192.87 621.544 227.847 626.298 228.391 637.123C228.935 647.948 180.856 641.682 152.702 643.096C124.549 644.511 147.984 614.033 147.984 614.033L150.984 596.519L183.93 594.863Z" fill="#2E2E41"/>
<path d="M140.311 346.076C139.932 340.815 140.818 335.54 142.897 330.693L136.225 275.974L162.363 273.562L166.316 329.327C168.943 333.899 170.436 339.034 170.671 344.301C171.44 357.477 165.267 368.55 156.882 369.039C148.497 369.528 141.077 359.247 140.311 346.076Z" fill="#FDB4B4"/>
<path d="M305.862 354.108C305.541 348.843 306.485 343.578 308.617 338.754L302.541 283.965L328.704 281.838L332.049 337.643C334.626 342.244 336.063 347.394 336.241 352.664C336.866 365.847 330.572 376.852 322.182 377.25C313.793 377.647 306.485 367.286 305.862 354.108Z" fill="#FDB4B4"/>
<path d="M136.117 324.131L136.029 323.659L122.407 250.593L138.503 131.611C139.939 120.989 149.427 113.337 160.127 114.192C165.714 114.639 170.728 117.289 174.245 121.653C177.761 126.018 179.282 131.479 178.528 137.032L166.414 226.267L174.041 321.711L136.117 324.131Z" fill="#E8E9EA"/>
<path d="M297.79 322.417L270.402 139.658C268.978 134.3 269.811 128.691 272.76 123.926C275.709 119.16 280.356 115.911 285.846 114.776C296.348 112.604 306.719 119.022 309.46 129.384L335.771 320.122L297.79 322.417Z" fill="#E8E9EA"/>
<path d="M233.795 163.468C235.652 163.468 237.157 161.963 237.157 160.107C237.157 158.251 235.652 156.746 233.795 156.746C231.938 156.746 230.432 158.251 230.432 160.107C230.432 161.963 231.938 163.468 233.795 163.468Z" fill="#D6D7D8"/>
<path d="M233.795 188.918C235.652 188.918 237.157 187.414 237.157 185.557C237.157 183.701 235.652 182.196 233.795 182.196C231.938 182.196 230.432 183.701 230.432 185.557C230.432 187.414 231.938 188.918 233.795 188.918Z" fill="#D6D7D8"/>
<path d="M233.795 214.368C235.652 214.368 237.157 212.863 237.157 211.007C237.157 209.15 235.652 207.646 233.795 207.646C231.938 207.646 230.432 209.15 230.432 211.007C230.432 212.863 231.938 214.368 233.795 214.368Z" fill="#D6D7D8"/>
<path d="M233.795 239.818C235.652 239.818 237.157 238.313 237.157 236.457C237.157 234.601 235.652 233.096 233.795 233.096C231.938 233.096 230.432 234.601 230.432 236.457C230.432 238.313 231.938 239.818 233.795 239.818Z" fill="#D6D7D8"/>
<path d="M233.795 265.268C235.652 265.268 237.157 263.763 237.157 261.907C237.157 260.05 235.652 258.545 233.795 258.545C231.938 258.545 230.432 260.05 230.432 261.907C230.432 263.763 231.938 265.268 233.795 265.268Z" fill="#D6D7D8"/>
<path d="M233.795 290.718C235.652 290.718 237.157 289.213 237.157 287.356C237.157 285.5 235.652 283.995 233.795 283.995C231.938 283.995 230.432 285.5 230.432 287.356C230.432 289.213 231.938 290.718 233.795 290.718Z" fill="#D6D7D8"/>
<path d="M233.795 316.168C235.652 316.168 237.157 314.663 237.157 312.807C237.157 310.95 235.652 309.445 233.795 309.445C231.938 309.445 230.432 310.95 230.432 312.807C230.432 314.663 231.938 316.168 233.795 316.168Z" fill="#D6D7D8"/>
<path d="M233.795 341.618C235.652 341.618 237.157 340.113 237.157 338.256C237.157 336.4 235.652 334.895 233.795 334.895C231.938 334.895 230.432 336.4 230.432 338.256C230.432 340.113 231.938 341.618 233.795 341.618Z" fill="#D6D7D8"/>
<path d="M488.883 76.9137L529.331 54.7622V118.052H482.552L488.883 76.9137Z" fill="#2E2E41"/>
<path d="M538.004 91.0239L541.737 122.095L514.833 175.654L498.134 125.805L505.984 89.9917L538.004 91.0239Z" fill="#FDB4B4"/>
<path d="M543.128 123.95H496.675V180.059H543.128V123.95Z" fill="#FF2D54"/>
<path d="M581.449 421.088L593.578 601.953L563.761 602.963L524.342 422.604L581.449 421.088Z" fill="#2E2E41"/>
<path d="M509.181 420.077L521.31 600.942L491.493 601.953L452.074 421.593L509.181 420.077Z" fill="#2E2E41"/>
<path d="M612.951 459.448L612.241 459.446L422.292 458.826L422.463 458.154L471.298 264.73L459.065 167.116C456.747 148.619 466.652 131.136 483.712 123.612L489.871 120.896L501.572 112.39L516.54 165.264L540.509 112.349L551.069 122.903L574.882 129.219C589.725 133.155 599.341 147.592 597.25 162.8L597.224 162.906L560.858 266.639L612.951 459.448Z" fill="#E8E9EA"/>
<path d="M493.407 599.897L525.222 601.496L528.119 618.409C528.119 618.409 550.751 647.841 523.563 646.475C496.376 645.109 449.946 651.16 450.471 640.707C450.997 630.254 484.774 625.663 484.774 625.663L493.407 599.897Z" fill="#2E2E41"/>
<path d="M563.914 598.043L595.729 599.641L598.626 616.555C598.626 616.555 621.258 645.987 594.07 644.621C566.883 643.255 520.453 649.306 520.978 638.853C521.504 628.399 555.281 623.809 555.281 623.809L563.914 598.043Z" fill="#2E2E41"/>
<path d="M593.048 355.937C592.308 368.656 585.143 378.585 577.046 378.112C568.949 377.64 562.987 366.947 563.73 354.223C563.956 349.137 565.398 344.178 567.935 339.763L571.753 285.911L596.994 288.241L590.551 341.082C592.558 345.763 593.415 350.857 593.048 355.937Z" fill="#FDB4B4"/>
<path d="M463.337 351.101C462.326 363.802 454.951 373.575 446.866 372.93C438.781 372.286 433.048 361.469 434.061 348.764C434.396 343.683 435.943 338.757 438.574 334.396L443.537 280.638L468.723 283.504L461.156 336.196C463.063 340.919 463.811 346.03 463.337 351.101Z" fill="#FDB4B4"/>
<path d="M597.113 334.766L560.455 332.427L560.499 331.877L567.822 240.24L556.124 154.07C555.395 148.702 556.866 143.423 560.264 139.204C563.663 134.985 568.509 132.424 573.911 131.992C584.253 131.177 593.423 138.562 594.812 148.83L610.356 263.731L610.34 263.817L597.113 334.766Z" fill="#E8E9EA"/>
<path d="M469.44 331.255L432.723 329.036L432.804 328.457L458.122 144.886C460.785 134.804 470.814 128.603 480.961 130.701C486.268 131.798 490.759 134.939 493.61 139.545C496.46 144.152 497.266 149.573 495.878 154.809L469.44 331.255Z" fill="#E8E9EA"/>
<path d="M515.76 181.45C517.554 181.45 519.007 179.997 519.007 178.204C519.007 176.412 517.554 174.958 515.76 174.958C513.967 174.958 512.513 176.412 512.513 178.204C512.513 179.997 513.967 181.45 515.76 181.45Z" fill="#D6D7D8"/>
<path d="M515.76 206.027C517.554 206.027 519.007 204.574 519.007 202.781C519.007 200.988 517.554 199.535 515.76 199.535C513.967 199.535 512.513 200.988 512.513 202.781C512.513 204.574 513.967 206.027 515.76 206.027Z" fill="#D6D7D8"/>
<path d="M515.76 230.604C517.554 230.604 519.007 229.15 519.007 227.358C519.007 225.565 517.554 224.112 515.76 224.112C513.967 224.112 512.513 225.565 512.513 227.358C512.513 229.15 513.967 230.604 515.76 230.604Z" fill="#D6D7D8"/>
<path d="M515.76 255.18C517.554 255.18 519.007 253.727 519.007 251.934C519.007 250.142 517.554 248.688 515.76 248.688C513.967 248.688 512.513 250.142 512.513 251.934C512.513 253.727 513.967 255.18 515.76 255.18Z" fill="#D6D7D8"/>
<path d="M515.76 279.757C517.554 279.757 519.007 278.304 519.007 276.511C519.007 274.718 517.554 273.265 515.76 273.265C513.967 273.265 512.513 274.718 512.513 276.511C512.513 278.304 513.967 279.757 515.76 279.757Z" fill="#D6D7D8"/>
<path d="M515.76 304.334C517.554 304.334 519.007 302.88 519.007 301.088C519.007 299.295 517.554 297.842 515.76 297.842C513.967 297.842 512.513 299.295 512.513 301.088C512.513 302.88 513.967 304.334 515.76 304.334Z" fill="#D6D7D8"/>
<path d="M515.76 328.91C517.554 328.91 519.007 327.457 519.007 325.664C519.007 323.872 517.554 322.418 515.76 322.418C513.967 322.418 512.513 323.872 512.513 325.664C512.513 327.457 513.967 328.91 515.76 328.91Z" fill="#D6D7D8"/>
<path d="M515.76 353.487C517.554 353.487 519.007 352.034 519.007 350.241C519.007 348.448 517.554 346.995 515.76 346.995C513.967 346.995 512.513 348.448 512.513 350.241C512.513 352.034 513.967 353.487 515.76 353.487Z" fill="#D6D7D8"/>
<path d="M520.689 106.882C537.463 106.882 551.061 93.2884 551.061 76.5204C551.061 59.7524 537.463 46.1592 520.689 46.1592C503.916 46.1592 490.318 59.7524 490.318 76.5204C490.318 93.2884 503.916 106.882 520.689 106.882Z" fill="#FDB4B4"/>
<path d="M536.606 41.0775C538.061 44.0364 535.753 47.7325 532.698 48.9765C529.644 50.2205 526.193 49.7165 522.936 49.1986C519.679 48.6808 516.223 48.1898 513.178 49.4558C509.237 51.0939 507.016 55.2031 505.102 59.0163C501.528 66.1349 497.955 73.2536 494.382 80.3722C492.636 83.8502 490.851 87.4846 490.817 91.3758C490.755 98.5184 496.423 104.227 499.473 110.686C503.186 118.551 502.88 128.189 498.675 135.803C494.47 143.417 486.474 148.811 477.838 149.86C475.566 150.136 473.161 150.106 471.118 149.074C469.075 148.043 467.516 145.789 467.894 143.532C468.634 139.118 475.381 138.087 476.62 133.786C477.267 131.541 476.121 129.144 474.577 127.39C473.033 125.637 471.08 124.269 469.607 122.455C466.21 118.273 465.984 111.817 469.079 107.407C470.898 104.815 473.712 102.89 474.888 99.95C475.89 97.4443 475.526 94.6276 475.146 91.9559C474.659 88.5227 474.171 85.0896 473.683 81.6564C473.114 77.6509 472.554 73.5018 473.679 69.6155C476.256 60.7095 486.315 56.5267 492.214 49.373C494.956 46.0487 496.8 42.0508 499.612 38.7864C504.331 33.3082 511.761 30.2862 518.966 30.9144C526.171 31.5426 532.966 35.8049 536.665 42.0172" fill="#2E2E41"/>
<path d="M531.811 41.6392C530.327 42.1696 529.777 44.1016 530.204 45.618C530.631 47.1343 531.749 48.3391 532.773 49.5368C544.351 63.0822 547.042 83.571 539.355 99.6452C537.31 103.921 534.586 107.945 533.483 112.554C532.68 115.907 532.723 119.586 530.862 122.489C528.968 125.445 525.213 127.426 524.842 130.917C524.603 133.157 525.969 135.333 527.8 136.647C529.631 137.96 531.868 138.561 534.068 139.051C539.785 140.325 545.631 141.02 551.488 141.123C553.397 141.157 555.368 141.115 557.119 140.355C558.871 139.594 560.366 137.945 560.386 136.036C560.401 134.535 559.536 133.151 559.425 131.655C559.095 127.171 565.13 124.786 566.306 120.447C567.079 117.594 565.556 114.658 563.933 112.187C562.311 109.716 560.459 107.121 560.499 104.166C560.537 101.336 562.313 98.8445 563.004 96.1003C563.959 92.3046 562.786 88.3342 561.622 84.5971C560.633 81.4198 559.644 78.2426 558.655 75.0653C557.603 71.6878 556.552 68.3103 555.5 64.9328C553.665 59.0363 551.738 52.969 547.765 48.2398C543.793 43.5105 537.21 40.4109 531.343 42.3417" fill="#2E2E41"/>
</g>
<defs>
<clipPath id="clip0_209_565">
<rect width="751" height="647" fill="white"/>
</clipPath>
</defs>
</svg>
