<svg width="722" height="584" viewBox="0 0 722 584" fill="none" xmlns="http://www.w3.org/2000/svg">
<g clip-path="url(#clip0_209_513)">
<path d="M162.512 295.362C153.325 294.744 149.046 296.532 146.283 298.353C145.396 298.938 144.521 299.623 143.694 300.362C147.87 291.892 152.147 283.458 156.505 275.084C156.534 276.208 156.734 276.741 157.228 277.008C158.358 277.618 160.994 275.665 166.222 271.735C170.195 268.747 170.703 267.99 170.998 267.471C172.037 265.646 171.948 264.143 171.308 257.588C170.159 245.822 169.863 244.718 170.42 241.94C170.612 240.983 171.136 238.678 170.764 238.546C170.382 238.41 169.788 240.828 167.674 242.406C165.614 243.944 164.165 243.15 162.292 244.14C159.872 245.419 159.206 248.379 158.205 253.143C157.317 257.362 157.544 258.855 157.015 266.804C156.865 269.056 156.723 270.808 156.626 272.187C152.723 279.648 148.894 287.163 145.134 294.708C145.185 294.501 145.233 294.306 145.274 294.136C146.438 289.367 146.05 287.165 145.465 285.619C144.518 283.114 142.635 281.614 138.908 278.717C135.256 275.877 132.166 274.242 128.454 272.301C123.587 269.756 121.154 268.483 120.494 268.855C118.837 269.789 119.083 274.684 120.468 280.808C117.316 279.183 115.643 278.421 115.113 278.719C114.885 278.847 114.694 279.053 114.537 279.324C112.181 279.208 109.058 279.342 105.484 279.811C108.304 278.791 111.472 277.447 114.885 275.613C117.844 274.024 119.32 273.215 119.178 272.547C118.671 270.156 98.4703 270.204 81.1531 279.293C73.0001 283.572 70.2889 287.334 68.8869 290.331C68.4367 291.293 68.0489 292.335 67.7311 293.399C66.858 283.994 66.0911 274.569 65.4245 265.152C66.0369 266.096 66.4863 266.446 67.047 266.415C68.3293 266.343 69.5547 263.3 71.9535 257.216C73.7767 252.592 73.8131 251.681 73.7934 251.084C73.7241 248.986 72.862 247.75 68.8869 242.499C61.7523 233.072 60.9221 232.286 59.9434 229.627C59.6064 228.711 58.8467 226.473 58.4607 226.554C58.064 226.638 58.8233 229.01 57.8474 231.46C56.8961 233.848 55.2451 233.93 54.1675 235.753C52.7745 238.109 53.7554 240.98 55.3941 245.565C56.8453 249.625 57.8191 250.778 61.5272 257.829C62.5776 259.827 63.3731 261.395 64.012 262.621C64.5895 271.02 65.2577 279.428 65.9999 287.825C65.9351 287.622 65.8738 287.431 65.8204 287.265C64.3167 282.591 62.8345 280.918 61.5272 279.906C59.4092 278.266 57.0199 277.973 52.3275 277.453C47.7294 276.943 44.2412 277.166 40.0614 277.453C34.5825 277.829 31.8429 278.017 31.475 278.679C30.4652 280.497 33.8777 285.158 38.9768 290.145C34.8142 290.44 32.6923 290.657 32.3719 291.234C31.534 292.742 33.7467 296.211 37.4334 300.196C34.8708 300.416 33.5191 300.647 33.2687 301.098C30.4557 306.16 61.8882 333.283 68.8407 328.08C69.3686 327.685 69.7426 327.105 70.0001 326.398C70.114 327.354 70.2303 328.311 70.3464 329.268C62.1333 328.344 46.3559 330.819 36.9948 340.616C32.3413 345.486 31.6399 349.691 31.475 351.041C30.7437 357.031 33.659 363.406 36.0777 363.875C36.7918 368.334 39.0294 372.022 40.8658 371.99C43.1682 371.95 42.7608 366.101 48.2255 359.725C52.0386 355.276 56.573 353.066 59.2651 351.753C65.0472 348.934 68.4068 349.017 72.572 346.72C72.6556 347.339 72.7448 347.957 72.8293 348.576C65.1997 349.856 56.4871 353.127 50.4476 359.448C45.794 364.318 45.0927 368.522 44.9278 369.873C44.4772 373.563 45.4148 377.395 46.7639 379.911C43.0936 383.766 42.0789 387.791 40.0614 395.807C38.7725 400.929 39.054 402.746 40.0614 403.779C40.8945 404.634 42.2107 404.938 47.4211 404.393C53.0732 403.801 55.8993 403.504 58.4607 402.553C62.5123 401.048 65.3056 398.463 70.7269 393.354C72.9561 391.254 74.8411 389.469 76.3778 387.913C77.1773 388.185 77.9275 388.393 78.6853 388.542C78.7733 388.56 78.8601 388.572 78.9477 388.589C80.3458 396.873 81.823 405.133 83.3773 413.358C78.3207 414.486 74.0001 417.814 71.626 422.604L52.8649 460.449C51.6805 462.838 51.0543 465.51 51.0543 468.176V565.49C51.0543 575.085 58.8611 582.891 68.4571 582.891H112.248C121.844 582.891 129.651 575.085 129.651 565.49V475.883C129.651 473.698 129.246 471.56 128.448 469.526L110.568 423.975C107.982 417.389 101.804 413.101 94.7595 412.946C98.4122 403.311 102.181 393.687 106.081 384.103C106.682 383.869 107.214 383.627 107.676 383.37C108.395 384.16 109.87 385.08 112.996 386.575C118.123 389.026 120.687 390.252 123.367 390.781C127.608 391.618 131.341 390.875 138.634 389.357C148.557 387.291 153.54 386.2 154.578 383.313C156.015 379.317 151.508 374.17 150.267 372.752C147.567 369.668 144.588 368.263 142.747 367.417C140.356 366.319 133.543 363.19 125.307 365.348C120.123 366.706 117.154 369.607 111.215 375.408C110.644 375.967 110.15 376.475 109.712 376.948C109.613 376.664 109.501 376.383 109.379 376.105C110.212 374.097 111.045 372.09 111.888 370.087C117.977 364.311 120.974 361.13 120.405 358.4C120.138 357.119 119.33 356.041 118.291 355.144C119.446 352.492 120.604 349.842 121.775 347.201C122.314 347.189 122.87 347.163 123.468 347.107C126.606 346.811 130.158 346.476 130.537 344.969C130.738 344.172 130.048 343.007 128.691 341.695C130.651 341.148 133.637 337.159 140.339 334.999C145.916 333.202 150.937 333.69 153.918 333.979C161.611 334.726 164.121 337.223 171.038 336.571C174.175 336.275 177.728 335.94 178.107 334.433C178.277 333.757 177.801 332.814 176.828 331.743C178.571 331.983 180.436 332.174 182.424 332.288C185.777 332.481 187.458 332.564 187.687 331.92C188.506 329.617 171.264 319.092 151.75 317.78C147.012 317.462 143.587 317.786 140.994 318.421C147.232 316.093 156.515 312.554 166.706 315.419C170.214 316.406 177.314 319.131 187.805 319.734C191.158 319.926 192.839 320.009 193.068 319.366C193.886 317.064 176.659 306.547 157.156 305.228C161.682 304.313 166.76 304.057 172.087 305.555C175.595 306.541 182.695 309.267 193.186 309.869C196.539 310.062 198.22 310.145 198.449 309.502C199.268 307.199 182.026 296.674 162.512 295.362ZM72.3676 335.684C72.6319 335.477 72.891 335.269 73.1406 335.061C73.5883 335.718 74.0611 336.224 74.5339 336.544C74.5843 336.807 74.6383 337.068 74.6987 337.324C74.0324 337.253 73.3187 337.204 72.5629 337.179C72.4993 336.681 72.4307 336.182 72.3676 335.684ZM110.907 301.177C110.983 301.614 111.066 302.059 111.157 302.515C110.323 302.355 109.368 302.241 108.324 302.174C109.157 301.871 110.017 301.542 110.907 301.177ZM112.893 309.427C112.253 309.363 111.568 309.32 110.848 309.298C111.411 308.87 111.968 308.435 112.483 308.002C112.615 308.474 112.751 308.949 112.893 309.427ZM98.1287 323.637C104.732 320.536 108.152 321.197 113.566 317.128C114.07 316.75 114.586 316.361 115.088 315.969C116.884 320.759 119.034 325.328 121.249 328.64C115.047 325.508 106.525 322.964 98.1287 323.637ZM114.026 284.131C114.225 286.744 114.866 290.066 115.821 293.636C115.767 293.636 115.713 293.636 115.658 293.635C113.288 292.443 111.982 291.913 111.526 292.17C111.051 292.438 110.732 293.032 110.552 293.886C103.104 294.596 93.0655 296.871 83.8436 301.711C75.6907 305.99 72.9794 309.752 71.5775 312.749C70.9798 314.027 70.4914 315.444 70.1328 316.867C69.9489 315.216 69.7596 313.569 69.5819 311.915C73.5898 310.356 79.6494 295.296 94.6459 291.043C98.0422 290.079 105.17 288.734 114.026 284.131ZM70.3977 337.172C70.5083 337.091 70.6146 337.021 70.7268 336.937C70.8979 336.808 71.0705 336.678 71.2435 336.548C71.2695 336.752 71.2975 336.956 71.3235 337.16C71.0194 337.161 70.7124 337.164 70.3977 337.172ZM73.7194 346.036C74.2031 345.727 74.6957 345.395 75.2111 345.007C75.9868 344.424 76.7935 343.818 77.5257 343.214C78.0929 343.785 78.6743 344.12 79.2207 344.111C79.4346 344.107 79.6194 344.038 79.7934 343.938C79.3234 345.344 79.0465 346.722 78.9584 347.946C77.4154 348 75.7654 348.139 74.041 348.385C73.934 347.602 73.825 346.819 73.7194 346.036ZM93.4536 412.931H87.2182C86.3251 412.931 85.4458 413.003 84.583 413.133C83.0546 405.045 81.6014 396.924 80.2243 388.779C83.8911 389.185 87.5498 388.452 93.9518 387.119C98.4877 386.174 101.98 385.433 104.547 384.631C100.728 394.037 97.0333 403.478 93.4536 412.931ZM108.052 373.7C108.565 373.221 109.108 372.711 109.674 372.178C109.328 373.005 108.991 373.836 108.647 374.663C108.456 374.33 108.256 374.01 108.052 373.7ZM111.205 351.654C107.292 350.439 104.017 350.799 102.006 351.041C99.4839 351.345 92.4623 352.206 86.6789 357.797C84.7484 357.746 82.5627 357.853 80.2337 358.145C81.4738 357.576 82.7572 356.837 84.1796 355.768C86.699 353.875 89.5514 351.732 89.0861 350.249C88.8711 349.564 87.927 348.996 86.4673 348.59C88.1115 347.501 90.1538 346.378 92.7695 345.535C98.3467 343.738 103.368 344.226 106.349 344.515C112.802 345.142 115.617 346.993 120.436 347.19C119.377 349.582 118.331 351.982 117.285 354.382C115.048 352.855 112.282 351.989 111.205 351.654ZM125.396 339.109C125.438 339.015 125.48 338.921 125.522 338.827C125.856 338.788 126.185 338.746 126.507 338.7C126.53 339.184 126.592 339.621 126.689 340.011C126.287 339.713 125.85 339.411 125.396 339.109ZM135.521 320.772C135.491 320.792 135.462 320.814 135.432 320.834C135.503 320.578 135.57 320.332 135.635 320.091C136.184 320.015 136.812 319.86 137.513 319.646C136.762 320.005 136.105 320.387 135.521 320.772Z" fill="#F2F2F2"/>
<path d="M216.296 574.684L229.974 574.683L236.481 521.927L216.293 521.929L216.296 574.684Z" fill="#FFB6B6"/>
<path d="M263.161 574.374C263.587 575.091 263.812 577.406 263.812 578.24C263.812 580.803 261.733 582.882 259.169 582.882H216.807C215.058 582.882 213.64 581.464 213.64 579.715V577.952C213.64 577.952 211.544 572.651 215.859 566.119C215.859 566.119 221.221 571.234 229.234 563.222L231.597 558.942L248.7 571.45L258.181 572.617C260.255 572.872 262.094 572.577 263.161 574.374Z" fill="#2F2E41"/>
<path d="M291.631 574.684L305.31 574.683L311.817 521.927L291.628 521.929L291.631 574.684Z" fill="#FFB6B6"/>
<path d="M338.496 574.374C338.922 575.091 339.147 577.406 339.147 578.24C339.147 580.803 337.068 582.882 334.504 582.882H292.143C290.393 582.882 288.975 581.464 288.975 579.715V577.952C288.975 577.952 286.88 572.651 291.194 566.119C291.194 566.119 296.556 571.234 304.569 563.222L306.932 558.942L324.036 571.45L333.516 572.617C335.59 572.872 337.429 572.577 338.496 574.374Z" fill="#2F2E41"/>
<path d="M286.136 154.73C286.136 154.73 301.891 147.556 311.95 154.73C322.01 161.904 330.978 226.47 320.216 237.231C309.454 247.992 291.517 223.78 291.517 223.78L286.136 154.73Z" fill="#FFB6B6"/>
<path d="M226.592 155.585C226.592 155.585 210.837 148.411 200.778 155.585C190.718 162.759 181.75 227.324 192.512 238.085C203.274 248.846 221.211 224.634 221.211 224.634L226.592 155.585Z" fill="#FFB6B6"/>
<path d="M227.041 234.946C227.041 234.946 221.66 259.158 215.382 269.919L261.121 296.821L296.995 273.506C296.995 273.506 279.955 245.707 282.645 237.637L227.041 234.946Z" fill="#FFB6B6"/>
<path d="M538.672 571.996L521.105 571.994L512.749 504.245L538.675 504.247L538.672 571.996Z" fill="#FFB6B6"/>
<path d="M478.487 571.597C477.94 572.518 477.652 575.491 477.652 576.562C477.652 579.854 480.321 582.524 483.614 582.524H538.015C540.261 582.524 542.082 580.703 542.082 578.457V576.192C542.082 576.192 544.773 569.386 539.233 560.996C539.233 560.996 532.346 567.565 522.057 557.277L519.022 551.78L497.057 567.842L484.883 569.341C482.219 569.669 479.857 569.29 478.487 571.597Z" fill="#2F2E41"/>
<path d="M592.971 571.996L575.405 571.994L567.049 504.245L592.975 504.247L592.971 571.996Z" fill="#FFB6B6"/>
<path d="M532.787 571.597C532.24 572.518 531.951 575.491 531.951 576.562C531.951 579.854 534.62 582.524 537.913 582.524H592.314C594.561 582.524 596.382 580.703 596.382 578.457V576.192C596.382 576.192 599.073 569.386 593.532 560.996C593.532 560.996 586.646 567.565 576.356 557.277L573.322 551.78L551.357 567.842L539.182 569.341C536.519 569.669 534.157 569.29 532.787 571.597Z" fill="#2F2E41"/>
<path d="M502.126 181.172C502.126 181.172 499.582 197.546 502.529 208.112L459.262 284.826L476.093 297.091L532.299 226.382L540.088 191.446L502.126 181.172Z" fill="#FFB6B6"/>
<path d="M473.51 308.249C479.473 297.678 479.012 286.122 472.482 282.44C465.951 278.758 455.824 284.343 449.862 294.915C443.899 305.487 444.36 317.042 450.89 320.724C457.42 324.406 467.548 318.821 473.51 308.249Z" fill="#FFB6B6"/>
<path d="M519.005 259.221C519.005 259.221 498.32 273.817 505.43 295.605L499.612 369.1L512.541 520.345H540.388L544.862 411.759L562.962 343.246L565.308 520.345L599.808 519.698C599.808 519.698 601.747 431.149 599.162 425.978C596.576 420.808 599.162 424.955 599.162 424.955L620.494 321.255L617.261 250.172L519.005 259.221Z" fill="#2F2E41"/>
<path d="M570.073 78.8911L532.58 93.1107L536.459 103.452L505.43 126.721L526.116 199.111L514.48 263.746L548.094 262.453L620.494 255.99L612.737 177.136L614.029 100.867L585.587 90.5253L570.073 78.8911Z" fill="#FF2D54"/>
<path d="M515.127 124.781L505.43 126.72C505.43 126.72 500.905 129.952 500.905 141.586C500.905 153.22 500.905 160.977 502.198 167.44C502.198 167.44 494.441 188.123 497.027 193.294C499.612 198.465 531.934 198.465 531.934 198.465L515.127 124.781Z" fill="#FF2D54"/>
<path d="M568.556 48.8945C568.556 65.1688 555.361 78.3617 539.085 78.3617C522.809 78.3617 509.614 65.1688 509.614 48.8945C509.614 32.6202 522.809 19.4272 539.085 19.4272C555.361 19.4272 568.556 32.6202 568.556 48.8945Z" fill="#FFB6B6"/>
<path d="M557.502 69.4133C557.502 69.4133 562.723 49.3578 557.16 52.8942L548.526 52.0739L553.977 37.4933C553.977 37.4933 544.218 30.1782 540.327 34.4542C536.436 38.7302 537.369 41.1416 533.832 35.5791C530.295 30.0166 522.905 30.1218 516.136 34.1243C509.367 38.1269 504.077 38.7857 505.363 31.3587C506.65 23.9317 505.929 11.3115 509.947 12.7427C513.966 14.174 512.864 14.9818 515.031 9.79536C517.198 4.60893 517.472 1.73135 522.488 3.95011C527.504 6.16886 540.11 -4.24768 545.319 2.05438C550.528 8.35643 555.078 9.36946 559.627 10.3825C564.177 11.3955 582.458 8.48677 580.929 36.7964C580.929 36.7964 593.131 61.1843 571.152 72.4524C571.152 72.4524 565.187 66.5666 561.023 73.7202L557.502 69.4133Z" fill="#2F2E41"/>
<path d="M274.574 132.718L245.875 133.615L230.628 152.446L213.588 156.033C213.588 156.033 208.207 206.251 216.279 224.185C224.35 242.12 220.763 247.501 220.763 247.501L285.336 246.604C285.336 246.604 283.542 234.424 294.304 223.924L299.702 203.953C302.587 193.275 301.604 181.922 296.926 171.899L285.336 147.066L275.471 143.479L274.574 132.718Z" fill="#2F2E41"/>
<path d="M220.763 258.262L216.727 264.987C216.727 264.987 204.171 282.025 202.377 330.449C200.584 378.873 215.382 535.567 215.382 535.567H235.861L258 323.569L287.578 535.803L314.035 536.252L311.793 319.689C311.793 319.689 306.412 270.368 292.062 259.607C292.062 259.607 245.875 301.305 220.763 258.262Z" fill="#2F2E41"/>
<path d="M183.412 152.027C183.412 161.337 182.851 168.264 172.684 168.884C163.134 169.466 161.956 161.337 161.956 152.027C161.956 142.718 162.178 135.246 172.684 135.171C184.645 135.085 183.412 142.718 183.412 152.027Z" fill="#FF2D54"/>
<path d="M243.184 152.027C243.184 161.337 245.631 168.264 232.456 168.884C222.32 169.361 221.727 161.337 221.727 152.027C221.727 142.718 223.216 136.215 232.456 135.171C241.147 134.188 243.184 142.718 243.184 152.027Z" fill="#FF2D54"/>
<path d="M233.988 144.365H174.216V158.157H233.988V144.365Z" fill="#FF2D54"/>
<path d="M286.55 149.337C286.55 158.647 285.989 165.574 275.822 166.194C266.272 166.776 265.093 158.647 265.093 149.337C265.093 140.027 265.316 132.556 275.822 132.48C287.783 132.394 286.55 140.027 286.55 149.337Z" fill="#FF2D54"/>
<path d="M346.322 149.337C346.322 158.647 348.768 165.574 335.593 166.194C325.458 166.67 324.865 158.647 324.865 149.337C324.865 140.027 326.354 133.525 335.593 132.48C344.284 131.498 346.322 140.027 346.322 149.337Z" fill="#FF2D54"/>
<path d="M337.126 141.675H277.354V155.467H337.126V141.675Z" fill="#FF2D54"/>
<path d="M442.602 296.403C442.602 305.713 442.041 312.64 431.873 313.26C422.324 313.842 421.145 305.713 421.145 296.403C421.145 287.093 421.367 279.622 431.873 279.546C443.835 279.46 442.602 287.093 442.602 296.403Z" fill="#FF2D54"/>
<path d="M502.374 296.403C502.374 305.713 504.82 312.64 491.645 313.26C481.51 313.736 480.917 305.713 480.917 296.403C480.917 287.093 482.406 280.591 491.645 279.546C500.336 278.564 502.374 287.093 502.374 296.403Z" fill="#FF2D54"/>
<path d="M493.178 288.741H433.406V302.533H493.178V288.741Z" fill="#FF2D54"/>
<path d="M307.699 170.519C314.134 170.519 319.351 162.073 319.351 151.655C319.351 141.237 314.134 132.792 307.699 132.792C301.264 132.792 296.047 141.237 296.047 151.655C296.047 162.073 301.264 170.519 307.699 170.519Z" fill="#FFB6B6"/>
<path d="M252.601 121.957C270.185 121.957 284.439 107.704 284.439 90.1224C284.439 72.5408 270.185 58.2881 252.601 58.2881C235.017 58.2881 220.763 72.5408 220.763 90.1224C220.763 107.704 235.017 121.957 252.601 121.957Z" fill="#FFB6B6"/>
<path d="M246.209 100.125L253.575 88.4039L256.893 72.4628C256.893 72.4628 290.45 80.6467 281.447 64.279C272.444 47.9113 249.526 43.8194 233.975 56.0952L227.272 62.6422C227.272 62.6422 242.16 48.7297 233.157 43.8194C224.153 38.9091 225.79 35.6356 220.879 39.7275C215.968 43.8194 218.424 47.0929 212.694 44.6378C206.965 42.1826 194.688 38.9091 196.325 43.001C197.962 47.0929 185.614 57.7319 190.151 62.6422C194.688 67.5525 190.595 77.3731 198.78 74.918C206.965 72.4628 202.873 84.7386 210.239 79.8283C210.239 79.8283 204.193 87.5324 209.104 93.2611C214.015 98.9898 221.581 101.219 220.763 109.402C219.944 117.586 239.597 119.267 239.597 119.267L238.067 95.3776C238.067 95.3776 242.935 91.3875 246.209 100.125Z" fill="#2F2E41"/>
<path d="M570.353 155.057C570.353 155.057 565.659 170.949 567.178 181.812L514.116 252.109L529.171 266.498L594.261 203.87L606.616 170.275L570.353 155.057Z" fill="#FFB6B6"/>
<path d="M525.13 277.215C532.443 267.528 533.519 256.014 527.535 251.498C521.551 246.982 510.772 251.174 503.46 260.862C496.148 270.549 495.071 282.063 501.055 286.579C507.039 291.095 517.818 286.903 525.13 277.215Z" fill="#FFB6B6"/>
<path d="M608.807 96.6196C608.807 96.6196 625.337 102.616 623.234 113.985C621.131 125.355 620.333 132.85 620.333 132.85C620.333 132.85 622.124 139.06 619.787 142.156C617.451 145.251 605.455 181.546 605.455 181.546L562.31 166.802C562.31 166.802 587.603 96.8141 608.807 96.6196Z" fill="#FF2D54"/>
<path d="M722 583.246C722 583.662 721.663 584 721.247 584H0.753381C0.337305 584 0 583.662 0 583.246C0 582.83 0.337296 582.493 0.753381 582.493H721.247C721.663 582.493 722 582.83 722 583.246Z" fill="#E6E6E6"/>
<path d="M216.681 152.509C216.681 162.927 211.464 171.373 205.029 171.373C198.594 171.373 193.377 162.927 193.377 152.509C193.377 142.091 198.594 133.646 205.029 133.646C211.464 133.646 216.681 142.091 216.681 152.509Z" fill="#FFB6B6"/>
</g>
<defs>
<clipPath id="clip0_209_513">
<rect width="722" height="584" fill="white"/>
</clipPath>
</defs>
</svg>
