<svg width="868" height="584" viewBox="0 0 868 584" fill="none" xmlns="http://www.w3.org/2000/svg">
<g clip-path="url(#clip0_209_463)">
<path d="M459.031 584C684.898 584 868 560.964 868 532.548C868 504.132 684.898 481.097 459.031 481.097C233.164 481.097 50.0626 504.132 50.0626 532.548C50.0626 560.964 233.164 584 459.031 584Z" fill="#F2F2F2"/>
<path d="M584.625 416.823C584.625 418.457 584.576 420.09 584.486 421.658C584.486 421.895 584.486 422.124 584.486 422.36C584.05 429.26 582.797 436.083 580.754 442.688C580.697 442.892 580.624 443.113 580.558 443.317C578.466 449.891 575.656 456.215 572.181 462.174L571.829 462.762C568.096 469.043 563.718 474.917 558.765 480.288L558.258 480.827C552.692 486.801 546.528 492.187 539.862 496.9C539.633 497.071 539.396 497.243 539.167 497.398C532.184 502.288 524.756 506.509 516.982 510.008C515.912 510.49 514.834 510.963 513.716 511.429L512.736 511.837C500.841 516.734 488.378 520.117 475.64 521.907L474.08 522.119C466.928 523.064 459.721 523.536 452.507 523.532C399.039 523.532 352.986 497.872 332.205 460.949C330.806 458.483 329.529 455.967 328.375 453.403L327.902 452.349C323.49 442.312 320.979 431.542 320.496 420.588C320.496 420.319 320.496 420.057 320.496 419.772C320.496 418.792 320.455 417.803 320.455 416.815C320.451 409.179 321.451 401.576 323.427 394.201C323.484 393.972 323.541 393.752 323.607 393.531C325.683 386.016 328.701 378.794 332.589 372.036C332.695 371.848 332.801 371.652 332.915 371.464C336.746 364.919 341.28 358.812 346.437 353.252C346.573 353.084 346.717 352.923 346.87 352.77L346.935 352.705C347.581 352.019 348.234 351.325 348.903 350.647L349.908 349.634C350.569 348.973 351.247 348.327 351.925 347.674H351.965C353.598 346.139 355.262 344.65 356.954 343.207C359.306 341.214 361.764 339.295 364.303 337.449L364.851 337.041C371.593 332.231 378.759 328.046 386.26 324.537C386.481 324.431 386.71 324.317 386.93 324.227C395.382 320.323 404.182 317.222 413.215 314.965C413.501 314.884 413.778 314.818 414.031 314.753C425.219 312.022 436.667 310.503 448.179 310.221C448.563 310.221 448.947 310.221 449.339 310.221C450.384 310.221 451.437 310.18 452.491 310.18C505.477 310.18 551.179 335.391 572.23 371.758C572.417 372.085 572.597 372.412 572.785 372.73L573.601 374.159C574.05 374.976 574.475 375.793 574.9 376.658C575.096 377.05 575.283 377.434 575.471 377.826C575.586 378.055 575.708 378.284 575.814 378.52C578.895 384.927 581.205 391.677 582.698 398.627C582.763 398.897 582.812 399.158 582.869 399.444C584.033 405.164 584.621 410.986 584.625 416.823Z" fill="#FF2D54"/>
<g opacity="0.2">
<path d="M572.809 372.656C566.772 370.37 560.784 367.99 554.845 365.519C517.785 350.174 482.118 331.656 448.245 310.171H449.404C488.239 334.688 529.403 355.303 572.295 371.717C572.45 372.036 572.63 372.338 572.809 372.656Z" fill="#F2F2F2"/>
</g>
<g opacity="0.2">
<path d="M582.861 399.346C568.163 394.446 553.62 389.001 539.233 383.012C501.791 367.521 465.773 348.791 431.587 327.036C425.142 322.936 419.018 318.894 413.215 314.908L414.031 314.704C419.698 318.575 425.686 322.517 431.995 326.53C479.155 356.501 529.75 380.686 582.689 398.562C582.755 398.823 582.804 399.085 582.861 399.346Z" fill="#F2F2F2"/>
</g>
<g opacity="0.2">
<path d="M584.486 421.658C584.486 421.895 584.486 422.132 584.486 422.36C563.969 416.104 543.705 408.841 523.694 400.571C486.245 385.067 450.221 366.323 416.032 344.554C405.213 337.669 395.283 330.923 386.285 324.488L386.955 324.169C395.879 330.548 405.735 337.236 416.432 344.048C468.735 377.304 525.255 403.406 584.486 421.658Z" fill="#F2F2F2"/>
</g>
<g opacity="0.2">
<path d="M580.713 442.679C580.656 442.9 580.583 443.112 580.518 443.325C555.909 436.3 531.721 427.874 508.073 418.089C470.629 402.59 434.61 383.849 400.428 362.08C386.987 353.529 374.927 345.183 364.303 337.4L364.851 337C375.466 344.75 387.453 353.056 400.828 361.574C456.613 397.055 517.19 424.367 580.713 442.679Z" fill="#F2F2F2"/>
</g>
<g opacity="0.2">
<path d="M572.14 462.174L571.789 462.762C544.816 455.377 518.333 446.311 492.494 435.615C455.049 420.111 419.028 401.371 384.84 379.606C370.436 370.435 357.6 361.492 346.462 353.235C346.592 353.08 346.739 352.917 346.895 352.762C358.049 361.01 370.877 369.912 385.272 379.1C428.035 406.337 492.085 440.221 572.14 462.174Z" fill="#F2F2F2"/>
</g>
<g opacity="0.2">
<path d="M558.732 480.288L558.226 480.827C530.556 473.352 503.396 464.104 476.914 453.141C439.468 437.639 403.447 418.899 369.26 397.133C355.607 388.427 343.359 379.941 332.589 372.036C332.695 371.848 332.801 371.66 332.915 371.472C343.686 379.386 355.966 387.896 369.66 396.618C412.839 424.116 477.665 458.36 558.732 480.288Z" fill="#F2F2F2"/>
</g>
<g opacity="0.2">
<path d="M539.829 496.9C539.6 497.071 539.363 497.243 539.135 497.398C512.679 490.087 486.697 481.161 461.334 470.667C423.888 455.167 387.867 436.426 353.68 414.659C342.657 407.635 332.54 400.775 323.402 394.201C323.46 393.98 323.517 393.76 323.582 393.539C332.785 400.13 342.967 407.072 354.088 414.152C396.671 441.267 460.313 474.939 539.829 496.9Z" fill="#F2F2F2"/>
</g>
<g opacity="0.2">
<path d="M513.707 511.429L512.728 511.837C490.007 505.144 467.656 497.252 445.771 488.194C424.54 479.414 403.628 469.508 383.231 458.589C367.88 450.357 352.842 441.555 338.117 432.185C331.96 428.265 326.097 424.399 320.528 420.588C320.528 420.319 320.528 420.057 320.528 419.771C326.233 423.664 332.246 427.628 338.566 431.663C351.982 440.213 367.496 449.409 384.938 458.695C425.972 480.573 469.115 498.241 513.707 511.429Z" fill="#F2F2F2"/>
</g>
<g opacity="0.2">
<path d="M475.64 521.907L474.08 522.119C459.29 517.17 444.646 511.701 430.15 505.712C398.782 492.725 368.409 477.452 339.276 460.018C335.64 457.84 332.02 455.635 328.416 453.403L327.943 452.349C331.911 454.821 336.043 457.339 340.338 459.904C383.091 485.353 428.451 506.14 475.64 521.907Z" fill="#F2F2F2"/>
</g>
<path opacity="0.1" d="M516.949 510.008C515.879 510.49 514.802 510.963 513.683 511.429L512.703 511.837C500.819 516.731 488.367 520.114 475.64 521.907L474.08 522.119C466.928 523.064 459.721 523.536 452.507 523.532C399.039 523.532 352.986 497.872 332.205 460.949C334.54 460.59 336.884 460.287 339.235 460.018L340.297 459.904C346.617 459.234 352.986 458.858 359.339 458.589C367.287 458.172 375.251 458.172 383.198 458.589C383.754 458.589 384.309 458.654 384.831 458.703C390.247 459.087 395.627 459.873 400.926 461.055C417.052 464.714 431.832 472.66 446.481 480.329C469.107 492.138 492.24 503.654 516.949 510.008Z" fill="black"/>
<path opacity="0.1" d="M572.262 371.685C551.212 335.317 505.509 310.106 452.523 310.106C451.47 310.106 450.417 310.106 449.372 310.106H448.212C436.699 310.384 425.251 311.904 414.064 314.639L413.247 314.843C404.217 317.107 395.418 320.208 386.963 324.104L386.293 324.423C378.79 327.931 371.623 332.119 364.883 336.934L364.336 337.334C358.062 341.858 352.245 346.984 346.968 352.639C346.282 359.606 345.106 366.425 342.069 372.705C339.929 377.116 337.717 381.362 340.746 385.772C342.779 388.737 347.18 392.494 350.928 392.641C361.225 393.057 366.949 379.288 371.799 372.428C379.23 361.925 390.245 354.632 401.007 347.584C405.605 344.57 410.251 341.532 415.436 339.727C419.808 338.312 424.357 337.512 428.95 337.351C441.467 336.648 454.263 338.551 465.694 343.737C478.759 349.658 490.354 359.867 504.611 361.28C511.07 361.917 517.676 360.667 524.004 362.146C535.248 364.783 543.046 375.392 553.988 379.1C561.067 381.501 568.686 380.733 575.888 378.381C574.957 376.421 573.958 374.491 572.891 372.591C572.63 372.338 572.45 372.036 572.262 371.685Z" fill="black"/>
<path d="M252.02 412.609C248.149 416.692 243.805 420.278 239.812 424.239C225.025 438.939 215.544 458.041 202.251 474.057C198.666 478.377 194.771 482.526 192.101 487.459C189.431 492.392 188.092 498.394 190.003 503.67C191.636 508.194 195.4 511.584 199.058 514.712C201.315 516.783 203.793 518.599 206.448 520.126C212.589 523.393 219.856 523.573 226.813 523.679C230.651 523.736 235.329 523.303 236.971 519.832C230.752 516.868 225.024 512.968 219.987 508.268C217.104 505.573 214.385 502.486 213.217 498.721C211.225 492.302 214.173 485.311 218.345 480.043C222.518 474.775 227.899 470.553 231.973 465.212C236.048 459.871 238.677 453.737 243.585 449.376C246.982 446.363 251.203 444.476 255.016 441.969C260.585 438.302 265.183 433.369 269.714 428.485L293.803 402.572C294.384 402.076 294.783 401.401 294.938 400.652C295.036 399.681 294.317 398.831 293.631 398.129C288.389 392.747 278.509 383.298 271.307 390.387C264.366 397.214 258.74 405.52 252.02 412.609Z" fill="#A0616A"/>
<path opacity="0.1" d="M252.02 412.609C248.149 416.692 243.805 420.278 239.812 424.239C225.025 438.939 215.544 458.041 202.251 474.057C198.666 478.377 194.771 482.526 192.101 487.459C189.431 492.392 188.092 498.394 190.003 503.67C191.636 508.194 195.4 511.584 199.058 514.712C201.315 516.783 203.793 518.599 206.448 520.126C212.589 523.393 219.856 523.573 226.813 523.679C230.651 523.736 235.329 523.303 236.971 519.832C230.752 516.868 225.024 512.968 219.987 508.268C217.104 505.573 214.385 502.486 213.217 498.721C211.225 492.302 214.173 485.311 218.345 480.043C222.518 474.775 227.899 470.553 231.973 465.212C236.048 459.871 238.677 453.737 243.585 449.376C246.982 446.363 251.203 444.476 255.016 441.969C260.585 438.302 265.183 433.369 269.714 428.485L293.803 402.572C294.384 402.076 294.783 401.401 294.938 400.652C295.036 399.681 294.317 398.831 293.631 398.129C288.389 392.747 278.509 383.298 271.307 390.387C264.366 397.214 258.74 405.52 252.02 412.609Z" fill="black"/>
<path d="M286.445 365.502C291.304 364.473 296.538 367.062 301.233 365.453C303.895 364.539 305.928 362.415 307.847 360.357L315.686 352.002C317.899 349.642 320.153 347.233 321.516 344.293C322.725 341.696 323.149 338.829 323.737 336.02C325.174 328.833 327.632 321.466 333.03 316.517C339.758 310.327 350.128 309.167 358.767 312.123C367.406 315.08 374.437 321.679 379.606 329.225C374.984 334.778 369.807 339.907 365.193 345.461C363.719 347.405 361.985 349.139 360.041 350.614C357.89 351.927 355.576 352.951 353.158 353.66C344.853 356.6 336.01 360.855 332.589 368.981C331.397 371.807 330.956 374.886 330.302 377.883C329.045 383.551 326.75 389.162 322.602 393.221C318.454 397.28 312.191 399.501 306.663 397.745C300.547 395.802 296.799 389.807 293.647 384.221C290.296 378.39 287.867 372.076 286.445 365.502Z" fill="#A0616A"/>
<path opacity="0.1" d="M286.445 365.502C291.304 364.473 296.538 367.062 301.233 365.453C303.895 364.539 305.928 362.415 307.847 360.357L315.686 352.002C317.899 349.642 320.153 347.233 321.516 344.293C322.725 341.696 323.149 338.829 323.737 336.02C325.174 328.833 327.632 321.466 333.03 316.517C339.758 310.327 350.128 309.167 358.767 312.123C367.406 315.08 374.437 321.679 379.606 329.225C374.984 334.778 369.807 339.907 365.193 345.461C363.719 347.405 361.985 349.139 360.041 350.614C357.89 351.927 355.576 352.951 353.158 353.66C344.853 356.6 336.01 360.855 332.589 368.981C331.397 371.807 330.956 374.886 330.302 377.883C329.045 383.551 326.75 389.162 322.602 393.221C318.454 397.28 312.191 399.501 306.663 397.745C300.547 395.802 296.799 389.807 293.647 384.221C290.296 378.39 287.867 372.076 286.445 365.502Z" fill="black"/>
<path d="M499.165 333.063C529.851 344.048 560.357 357.058 585.719 377.573C597.33 386.973 607.676 397.819 618.716 407.889C624.497 413.164 630.466 418.22 636.435 423.283L678.806 459.218C684.048 463.669 689.315 468.128 695.137 471.852C708.83 480.656 725.161 485.131 738.569 494.597C738.545 499.484 739.345 504.341 740.937 508.962C741.544 510.664 742.692 512.119 744.205 513.106C745.718 514.093 747.513 514.556 749.315 514.426C770.431 513.209 791.84 523.459 813.112 520.878C813.725 520.811 814.315 520.603 814.835 520.27C815.355 519.937 815.791 519.488 816.108 518.959C817.537 516.46 815.096 514.124 812.956 512.629L784.075 492.408C779.315 489.076 774.554 485.744 769.704 482.551C752.164 471.019 733.433 461.227 717.175 447.988C713.705 445.162 710.365 442.19 707.017 439.209C689.314 423.479 671.604 407.733 654.823 391.024C630.433 366.727 607.366 339.621 583.188 315.112C580.89 312.668 578.411 310.399 575.773 308.326C573.194 306.488 570.49 304.831 567.681 303.368L536.987 286.504C532.341 283.947 527.189 281.309 522.004 282.314C520.719 281.998 519.376 282.004 518.094 282.331C516.812 282.659 515.63 283.298 514.655 284.192C512.679 286.014 511.388 288.423 510.082 290.783C508.376 293.641 507.032 296.7 506.081 299.889C504.987 304.226 505.346 308.873 504.08 313.136C503.264 315.954 501.745 318.526 500.716 321.303C499.367 325.068 498.838 329.077 499.165 333.063Z" fill="#A0616A"/>
<path opacity="0.1" d="M499.165 333.063C529.851 344.048 560.357 357.058 585.719 377.573C597.33 386.973 607.676 397.819 618.716 407.889C624.497 413.164 630.466 418.22 636.435 423.283L678.806 459.218C684.048 463.669 689.315 468.128 695.137 471.852C708.83 480.656 725.161 485.131 738.569 494.597C738.545 499.484 739.345 504.341 740.937 508.962C741.544 510.664 742.692 512.119 744.205 513.106C745.718 514.093 747.513 514.556 749.315 514.426C770.431 513.209 791.84 523.459 813.112 520.878C813.725 520.811 814.315 520.603 814.835 520.27C815.355 519.937 815.791 519.488 816.108 518.959C817.537 516.46 815.096 514.124 812.956 512.629L784.075 492.408C779.315 489.076 774.554 485.744 769.704 482.551C752.164 471.019 733.433 461.227 717.175 447.988C713.705 445.162 710.365 442.19 707.017 439.209C689.314 423.479 671.604 407.733 654.823 391.024C630.433 366.727 607.366 339.621 583.188 315.112C580.89 312.668 578.411 310.399 575.773 308.326C573.194 306.488 570.49 304.831 567.681 303.368L536.987 286.504C532.341 283.947 527.189 281.309 522.004 282.314C520.719 281.998 519.376 282.004 518.094 282.331C516.812 282.659 515.63 283.298 514.655 284.192C512.679 286.014 511.388 288.423 510.082 290.783C508.376 293.641 507.032 296.7 506.081 299.889C504.987 304.226 505.346 308.873 504.08 313.136C503.264 315.954 501.745 318.526 500.716 321.303C499.367 325.068 498.838 329.077 499.165 333.063Z" fill="black"/>
<path d="M290.961 429.016C310.041 429.016 325.509 413.546 325.509 394.462C325.509 375.378 310.041 359.908 290.961 359.908C271.881 359.908 256.413 375.378 256.413 394.462C256.413 413.546 271.881 429.016 290.961 429.016Z" fill="#A0616A"/>
<path d="M501.206 269.688C506.032 269.769 511.511 270.145 514.549 273.894C517.586 277.642 516.9 282.779 516.133 287.402C513.732 302.012 511.233 316.884 504.554 330.098C504.086 331.291 503.255 332.305 502.178 332.998C500.259 333.986 497.981 332.826 496.143 331.691C482.76 323.377 469.377 314.426 454.124 310.457C453.204 310.339 452.359 309.889 451.748 309.191C451.539 308.753 451.419 308.277 451.395 307.792C451.371 307.307 451.444 306.822 451.609 306.365C453.128 299.595 455.047 292.906 456.239 286.062C456.957 281.979 455.626 272.179 459.244 269.647C463.073 266.952 474.105 269.23 478.637 269.304L501.206 269.688Z" fill="#A0616A"/>
<path d="M517.455 337.13C548.141 348.115 578.648 361.125 603.969 381.632C615.58 391.04 625.926 401.886 636.966 411.956C642.747 417.232 648.716 422.287 654.685 427.342L697.055 463.277C702.298 467.719 707.564 472.187 713.386 475.903C727.137 484.739 743.468 489.198 756.827 498.623C756.802 503.513 757.602 508.373 759.195 512.997C759.803 514.697 760.952 516.152 762.465 517.139C763.977 518.125 765.771 518.589 767.573 518.461C788.689 517.235 810.098 527.493 831.37 524.912C831.984 524.844 832.574 524.634 833.094 524.3C833.614 523.966 834.049 523.516 834.366 522.985C835.795 520.535 833.354 518.15 831.214 516.656L802.333 496.443C797.573 493.11 792.812 489.778 787.962 486.585C770.455 475.053 751.723 465.261 735.466 452.031C731.996 449.205 728.656 446.224 725.308 443.251C707.605 427.522 689.894 411.776 673.106 395.067C648.724 370.77 625.656 343.664 601.478 319.114C599.167 316.702 596.68 314.464 594.04 312.417C591.458 310.585 588.755 308.931 585.948 307.468L555.253 290.604C550.607 288.047 545.455 285.409 540.27 286.414C538.986 286.094 537.642 286.098 536.36 286.424C535.078 286.751 533.896 287.39 532.921 288.284C530.945 290.105 529.655 292.523 528.348 294.883C526.644 297.739 525.3 300.795 524.347 303.981C523.253 308.318 523.612 312.965 522.347 317.236C521.53 320.053 520.011 322.626 518.982 325.403C517.646 329.159 517.125 333.157 517.455 337.13Z" fill="#A0616A"/>
<path d="M527.638 339.662L528.609 325.525C528.887 321.573 529.165 317.571 530.381 313.806C531.761 309.535 534.276 305.737 536.832 302.045C538.196 299.893 539.844 297.934 541.731 296.222C544.516 293.879 548.117 292.604 550.713 290.065C551.457 289.338 552.151 288.268 551.71 287.329C551.506 286.978 551.227 286.677 550.893 286.447C544.491 281.195 536.816 277.782 529.238 274.425L514.916 268.087C508.89 276.254 502.758 284.674 499.655 294.36C499.186 296.081 498.599 297.767 497.899 299.408C496.062 303.238 492.575 306.031 490.362 309.657C488.28 313.071 487.415 317.064 486.59 320.976C486.1 323.271 485.626 325.721 486.451 327.918C487.366 330.368 489.717 331.953 491.857 333.382C501.337 339.597 511.348 346.008 522.657 346.89C524.731 347.045 527.491 348.082 528.152 346.073C528.618 344.726 527.532 341.312 527.638 339.662Z" fill="#3F3D56"/>
<path d="M244.63 379.386C241.053 384.18 243.454 391.163 247.161 395.859C250.868 400.555 255.825 404.491 257.899 410.102C262.872 423.52 248.998 437.053 249.472 451.329C249.897 464.053 261.141 473.273 270.702 481.726C291.018 499.693 308.378 524.733 306.092 551.782C315.333 549.074 323.318 543.18 328.628 535.146C331.73 541.952 333.04 549.439 332.433 556.894C353.729 542.316 365.855 515.365 362.646 489.762C361.119 477.642 356.448 465.825 357.175 453.64C357.567 447.033 359.535 440.638 360.956 434.17C362.766 425.831 363.669 417.32 363.65 408.787C363.65 399.052 361.846 388.239 354.17 382.253C347.638 377.165 338.656 376.993 330.376 377.034C321.631 377.091 312.885 377.132 304.156 377.679C295.248 378.235 286.062 381.175 277.292 381.395C267.526 381.64 253.767 367.136 244.63 379.386Z" fill="#3F3D56"/>
<path d="M375.204 315.463C369.43 317.369 364.231 320.704 360.09 325.158C357.485 327.983 355.33 331.209 352.627 333.945C349.41 337.212 345.482 339.662 341.718 342.275C334.524 347.257 327.787 352.852 321.059 358.438L287.907 385.96C282.722 390.264 277.537 394.576 272.646 399.215C266.611 404.932 261.043 411.171 254.6 416.439C250.828 419.526 246.769 422.278 243.307 425.717C240.041 428.984 237.395 432.748 234.717 436.481C223.806 451.629 212.085 466.176 199.605 480.059C194.306 485.964 188.827 491.779 182.384 496.393C169.026 506.022 158.884 520.437 147.142 531.993C146.146 532.973 145.052 534.369 145.664 535.635C146.029 536.242 146.614 536.684 147.297 536.869C155.887 540.07 163.285 526.129 172.235 528.105C176.317 529.004 178.824 532.867 181.748 535.815C184.671 538.763 189.684 540.936 192.738 538.118C191.692 529.917 192.757 521.585 195.833 513.911C200.838 501.489 210.768 491.697 221.366 483.498C231.965 475.298 243.503 468.307 253.457 459.332C270.155 444.28 282.355 423.749 302.164 413.123C309.921 408.958 318.495 406.525 326.228 402.261C341.195 393.98 351.663 379.394 359.845 364.391C360.808 362.334 362.111 360.454 363.699 358.83C365.407 357.485 367.306 356.403 369.333 355.62C379.854 350.763 389.295 343.846 397.096 335.276C394.646 333.52 392.352 331.642 389.91 329.878C387.923 328.562 386.105 327.007 384.497 325.247C382.864 323.32 381.802 321.009 380.414 318.902C379.026 316.795 377.572 316.223 375.204 315.463Z" fill="#A0616A"/>
<path d="M464.412 317.987C462.257 316.256 462.183 313.087 462.289 310.286C462.643 301.694 462.992 293.105 463.335 284.519C463.571 278.468 464.151 271.689 468.716 267.72C455.515 265.068 442.205 263.035 428.786 261.619C423.462 261.056 418.065 260.59 412.757 261.366C406.364 262.297 400.37 264.976 394.475 267.63C387.943 270.57 381.369 273.535 375.515 277.659C373.261 279.401 370.911 281.015 368.476 282.494C364.034 284.944 358.931 285.761 354.146 287.394C343.089 291.157 333.844 298.929 328.236 309.175C322.628 319.421 321.064 331.398 323.852 342.741C325.485 338.519 326.628 334.101 328.539 329.993C330.449 325.885 333.266 322.005 337.276 319.906C341.456 317.734 346.503 317.75 351.051 319C355.599 320.249 359.69 322.659 363.773 325.092C372.869 330.605 382.161 337.041 386.481 346.751C395.463 340.071 404.649 333.684 413.648 326.971C417.551 324.072 421.511 321.148 426.035 319.392C431.979 317.081 438.503 316.942 444.881 316.819C451.258 316.697 458.174 316.338 464.412 317.987Z" fill="#FF6584"/>
<path d="M323.819 341.957L322.733 357.025L326.652 353.791L324.693 340.462L323.819 341.957Z" fill="#FF6584"/>
</g>
<defs>
<clipPath id="clip0_209_463">
<rect width="868" height="584" fill="white"/>
</clipPath>
</defs>
</svg>
