<svg width="656" height="545" viewBox="0 0 656 545" fill="none" xmlns="http://www.w3.org/2000/svg">
<g clip-path="url(#clip0_147_323)">
<path d="M448.156 -6.09084e-05L0 264.286L13.478 286.922L461.634 22.6361L448.156 -6.09084e-05Z" fill="#F2F2F2"/>
<path d="M545.561 22.1573L97.4055 286.443L110.883 309.079L559.039 44.7935L545.561 22.1573Z" fill="#F2F2F2"/>
<path d="M631.835 46.3918L183.679 310.678L197.157 333.314L645.313 69.028L631.835 46.3918Z" fill="#F2F2F2"/>
<path d="M291.908 309.807C369.4 309.807 432.22 247.288 432.22 170.168C432.22 93.0469 369.4 30.5282 291.908 30.5282C214.415 30.5282 151.595 93.0469 151.595 170.168C151.595 247.288 214.415 309.807 291.908 309.807Z" fill="white"/>
<path d="M150.552 170.168C150.552 92.5975 213.963 29.4896 291.907 29.4896C369.851 29.4896 433.263 92.5975 433.263 170.168C433.263 247.738 369.851 310.845 291.907 310.845C213.963 310.845 150.552 247.738 150.552 170.168ZM152.639 170.168C152.639 246.592 215.114 308.768 291.907 308.768C368.7 308.768 431.176 246.592 431.176 170.168C431.176 93.7431 368.7 31.5669 291.907 31.5669C215.114 31.5669 152.639 93.743 152.639 170.168Z" fill="#3F3D56"/>
<path d="M266.895 170.775C266.895 165.851 268.362 161.039 271.111 156.945C273.859 152.852 277.765 149.661 282.336 147.777C286.906 145.893 291.935 145.4 296.787 146.361C301.639 147.321 306.096 149.692 309.594 153.173C313.092 156.654 315.474 161.09 316.439 165.918C317.404 170.747 316.909 175.752 315.016 180.3C313.123 184.849 309.917 188.737 305.803 191.472C301.69 194.207 296.854 195.667 291.907 195.667C285.274 195.667 278.912 193.044 274.221 188.376C269.53 183.708 266.895 177.376 266.895 170.775ZM291.907 147.097C285.6 147.104 279.552 149.601 275.092 154.04C270.631 158.479 268.122 164.497 268.115 170.775C268.115 175.458 269.511 180.036 272.125 183.929C274.739 187.823 278.455 190.858 282.803 192.65C287.15 194.442 291.934 194.911 296.549 193.998C301.164 193.084 305.404 190.829 308.731 187.517C312.058 184.206 314.324 179.987 315.242 175.394C316.16 170.801 315.689 166.04 313.889 161.713C312.088 157.387 309.038 153.689 305.126 151.087C301.213 148.485 296.613 147.097 291.907 147.097Z" fill="#3F3D56"/>
<path d="M244.323 170.775C244.323 161.409 247.114 152.253 252.343 144.465C257.571 136.677 265.003 130.608 273.698 127.023C282.393 123.439 291.96 122.501 301.191 124.329C310.421 126.156 318.9 130.666 325.555 137.289C332.209 143.912 336.741 152.35 338.577 161.536C340.413 170.722 339.471 180.244 335.87 188.897C332.268 197.55 326.169 204.946 318.344 210.15C310.519 215.353 301.319 218.131 291.908 218.131C285.659 218.131 279.471 216.906 273.698 214.526C267.925 212.146 262.679 208.658 258.26 204.26C253.842 199.863 250.337 194.642 247.945 188.897C245.554 183.151 244.323 176.994 244.323 170.775ZM291.908 124.633C282.738 124.633 273.774 127.339 266.149 132.409C258.524 137.479 252.582 144.686 249.073 153.117C245.564 161.548 244.645 170.826 246.434 179.776C248.223 188.727 252.639 196.949 259.123 203.402C265.607 209.855 273.869 214.249 282.862 216.03C291.856 217.81 301.178 216.896 309.65 213.404C318.122 209.912 325.363 203.998 330.458 196.41C335.552 188.822 338.272 179.901 338.272 170.775C338.258 158.541 333.369 146.813 324.677 138.163C315.985 129.512 304.2 124.647 291.908 124.633Z" fill="#CCCCCC"/>
<path d="M199.179 170.775C199.179 152.523 204.618 134.681 214.807 119.505C224.996 104.329 239.478 92.5006 256.422 85.5159C273.366 78.5312 292.01 76.7037 309.998 80.2645C327.985 83.8252 344.508 92.6144 357.476 105.52C370.444 118.427 379.276 134.87 382.854 152.771C386.432 170.672 384.596 189.227 377.577 206.09C370.559 222.953 358.674 237.365 343.424 247.505C328.175 257.646 310.247 263.058 291.908 263.058C267.323 263.03 243.753 253.299 226.369 235.998C208.986 218.698 199.207 195.241 199.179 170.775ZM291.908 79.7055C273.809 79.7055 256.117 85.0466 241.068 95.0535C226.02 105.06 214.291 119.283 207.365 135.924C200.439 152.565 198.627 170.876 202.158 188.541C205.689 206.207 214.404 222.434 227.202 235.17C239.999 247.907 256.304 256.58 274.055 260.094C291.806 263.608 310.205 261.804 326.926 254.912C343.647 248.019 357.939 236.346 367.994 221.37C378.049 206.394 383.416 188.786 383.416 170.775C383.388 146.63 373.738 123.482 356.583 106.409C339.428 89.3364 316.169 79.7329 291.908 79.7055Z" fill="#CCCCCC"/>
<path d="M291.908 181.703C298.309 181.703 303.499 176.538 303.499 170.167C303.499 163.797 298.309 158.632 291.908 158.632C285.506 158.632 280.317 163.797 280.317 170.167C280.317 176.538 285.506 181.703 291.908 181.703Z" fill="#FC7790"/>
<path d="M262.015 215.095C268.416 215.095 273.606 209.93 273.606 203.559C273.606 197.189 268.416 192.024 262.015 192.024C255.613 192.024 250.424 197.189 250.424 203.559C250.424 209.93 255.613 215.095 262.015 215.095Z" fill="#FC7790"/>
<path d="M378.636 210.238C385.037 210.238 390.227 205.073 390.227 198.703C390.227 192.332 385.037 187.167 378.636 187.167C372.234 187.167 367.045 192.332 367.045 198.703C367.045 205.073 372.234 210.238 378.636 210.238Z" fill="#FC7790"/>
<path d="M291.907 175.632C294.94 175.632 297.398 173.185 297.398 170.168C297.398 167.15 294.94 164.703 291.907 164.703C288.875 164.703 286.417 167.15 286.417 170.168C286.417 173.185 288.875 175.632 291.907 175.632Z" fill="#2F2E41"/>
<path d="M378.636 204.167C381.668 204.167 384.126 201.72 384.126 198.702C384.126 195.685 381.668 193.238 378.636 193.238C375.603 193.238 373.145 195.685 373.145 198.702C373.145 201.72 375.603 204.167 378.636 204.167Z" fill="#2F2E41"/>
<path d="M262.015 209.631C265.047 209.631 267.505 207.184 267.505 204.167C267.505 201.149 265.047 198.703 262.015 198.703C258.983 198.703 256.524 201.149 256.524 204.167C256.524 207.184 258.983 209.631 262.015 209.631Z" fill="#2F2E41"/>
<path d="M35.6849 114.312C38.7172 114.312 41.1754 111.865 41.1754 108.848C41.1754 105.83 38.7172 103.383 35.6849 103.383C32.6526 103.383 30.1945 105.83 30.1945 108.848C30.1945 111.865 32.6526 114.312 35.6849 114.312Z" fill="#FC7790"/>
<path d="M291.602 109.152H50.6307V107.937H292.823V170.47H291.602V109.152Z" fill="#2F2E41"/>
<path d="M19.8235 108.848C19.8235 105.726 20.7537 102.674 22.4966 100.078C24.2395 97.4819 26.7167 95.4586 29.615 94.2639C32.5133 93.0691 35.7025 92.7565 38.7793 93.3656C41.8561 93.9746 44.6823 95.478 46.9006 97.6857C49.1189 99.8933 50.6295 102.706 51.2415 105.768C51.8535 108.83 51.5394 112.004 50.3389 114.888C49.1384 117.773 47.1054 120.238 44.497 121.973C41.8886 123.707 38.822 124.633 35.6849 124.633C33.602 124.633 31.5394 124.225 29.615 123.431C27.6906 122.638 25.9421 121.475 24.4692 120.01C22.9963 118.544 21.828 116.804 21.0309 114.888C20.2337 112.973 19.8235 110.921 19.8235 108.848ZM35.6849 94.2766C32.7891 94.2765 29.9584 95.1311 27.5506 96.7322C25.1429 98.3333 23.2663 100.609 22.1581 103.272C21.0499 105.934 20.76 108.864 21.3249 111.69C21.8899 114.517 23.2843 117.113 25.3319 119.151C27.3795 121.189 29.9884 122.576 32.8285 123.139C35.6686 123.701 38.6125 123.412 41.2879 122.31C43.9632 121.207 46.2499 119.339 47.8587 116.943C49.4675 114.547 50.3262 111.729 50.3262 108.848C50.3217 104.984 48.7778 101.281 46.0329 98.5492C43.2881 95.8176 39.5667 94.281 35.6849 94.2766Z" fill="#2F2E41"/>
<path d="M72.2882 271.558C75.3205 271.558 77.7787 269.111 77.7787 266.094C77.7787 263.076 75.3205 260.63 72.2882 260.63C69.2559 260.63 66.7977 263.076 66.7977 266.094C66.7977 269.111 69.2559 271.558 72.2882 271.558Z" fill="#FC7790"/>
<path d="M56.4268 266.094C56.4268 262.972 57.357 259.92 59.0999 257.324C60.8428 254.728 63.32 252.705 66.2182 251.51C69.1165 250.315 72.3057 250.003 75.3826 250.612C78.4594 251.221 81.2856 252.724 83.5038 254.932C85.7221 257.139 87.2328 259.952 87.8448 263.014C88.4568 266.076 88.1427 269.25 86.9422 272.134C85.7416 275.019 83.7087 277.484 81.1003 279.219C78.4919 280.953 75.4252 281.879 72.2881 281.879C68.0814 281.879 64.047 280.216 61.0725 277.256C58.0979 274.295 56.4268 270.28 56.4268 266.094ZM72.2881 251.523C69.3924 251.523 66.5616 252.377 64.1539 253.978C61.7461 255.579 59.8695 257.855 58.7614 260.518C57.6532 263.18 57.3632 266.11 57.9282 268.936C58.4931 271.763 59.8875 274.359 61.9352 276.397C63.9828 278.435 66.5916 279.823 69.4317 280.385C72.2719 280.947 75.2157 280.658 77.8911 279.556C80.5664 278.453 82.8531 276.585 84.4619 274.189C86.0707 271.793 86.9294 268.976 86.9294 266.094C86.925 262.231 85.381 258.527 82.6362 255.795C79.8914 253.064 76.1699 251.527 72.2881 251.523Z" fill="#2F2E41"/>
<path d="M548.841 139.811C551.873 139.811 554.331 137.365 554.331 134.347C554.331 131.329 551.873 128.883 548.841 128.883C545.808 128.883 543.35 131.329 543.35 134.347C543.35 137.365 545.808 139.811 548.841 139.811Z" fill="#FC7790"/>
<path d="M532.979 134.347C532.979 131.225 533.909 128.173 535.652 125.577C537.395 122.981 539.872 120.958 542.771 119.763C545.669 118.568 548.858 118.256 551.935 118.865C555.012 119.474 557.838 120.977 560.056 123.185C562.274 125.393 563.785 128.205 564.397 131.267C565.009 134.329 564.695 137.503 563.495 140.388C562.294 143.272 560.261 145.737 557.653 147.472C555.044 149.206 551.978 150.132 548.841 150.132C546.758 150.132 544.695 149.724 542.771 148.931C540.846 148.137 539.098 146.975 537.625 145.509C536.152 144.043 534.984 142.303 534.187 140.388C533.389 138.473 532.979 136.42 532.979 134.347ZM548.841 119.776C544.959 119.78 541.237 121.317 538.492 124.049C535.748 126.78 534.204 130.484 534.199 134.347C534.199 137.229 535.058 140.046 536.667 142.442C538.276 144.838 540.562 146.706 543.238 147.809C545.913 148.912 548.857 149.2 551.697 148.638C554.537 148.076 557.146 146.688 559.194 144.65C561.241 142.612 562.636 140.016 563.201 137.19C563.765 134.363 563.476 131.433 562.367 128.771C561.259 126.108 559.383 123.833 556.975 122.232C554.567 120.63 551.736 119.776 548.841 119.776Z" fill="#2F2E41"/>
<path d="M378.025 136.178L533.58 133.74L533.599 134.953L379.245 137.373V198.703H378.025V136.178Z" fill="#2F2E41"/>
<path d="M87.5399 265.487H261.405V204.167H262.625V266.7H87.5399V265.487Z" fill="#2F2E41"/>
<path d="M69.2379 137.383H2.13196V141.632H69.2379V137.383Z" fill="#CCCCCC"/>
<path d="M69.2379 149.525H2.13196V153.775H69.2379V149.525Z" fill="#CCCCCC"/>
<path d="M69.2379 161.668H2.13196V165.918H69.2379V161.668Z" fill="#CCCCCC"/>
<path d="M105.841 294.629H38.7352V298.879H105.841V294.629Z" fill="#CCCCCC"/>
<path d="M105.841 306.771H38.7352V311.021H105.841V306.771Z" fill="#CCCCCC"/>
<path d="M105.841 318.914H38.7352V323.164H105.841V318.914Z" fill="#CCCCCC"/>
<path d="M582.394 163.489H515.288V167.739H582.394V163.489Z" fill="#CCCCCC"/>
<path d="M582.394 175.632H515.288V179.881H582.394V175.632Z" fill="#CCCCCC"/>
<path d="M582.394 187.774H515.288V192.024H582.394V187.774Z" fill="#CCCCCC"/>
<path d="M614.339 525.582L604.797 528.977L587.1 493.958L601.185 488.949L614.339 525.582Z" fill="#FFB8B8"/>
<path d="M589.308 544.868L589.169 544.481C588.037 541.319 588.213 537.84 589.656 534.807C591.099 531.773 593.692 529.434 596.866 528.3L615.66 521.616L620.08 533.923L589.308 544.868Z" fill="#2F2E41"/>
<path d="M552.282 534.977L542.147 534.976L537.326 496.073L552.283 496.074L552.282 534.977Z" fill="#FFB8B8"/>
<path d="M554.866 544.753L522.188 544.752V544.341C522.188 542.678 522.517 541.032 523.156 539.497C523.795 537.961 524.732 536.565 525.913 535.39C527.095 534.215 528.497 533.282 530.04 532.646C531.583 532.01 533.237 531.683 534.907 531.683L554.867 531.683L554.866 544.753Z" fill="#2F2E41"/>
<path d="M575.378 286.435L570.971 277.768C570.971 277.768 554.551 281.862 553.059 291.332L575.378 286.435Z" fill="#FC7790"/>
<path d="M593.565 385.54L581.578 452.106L613.404 508.12L594.391 515.524L562.152 461.227L558.019 446.419L555.539 523.751L538.392 523.233L530.529 451.023L543.139 383.895L593.565 385.54Z" fill="#2F2E41"/>
<path d="M536.316 397.548C535.944 395.9 534.877 345.577 534.877 345.577C534.877 345.577 552.506 287.981 552.667 287.508L552.73 287.323L566.114 282.329C566.302 282.244 570.761 280.267 574.41 281.915C575.346 282.368 576.171 283.019 576.828 283.823C577.485 284.626 577.958 285.562 578.213 286.567C579.732 287.692 590.671 299.888 590.671 316.43L591.084 355.466L600.256 397.785L599.851 397.871C599.6 397.924 588.42 401.276 570.812 401.276C561.028 401.276 536.316 397.548 536.316 397.548Z" fill="#3F3D56"/>
<path d="M557.281 275.039C567.272 275.039 575.371 266.978 575.371 257.036C575.371 247.093 567.272 239.033 557.281 239.033C547.291 239.033 539.192 247.093 539.192 257.036C539.192 266.978 547.291 275.039 557.281 275.039Z" fill="#FFB8B8"/>
<path opacity="0.2" d="M583.052 336.348L551.406 380.293L546.732 359.771L583.052 336.348Z" fill="black"/>
<path d="M526.884 381.24C528.018 381.195 529.128 380.904 530.137 380.386C531.145 379.867 532.027 379.136 532.721 378.242C533.414 377.348 533.902 376.313 534.151 375.211C534.399 374.109 534.401 372.966 534.158 371.863L557.673 357.508L544.688 351.462L524.349 366.021C522.514 366.551 520.938 367.732 519.919 369.341C518.901 370.95 518.511 372.875 518.824 374.751C519.136 376.627 520.129 378.324 521.615 379.52C523.1 380.716 524.975 381.328 526.884 381.24Z" fill="#FFB8B8"/>
<path d="M543.139 351.81L535.085 357.426L541.916 369.497L551.406 361.682L543.139 351.81Z" fill="#FC7790"/>
<path d="M538.923 352.164L557.867 330.31L550.609 300.168C549.858 297.053 550.273 293.773 551.775 290.94C553.277 288.107 555.764 285.914 558.771 284.772C561.778 283.63 565.1 283.616 568.117 284.733C571.133 285.85 573.638 288.022 575.164 290.842L575.329 291.148L582.017 335.908L548.41 370.191L538.923 352.164Z" fill="#3F3D56"/>
<path d="M572.69 272.666L557.675 273.203C556.76 273.235 554.276 263.406 553.951 261.366C553.694 260.039 552.96 258.85 551.887 258.021C550.813 257.193 549.473 256.782 548.117 256.864C546.993 256.97 544.159 254.88 541.235 252.406C535.682 247.708 535.971 238.885 542.07 234.916C542.237 234.807 542.401 234.708 542.561 234.618C546.409 232.475 550.91 231.755 555.319 231.7C559.316 231.651 563.426 232.151 566.947 234.034C573.26 237.409 576.62 244.786 576.915 251.911C577.21 259.037 574.915 266.005 572.31 272.649" fill="#2F2E41"/>
<path d="M655.173 545H472.483C472.264 545 472.054 544.913 471.899 544.759C471.744 544.605 471.657 544.395 471.657 544.177C471.657 543.959 471.744 543.75 471.899 543.595C472.054 543.441 472.264 543.354 472.483 543.354H655.173C655.393 543.354 655.603 543.441 655.758 543.595C655.913 543.75 656 543.959 656 544.177C656 544.395 655.913 544.605 655.758 544.759C655.603 544.913 655.393 545 655.173 545Z" fill="#3F3D56"/>
</g>
<defs>
<clipPath id="clip0_147_323">
<rect width="656" height="545" fill="white"/>
</clipPath>
</defs>
</svg>
