<svg width="351" height="89" viewBox="0 0 351 89" fill="none" xmlns="http://www.w3.org/2000/svg">
<path d="M37.8125 55.8125V58C37.8125 62.5208 36.4062 66.2188 33.5938 69.0938C30.6354 72.1146 26.7812 73.625 22.0312 73.625C17.2812 73.625 13.4271 72.1146 10.4688 69.0938C7.65625 66.2188 6.25 62.5208 6.25 58V40.8125C6.25 36.2917 7.65625 32.5938 10.4688 29.7188C13.4271 26.6979 17.2812 25.1875 22.0312 25.1875C26.9479 25.1875 30.8021 26.6979 33.5938 29.7188C36.4062 32.7396 37.8125 36.2292 37.8125 40.1875L31.875 43H31.5625V38.625C31.5625 35.8333 30.8125 33.5729 29.3125 31.8438C27.4583 29.6979 25.0312 28.625 22.0312 28.625C19.0312 28.625 16.6042 29.6979 14.75 31.8438C13.25 33.5729 12.5 35.8333 12.5 38.625V60.1875C12.5 62.9792 13.25 65.2396 14.75 66.9688C16.6042 69.1146 19.0312 70.1875 22.0312 70.1875C25.0312 70.1875 27.4583 69.1146 29.3125 66.9688C30.8125 65.2396 31.5625 62.4583 31.5625 58.625L37.5 55.8125H37.8125Z" fill="#FC7790"/>
<path d="M48.75 61.125V50.5C48.75 47.0625 50.0417 44.0729 52.625 41.5312C55.0417 39.1771 58.0729 38 61.7188 38C65.3229 38 68.3542 39.1771 70.8125 41.5312C73.3958 44.0312 74.6875 47.0208 74.6875 50.5V61.125C74.6875 64.5625 73.3958 67.5521 70.8125 70.0938C68.3958 72.4479 65.3646 73.625 61.7188 73.625C58.1146 73.625 55.0833 72.4479 52.625 70.0938C50.0417 67.5938 48.75 64.6042 48.75 61.125ZM55 63.25C55 65.6458 55.6458 67.4062 56.9375 68.5312C58.25 69.6354 59.8438 70.1875 61.7188 70.1875C63.5938 70.1875 65.1771 69.6354 66.4688 68.5312C67.7812 67.4062 68.4375 65.6458 68.4375 63.25V48.375C68.4375 45.9792 67.7812 44.2292 66.4688 43.125C65.1771 42 63.5938 41.4375 61.7188 41.4375C59.8438 41.4375 58.25 42 56.9375 43.125C55.6458 44.2292 55 45.9792 55 48.375V63.25ZM84.0625 74.25V50.5C84.0625 47.0625 85.3542 44.0729 87.9375 41.5312C90.3542 39.1771 93.3854 38 97.0312 38H101.25V38.3125L99.75 41.4375H97.0312C95.1562 41.4375 93.5625 42 92.25 43.125C90.9583 44.2292 90.3125 45.9792 90.3125 48.375V71.4375L84.375 74.25H84.0625ZM114.375 63.25C114.375 65.6458 115.021 67.4062 116.312 68.5312C117.625 69.6354 119.219 70.1875 121.094 70.1875C122.969 70.1875 124.552 69.6354 125.844 68.5312C127.156 67.4062 127.812 65.6458 127.812 63.25V48.375C127.812 45.9792 127.156 44.2292 125.844 43.125C124.552 42 122.969 41.4375 121.094 41.4375C119.219 41.4375 117.625 42 116.312 43.125C115.021 44.2292 114.375 45.9792 114.375 48.375V63.25ZM134.062 50.5V61.125C134.062 64.5625 132.771 67.5521 130.188 70.0938C127.771 72.4479 124.74 73.625 121.094 73.625C118.344 73.625 116.104 72.7396 114.375 70.9688V84.25L108.438 87.0625H108.125V50.5C108.125 47.0625 109.417 44.0729 112 41.5312C114.417 39.1771 117.448 38 121.094 38C124.698 38 127.729 39.1771 130.188 41.5312C132.771 44.0312 134.062 47.0208 134.062 50.5ZM142.5 61.9688L148.438 59.1562H148.75V63.1562C148.75 65.4896 149.427 67.2604 150.781 68.4688C152.073 69.6146 153.635 70.1875 155.469 70.1875C157.594 70.1875 159.25 69.5104 160.438 68.1562C161.688 66.7604 162.312 64.75 162.312 62.125C162.312 59.7292 161.646 58.0104 160.312 56.9688C159.167 56.0729 157.542 55.625 155.438 55.625C151.417 55.625 148.417 54.8229 146.438 53.2188C144.688 51.8021 143.812 49.8646 143.812 47.4062C143.812 44.5104 145.135 42.1146 147.781 40.2188C149.844 38.7396 152.406 38 155.469 38C158.406 38 160.958 38.9167 163.125 40.75C164.792 42.1875 165.823 43.8542 166.219 45.75L160.281 48.5625H159.969V46.1562C159.969 45.1146 159.656 44.1875 159.031 43.375C158.031 42.0833 156.604 41.4375 154.75 41.4375C153.271 41.4375 152.062 41.8958 151.125 42.8125C150.208 43.75 149.75 45.2188 149.75 47.2188C149.75 49.3229 150.312 50.7604 151.438 51.5312C152.062 51.9688 153.396 52.1875 155.438 52.1875C159.854 52.1875 163.167 53.1146 165.375 54.9688C167.417 56.6771 168.438 59.1458 168.438 62.375C168.438 65.0833 167.24 67.6667 164.844 70.125C162.573 72.4583 159.448 73.625 155.469 73.625C151.865 73.625 148.833 72.625 146.375 70.625C143.792 68.5208 142.5 65.6354 142.5 61.9688ZM209.688 53.625H218.594C221.323 53.625 223.75 52.5521 225.875 50.4062C227.375 48.8854 228.125 45.8958 228.125 41.4375C228.125 37.1875 227.375 34.1979 225.875 32.4688C224.021 30.3229 221.594 29.25 218.594 29.25H209.688V53.625ZM203.438 74.25V27.375L206.75 25.8125H218.594C223.344 25.8125 227.198 27.3229 230.156 30.3438C232.969 33.2188 234.375 36.9167 234.375 41.4375C234.375 45.9792 232.969 49.6771 230.156 52.5312C227.177 55.5521 223.323 57.0625 218.594 57.0625H209.688V71.4375L203.75 74.25H203.438ZM267.5 71.4375L261.562 74.25H261.25V70.9688C259.583 72.7396 257.344 73.625 254.531 73.625C250.635 73.625 247.604 72.4479 245.438 70.0938C243.271 67.7396 242.188 64.9583 242.188 61.75C242.188 58.4167 243.365 55.5833 245.719 53.25C247.99 51 250.927 49.875 254.531 49.875C257.094 49.875 259.333 50.7604 261.25 52.5312C261.25 48.8438 260.604 46.0729 259.312 44.2188C258.021 42.3646 256.427 41.4375 254.531 41.4375H246.938V41.125L248.406 38H254.531C258.177 38 261.208 39.1771 263.625 41.5312C266.208 44.0521 267.5 47.0417 267.5 50.5V71.4375ZM248.312 61.75C248.312 65 248.875 67.2292 250 68.4375C251.083 69.6042 252.604 70.1875 254.562 70.1875C256.646 70.1875 258.229 69.5938 259.312 68.4062C260.5 67.1146 261.094 64.8438 261.094 61.5938C261.094 58.5521 260.458 56.3854 259.188 55.0938C257.938 53.9062 256.385 53.3125 254.531 53.3125C252.594 53.3125 251.073 53.9271 249.969 55.1562C248.865 56.3854 248.312 58.5833 248.312 61.75ZM276.875 74.25V50.5C276.875 47.0625 278.167 44.0729 280.75 41.5312C283.167 39.1771 286.198 38 289.844 38H294.062V38.3125L292.562 41.4375H289.844C287.969 41.4375 286.375 42 285.062 43.125C283.771 44.2292 283.125 45.9792 283.125 48.375V71.4375L277.188 74.25H276.875ZM300.938 74.25V27.375L306.875 24.5625H307.188V71.4375L301.25 74.25H300.938ZM344.062 59.1562V61.125C344.062 64.5625 342.771 67.5521 340.188 70.0938C337.771 72.4479 334.74 73.625 331.094 73.625C327.49 73.625 324.458 72.4479 322 70.0938C319.417 67.5938 318.125 64.6042 318.125 61.125V50.5C318.125 47.0417 319.417 44.0521 322 41.5312C324.417 39.1771 327.448 38 331.094 38C334.656 38 337.688 39.1771 340.188 41.5312C342.771 43.9688 344.062 46.6562 344.062 49.5938L324.562 65.3438C324.854 66.6979 325.438 67.75 326.312 68.5C327.625 69.625 329.219 70.1875 331.094 70.1875C332.969 70.1875 334.552 69.625 335.844 68.5C337.156 67.375 337.812 65.1979 337.812 61.9688L343.75 59.1562H344.062ZM324.375 60.5312L337.812 49.625V48.375C337.812 46 337.167 44.25 335.875 43.125C334.562 42 332.969 41.4375 331.094 41.4375C329.24 41.4375 327.646 42 326.312 43.125C325.021 44.2083 324.375 45.9583 324.375 48.375V60.5312Z" fill="black"/>
<path d="M11.8164 13.6289V14.3125C11.8164 15.7253 11.377 16.8809 10.498 17.7793C9.57357 18.7233 8.36914 19.1953 6.88477 19.1953C5.40039 19.1953 4.19596 18.7233 3.27148 17.7793C2.39258 16.8809 1.95312 15.7253 1.95312 14.3125V8.94141C1.95312 7.52865 2.39258 6.37305 3.27148 5.47461C4.19596 4.5306 5.40039 4.05859 6.88477 4.05859C8.42122 4.05859 9.62565 4.5306 10.498 5.47461C11.377 6.41862 11.8164 7.50911 11.8164 8.74609L9.96094 9.625H9.86328V8.25781C9.86328 7.38542 9.62891 6.67904 9.16016 6.13867C8.58073 5.4681 7.82227 5.13281 6.88477 5.13281C5.94727 5.13281 5.1888 5.4681 4.60938 6.13867C4.14062 6.67904 3.90625 7.38542 3.90625 8.25781V14.9961C3.90625 15.8685 4.14062 16.5749 4.60938 17.1152C5.1888 17.7858 5.94727 18.1211 6.88477 18.1211C7.82227 18.1211 8.58073 17.7858 9.16016 17.1152C9.62891 16.5749 9.86328 15.7057 9.86328 14.5078L11.7188 13.6289H11.8164ZM15.7227 19.3906V4.74219L17.5781 3.86328H17.6758V18.5117L15.8203 19.3906H15.7227ZM21.7285 6.09961C21.5007 5.86523 21.3867 5.58529 21.3867 5.25977C21.3867 4.92773 21.5007 4.64453 21.7285 4.41016C21.9564 4.17578 22.2331 4.05859 22.5586 4.05859C22.8841 4.05859 23.1608 4.17578 23.3887 4.41016C23.6165 4.64453 23.7305 4.92773 23.7305 5.25977C23.7305 5.58529 23.6165 5.86523 23.3887 6.09961C23.1608 6.33398 22.8841 6.45117 22.5586 6.45117C22.2331 6.45117 21.9564 6.33398 21.7285 6.09961ZM21.582 19.3906V8.74609L23.4375 7.86719H23.5352V18.5117L21.6797 19.3906H21.582ZM26.9531 19.3906V11.9688C26.9531 10.8945 27.3568 9.96029 28.1641 9.16602C28.9193 8.43034 29.8665 8.0625 31.0059 8.0625C32.1322 8.0625 33.0794 8.43034 33.8477 9.16602C34.6549 9.94727 35.0586 10.8815 35.0586 11.9688V18.5117L33.2031 19.3906H33.1055V11.3047C33.1055 10.556 32.9004 10.0091 32.4902 9.66406C32.0866 9.3125 31.5918 9.13672 31.0059 9.13672C30.4199 9.13672 29.9219 9.3125 29.5117 9.66406C29.1081 10.0091 28.9062 10.556 28.9062 11.3047V18.5117L27.0508 19.3906H26.9531ZM38.623 6.09961C38.3952 5.86523 38.2812 5.58529 38.2812 5.25977C38.2812 4.92773 38.3952 4.64453 38.623 4.41016C38.8509 4.17578 39.1276 4.05859 39.4531 4.05859C39.7786 4.05859 40.0553 4.17578 40.2832 4.41016C40.5111 4.64453 40.625 4.92773 40.625 5.25977C40.625 5.58529 40.5111 5.86523 40.2832 6.09961C40.0553 6.33398 39.7786 6.45117 39.4531 6.45117C39.1276 6.45117 38.8509 6.33398 38.623 6.09961ZM38.4766 19.3906V8.74609L40.332 7.86719H40.4297V18.5117L38.5742 19.3906H38.4766ZM51.9531 14.6738V15.2891C51.9531 16.3633 51.5495 17.2975 50.7422 18.0918C49.987 18.8275 49.0397 19.1953 47.9004 19.1953C46.7741 19.1953 45.8268 18.8275 45.0586 18.0918C44.2513 17.3105 43.8477 16.3763 43.8477 15.2891V11.9688C43.8477 10.888 44.2513 9.95378 45.0586 9.16602C45.8138 8.43034 46.7611 8.0625 47.9004 8.0625C49.0137 8.0625 49.9609 8.43034 50.7422 9.16602C51.5495 9.92773 51.9531 10.7676 51.9531 11.6855V11.7051L50.0977 12.584H50V11.3047C50 10.5625 49.7982 10.0156 49.3945 9.66406C48.9844 9.3125 48.4863 9.13672 47.9004 9.13672C47.3145 9.13672 46.8164 9.3125 46.4062 9.66406C46.0026 10.0026 45.8008 10.5495 45.8008 11.3047V15.9531C45.8008 16.7018 46.0026 17.252 46.4062 17.6035C46.8164 17.9486 47.3145 18.1211 47.9004 18.1211C48.4863 18.1211 48.9811 17.9453 49.3848 17.5938C49.7949 17.2422 50 16.5618 50 15.5527L51.8555 14.6738H51.9531ZM62.3047 18.5117L60.4492 19.3906H60.3516V18.3652C59.8307 18.9186 59.1309 19.1953 58.252 19.1953C57.0345 19.1953 56.0872 18.8275 55.4102 18.0918C54.7331 17.3561 54.3945 16.487 54.3945 15.4844C54.3945 14.4427 54.7624 13.5573 55.498 12.8281C56.2077 12.125 57.1257 11.7734 58.252 11.7734C59.0527 11.7734 59.7526 12.0501 60.3516 12.6035C60.3516 11.4512 60.1497 10.5853 59.7461 10.0059C59.3424 9.42643 58.8444 9.13672 58.252 9.13672H55.8789V9.03906L56.3379 8.0625H58.252C59.3913 8.0625 60.3385 8.43034 61.0938 9.16602C61.901 9.95378 62.3047 10.888 62.3047 11.9688V18.5117ZM56.3086 15.4844C56.3086 16.5 56.4844 17.1966 56.8359 17.5742C57.1745 17.9388 57.6497 18.1211 58.2617 18.1211C58.9128 18.1211 59.4076 17.9355 59.7461 17.5645C60.1172 17.1608 60.3027 16.4512 60.3027 15.4355C60.3027 14.485 60.1042 13.8079 59.707 13.4043C59.3164 13.0332 58.8314 12.8477 58.252 12.8477C57.6465 12.8477 57.1712 13.0397 56.8262 13.4238C56.4811 13.8079 56.3086 14.4948 56.3086 15.4844Z" fill="#444444"/>
</svg>
