<svg width="847" height="551" viewBox="0 0 847 551" fill="none" xmlns="http://www.w3.org/2000/svg">
<path d="M648.912 521.902L693.009 456.168L649.002 528.974L649.094 536.371C645.875 536.395 642.687 536.341 639.53 536.209L641.718 441.129L641.658 440.396L641.738 440.254L641.948 431.27L593.656 360.988L641.891 424.545L642.062 426.444L643.714 354.608L602.003 281.742L643.833 341.988L643.396 193.161L643.397 192.666L643.411 193.153L646.18 310.449L684.194 262.803L646.305 320.554L647.134 384.81L682.115 322.098L647.263 394.257L647.725 429.986L698.596 342.63L647.879 442.451L648.912 521.902Z" fill="#E6E6E6"/>
<path d="M797.316 523.973L841.413 458.239L797.406 531.045L797.498 538.441C794.279 538.466 791.091 538.412 787.934 538.28L790.121 443.2L790.061 442.467L790.142 442.325L790.351 433.341L742.06 363.059L790.294 426.616L790.466 428.515L792.118 356.679L750.407 283.813L792.236 344.059L791.8 195.232L791.801 194.737L791.815 195.224L794.584 312.52L832.598 264.874L794.708 322.624L795.538 386.88L830.519 324.169L795.666 396.327L796.128 432.057L847 344.7L796.283 444.521L797.316 523.973Z" fill="#E6E6E6"/>
<path d="M351.204 0H87.3246V357.787H351.204V0Z" fill="#E6E6E6"/>
<path d="M341.905 12.6079H96.6232V345.179H341.905V12.6079Z" fill="white"/>
<path d="M309.665 70.94H129.65C128.191 70.938 126.794 70.3561 125.763 69.3218C124.733 68.2876 124.154 66.8857 124.154 65.4241C124.154 63.9624 124.733 62.5605 125.763 61.5263C126.794 60.4921 128.191 59.9101 129.65 59.9082H309.665C310.388 59.9073 311.105 60.0492 311.773 60.326C312.441 60.6028 313.049 61.0089 313.561 61.5212C314.072 62.0335 314.478 62.6419 314.755 63.3116C315.032 63.9813 315.175 64.6991 315.175 65.4241C315.175 66.149 315.032 66.8669 314.755 67.5366C314.478 68.2063 314.072 68.8147 313.561 69.327C313.049 69.8393 312.441 70.2454 311.773 70.5222C311.105 70.7989 310.388 70.9409 309.665 70.94Z" fill="#E6E6E6"/>
<path d="M309.665 127.674H129.65C128.191 127.672 126.794 127.09 125.763 126.056C124.733 125.022 124.154 123.62 124.154 122.158C124.154 120.697 124.733 119.295 125.763 118.261C126.794 117.226 128.191 116.645 129.65 116.643H309.665C310.388 116.642 311.105 116.784 311.773 117.06C312.441 117.337 313.049 117.743 313.561 118.256C314.072 118.768 314.478 119.376 314.755 120.046C315.032 120.716 315.175 121.433 315.175 122.158C315.175 122.883 315.032 123.601 314.755 124.271C314.478 124.941 314.072 125.549 313.561 126.061C313.049 126.574 312.441 126.98 311.773 127.257C311.105 127.533 310.388 127.675 309.665 127.674Z" fill="#E6E6E6"/>
<path d="M309.665 184.409H129.65C128.191 184.407 126.794 183.825 125.763 182.791C124.733 181.757 124.154 180.355 124.154 178.893C124.154 177.432 124.733 176.03 125.763 174.996C126.794 173.961 128.191 173.379 129.65 173.377H309.665C310.388 173.376 311.105 173.518 311.773 173.795C312.441 174.072 313.049 174.478 313.561 174.99C314.072 175.503 314.478 176.111 314.755 176.781C315.032 177.451 315.175 178.168 315.175 178.893C315.175 179.618 315.032 180.336 314.755 181.006C314.478 181.676 314.072 182.284 313.561 182.796C313.049 183.308 312.441 183.715 311.773 183.991C311.105 184.268 310.388 184.41 309.665 184.409Z" fill="#E6E6E6"/>
<path d="M309.665 241.144H129.65C128.191 241.142 126.794 240.56 125.763 239.526C124.733 238.492 124.154 237.09 124.154 235.628C124.154 234.167 124.733 232.765 125.763 231.73C126.794 230.696 128.191 230.114 129.65 230.112H309.665C310.388 230.111 311.105 230.253 311.773 230.53C312.441 230.807 313.049 231.213 313.561 231.725C314.072 232.238 314.478 232.846 314.755 233.516C315.032 234.185 315.175 234.903 315.175 235.628C315.175 236.353 315.032 237.071 314.755 237.741C314.478 238.41 314.072 239.019 313.561 239.531C313.049 240.043 312.441 240.449 311.773 240.726C311.105 241.003 310.388 241.145 309.665 241.144Z" fill="#E6E6E6"/>
<path d="M309.665 297.878H129.65C128.191 297.877 126.794 297.295 125.763 296.26C124.733 295.226 124.154 293.824 124.154 292.363C124.154 290.901 124.733 289.499 125.763 288.465C126.794 287.431 128.191 286.849 129.65 286.847H309.665C310.388 286.846 311.105 286.988 311.773 287.264C312.441 287.541 313.049 287.947 313.561 288.46C314.072 288.972 314.478 289.58 314.755 290.25C315.032 290.92 315.175 291.638 315.175 292.363C315.175 293.088 315.032 293.805 314.755 294.475C314.478 295.145 314.072 295.753 313.561 296.265C313.049 296.778 312.441 297.184 311.773 297.461C311.105 297.737 310.388 297.879 309.665 297.878Z" fill="#E6E6E6"/>
<path d="M278.221 70.94H128.864C128.14 70.9409 127.424 70.7989 126.756 70.5222C126.087 70.2454 125.48 69.8393 124.968 69.327C124.456 68.8147 124.05 68.2063 123.773 67.5366C123.496 66.8669 123.354 66.149 123.354 65.4241C123.354 64.6991 123.496 63.9813 123.773 63.3116C124.05 62.6419 124.456 62.0335 124.968 61.5212C125.48 61.0089 126.087 60.6028 126.756 60.326C127.424 60.0492 128.14 59.9073 128.864 59.9082H278.221C279.679 59.9101 281.077 60.4921 282.108 61.5263C283.138 62.5605 283.717 63.9624 283.717 65.4241C283.717 66.8857 283.138 68.2876 282.108 69.3218C281.077 70.3561 279.679 70.938 278.221 70.94Z" fill="#FF2D54"/>
<path d="M231.842 127.674H128.863C127.404 127.674 126.004 127.093 124.973 126.059C123.941 125.024 123.361 123.621 123.361 122.158C123.361 120.696 123.941 119.293 124.973 118.258C126.004 117.224 127.404 116.643 128.863 116.643H231.842C232.565 116.642 233.281 116.784 233.95 117.06C234.618 117.337 235.226 117.743 235.737 118.256C236.249 118.768 236.655 119.376 236.932 120.046C237.209 120.716 237.352 121.433 237.352 122.158C237.352 122.883 237.209 123.601 236.932 124.271C236.655 124.941 236.249 125.549 235.737 126.061C235.226 126.574 234.618 126.98 233.95 127.257C233.281 127.533 232.565 127.675 231.842 127.674Z" fill="#FF2D54"/>
<path d="M175.243 184.409H128.864C128.14 184.41 127.424 184.268 126.756 183.991C126.087 183.715 125.48 183.308 124.968 182.796C124.456 182.284 124.05 181.676 123.773 181.006C123.496 180.336 123.354 179.618 123.354 178.893C123.354 178.168 123.496 177.451 123.773 176.781C124.05 176.111 124.456 175.503 124.968 174.99C125.48 174.478 126.087 174.072 126.756 173.795C127.424 173.518 128.14 173.376 128.864 173.377H175.243C176.701 173.379 178.099 173.961 179.129 174.996C180.16 176.03 180.738 177.432 180.738 178.893C180.738 180.355 180.16 181.757 179.129 182.791C178.099 183.825 176.701 184.407 175.243 184.409Z" fill="#FF2D54"/>
<path d="M292.371 241.144H128.863C127.404 241.144 126.004 240.563 124.973 239.528C123.941 238.494 123.361 237.091 123.361 235.628C123.361 234.165 123.941 232.762 124.973 231.728C126.004 230.693 127.404 230.112 128.863 230.112H292.371C293.83 230.112 295.23 230.693 296.262 231.728C297.294 232.762 297.874 234.165 297.874 235.628C297.874 237.091 297.294 238.494 296.262 239.528C295.23 240.563 293.83 241.144 292.371 241.144Z" fill="#FF2D54"/>
<path d="M256.211 297.878H128.864C128.14 297.879 127.424 297.737 126.756 297.461C126.087 297.184 125.48 296.778 124.968 296.265C124.456 295.753 124.05 295.145 123.773 294.475C123.496 293.805 123.354 293.088 123.354 292.363C123.354 291.638 123.496 290.92 123.773 290.25C124.05 289.58 124.456 288.972 124.968 288.46C125.48 287.947 126.087 287.541 126.756 287.264C127.424 286.988 128.14 286.846 128.864 286.847H256.211C256.934 286.846 257.65 286.988 258.319 287.264C258.987 287.541 259.595 287.947 260.106 288.46C260.618 288.972 261.024 289.58 261.301 290.25C261.578 290.92 261.721 291.638 261.721 292.363C261.721 293.088 261.578 293.805 261.301 294.475C261.024 295.145 260.618 295.753 260.106 296.265C259.595 296.778 258.987 297.184 258.319 297.461C257.65 297.737 256.934 297.879 256.211 297.878Z" fill="#FF2D54"/>
<path d="M480.273 257.758C480.273 257.758 474.307 213.901 464.364 225.862C454.42 237.823 464.364 255.764 464.364 255.764L472.319 265.731L480.273 259.751V257.758Z" fill="#9F616A"/>
<path d="M504.138 271.712C504.138 271.712 484.251 249.784 480.273 253.771C476.296 257.758 464.364 259.751 466.353 267.725C468.341 275.699 510.104 301.614 510.104 301.614L504.138 271.712Z" fill="#FF2D54"/>
<path opacity="0.1" d="M504.138 271.712C504.138 271.712 484.251 249.784 480.273 253.771C476.296 257.758 464.364 259.751 466.353 267.725C468.341 275.699 510.104 301.614 510.104 301.614L504.138 271.712Z" fill="black"/>
<path d="M617.492 269.718V285.666C617.492 285.666 619.481 321.548 607.549 319.555C595.617 317.561 601.583 287.659 601.583 287.659L603.572 269.718L617.492 269.718Z" fill="#9F616A"/>
<path d="M611.526 385.339C611.526 385.339 629.424 413.248 635.39 415.241C641.356 417.235 673.175 435.176 677.153 453.117L704.994 488.999L691.074 506.94C691.074 506.94 627.436 439.163 609.538 433.182C591.639 427.202 573.741 397.3 573.741 397.3L611.526 385.339Z" fill="#9F616A"/>
<path d="M470.33 339.49C470.33 339.49 432.545 345.47 438.511 369.392C444.477 393.313 502.149 443.15 502.149 443.15L504.138 455.11L526.013 459.097L535.957 449.13L533.968 443.15C533.968 443.15 510.104 421.222 508.115 413.248C506.126 405.274 484.251 373.379 474.307 371.385L488.228 363.411L470.33 339.49Z" fill="#9F616A"/>
<path d="M699.028 488.999C699.028 488.999 691.073 477.038 703.006 479.032C714.938 481.025 722.892 483.019 722.892 490.993C722.892 498.966 712.949 554.783 701.017 550.796C689.085 546.809 699.028 528.868 699.028 528.868C699.028 528.868 693.062 512.921 689.085 510.927C685.107 508.934 685.107 498.966 689.085 498.966C693.062 498.966 701.017 492.986 699.028 488.999Z" fill="#2F2E41"/>
<path d="M529.99 445.143C529.99 445.143 529.99 435.176 537.945 445.143C545.9 455.11 549.877 463.084 541.922 469.064C533.968 475.045 506.126 488.999 506.126 488.999C506.126 488.999 476.296 494.979 480.273 481.025C480.273 481.025 500.16 471.058 500.16 463.084C500.16 455.11 500.16 441.156 506.126 445.143C512.092 449.13 529.99 451.123 529.99 445.143Z" fill="#2F2E41"/>
<path d="M567.775 295.633C567.775 295.633 595.617 299.62 593.628 339.489C593.628 339.489 629.425 375.372 619.481 387.333C609.538 399.293 587.662 421.221 579.707 415.241C571.753 409.261 547.889 363.411 547.889 363.411C547.889 363.411 492.205 383.346 482.262 373.378C472.319 363.411 462.375 339.489 462.375 339.489L512.092 313.574L567.775 295.633Z" fill="#2F2E41"/>
<path d="M490.217 182.006C503.397 182.006 514.081 171.296 514.081 158.085C514.081 144.873 503.397 134.163 490.217 134.163C477.037 134.163 466.353 144.873 466.353 158.085C466.353 171.296 477.037 182.006 490.217 182.006Z" fill="#9F616A"/>
<path d="M508.115 160.078C508.115 160.078 522.036 182.006 526.013 184C529.99 185.993 498.171 205.928 498.171 205.928C498.171 205.928 498.171 180.013 488.228 174.032L508.115 160.078Z" fill="#9F616A"/>
<path d="M510.104 182.006C510.104 182.006 541.922 172.039 547.888 187.986C553.854 203.934 567.775 233.836 565.787 253.771C563.798 273.705 559.821 269.718 565.787 275.699C571.753 281.679 575.73 277.692 573.741 285.666C571.753 293.64 569.764 293.64 571.753 297.627C573.741 301.614 547.889 315.568 526.013 317.561L504.138 319.555C504.138 319.555 504.138 283.673 500.16 275.699C496.183 267.725 488.228 251.777 488.228 245.797V229.973C488.228 219.441 490.97 209.092 496.183 199.947C496.183 199.947 508.115 182.006 510.104 182.006Z" fill="#FF2D54"/>
<path d="M533.968 189.98C533.968 189.98 607.549 195.96 615.504 215.895C623.458 235.83 627.436 275.699 619.481 275.699C611.526 275.699 601.583 279.686 599.594 275.699C597.605 271.712 589.651 231.843 587.662 231.843C585.673 231.843 526.013 225.862 526.013 225.862C526.013 225.862 500.16 193.967 533.968 189.98Z" fill="#FF2D54"/>
<path d="M489.258 152.154C489.258 152.154 482.925 141.122 475.009 150.704C467.093 160.287 454.215 142.678 456.192 138.92C458.169 135.163 465.15 139.089 477.114 135.169C489.078 131.249 512.124 123.262 515.984 149.315C519.844 175.367 510.651 172.636 510.651 172.636C510.651 172.636 506.438 149.551 502.63 156.182L498.821 162.813L495.518 163.628L489.258 152.154Z" fill="#2F2E41"/>
</svg>
