<svg width="493" height="579" viewBox="0 0 493 579" fill="none" xmlns="http://www.w3.org/2000/svg">
<g clip-path="url(#clip0_201_785)">
<path d="M427.748 561.924C429.635 562.043 430.678 559.697 429.25 558.33L429.108 557.765C429.127 557.72 429.145 557.675 429.164 557.63C431.073 553.078 437.541 553.109 439.434 557.668C441.113 561.714 443.252 565.767 443.778 570.046C444.014 571.934 443.908 573.858 443.489 575.711C447.424 567.112 449.496 557.723 449.496 548.28C449.496 545.907 449.366 543.535 449.1 541.168C448.882 539.233 448.581 537.309 448.192 535.402C446.085 525.098 441.524 515.283 434.945 507.086C431.783 505.356 429.145 502.653 427.552 499.413C426.98 498.245 426.532 496.988 426.319 495.707C426.679 495.754 427.676 490.272 427.405 489.935C427.906 489.174 428.804 488.795 429.352 488.053C432.076 484.358 435.83 485.003 437.789 490.024C441.975 492.137 442.016 495.642 439.447 499.012C437.813 501.157 437.589 504.058 436.155 506.354C436.302 506.543 436.456 506.726 436.603 506.915C439.308 510.385 441.648 514.115 443.62 518.034C443.063 513.678 443.886 508.432 445.289 505.05C446.886 501.196 449.879 497.951 452.515 494.619C455.681 490.618 462.174 492.364 462.732 497.437C462.737 497.486 462.742 497.535 462.748 497.584C462.356 497.805 461.973 498.04 461.598 498.287C459.461 499.701 460.199 503.015 462.732 503.406L462.789 503.415C462.647 504.825 462.405 506.224 462.051 507.599C465.433 520.68 458.132 525.444 447.708 525.658C447.478 525.777 447.253 525.895 447.023 526.007C448.079 528.981 448.923 532.032 449.549 535.125C450.109 537.857 450.499 540.619 450.717 543.393C450.988 546.893 450.965 550.41 450.67 553.904L450.687 553.78C451.437 549.932 453.525 546.338 456.558 543.848C461.076 540.135 467.459 538.768 472.333 535.785C474.679 534.348 477.686 536.204 477.276 538.925L477.256 539.056C476.531 539.351 475.823 539.693 475.138 540.076C474.747 540.297 474.363 540.532 473.988 540.78C471.851 542.194 472.59 545.508 475.122 545.899L475.18 545.907C475.221 545.913 475.256 545.919 475.298 545.925C474.053 548.882 472.318 551.626 470.147 553.993C468.032 565.412 458.95 566.495 449.236 563.17H449.23C448.168 567.797 446.616 572.318 444.622 576.626H428.16C428.101 576.443 428.048 576.254 427.995 576.071C429.517 576.166 431.051 576.077 432.55 575.8C431.328 574.301 430.107 572.79 428.886 571.291C428.856 571.261 428.833 571.232 428.809 571.202C428.19 570.435 427.564 569.674 426.945 568.907L426.944 568.906C426.905 566.55 427.188 564.203 427.748 561.924Z" fill="#F2F2F2"/>
<path d="M70.8813 561.924C68.9941 562.043 67.951 559.697 69.3789 558.33L69.5209 557.765C69.5022 557.72 69.4834 557.675 69.4645 557.63C67.5559 553.078 61.0876 553.109 59.1952 557.668C57.5157 561.714 55.3773 565.767 54.8507 570.046C54.6147 571.934 54.7209 573.858 55.1398 575.711C51.2043 567.112 49.1333 557.723 49.1333 548.28C49.1333 545.907 49.2631 543.535 49.5286 541.168C49.747 539.233 50.0479 537.309 50.4373 535.402C52.5437 525.098 57.1047 515.283 63.6835 507.086C66.8461 505.356 69.4835 502.653 71.0766 499.413C71.6489 498.245 72.0973 496.988 72.3097 495.707C71.9498 495.754 70.9526 490.272 71.2241 489.935C70.7225 489.174 69.8248 488.795 69.277 488.053C66.5526 484.358 62.799 485.003 60.8395 490.024C56.6535 492.137 56.613 495.642 59.1815 499.012C60.8156 501.157 61.0401 504.058 62.4739 506.354C62.3264 506.543 62.173 506.726 62.0255 506.915C59.3205 510.385 56.9809 514.115 55.0087 518.034C55.5661 513.678 54.7431 508.432 53.3402 505.05C51.7432 501.196 48.7499 497.951 46.1138 494.619C42.9476 490.618 36.4549 492.364 35.897 497.437C35.8916 497.486 35.8864 497.535 35.8812 497.584C36.2727 497.805 36.6563 498.04 37.031 498.287C39.1682 499.701 38.4296 503.015 35.8973 503.406L35.8399 503.415C35.9815 504.825 36.2235 506.224 36.5774 507.599C33.1958 520.68 40.4965 525.444 50.9211 525.658C51.1512 525.777 51.3754 525.895 51.6056 526.007C50.5494 528.981 49.7056 532.032 49.0802 535.125C48.5197 537.857 48.1302 540.619 47.912 543.393C47.6405 546.893 47.6641 550.41 47.9592 553.904L47.9415 553.78C47.1921 549.932 45.1034 546.338 42.0706 543.848C37.5527 540.135 31.1697 538.768 26.2957 535.785C23.9495 534.348 20.943 536.204 21.3524 538.925L21.3724 539.056C22.0981 539.351 22.8061 539.693 23.4906 540.076C23.8821 540.297 24.2657 540.532 24.6404 540.78C26.7775 542.194 26.0389 545.508 23.5066 545.899L23.4492 545.907C23.4079 545.913 23.3725 545.919 23.3313 545.925C24.5762 548.882 26.3109 551.626 28.4822 553.993C30.5967 565.412 39.6784 566.495 49.3929 563.17H49.3988C50.4609 567.797 52.0127 572.318 54.007 576.626H70.4688C70.5279 576.443 70.5809 576.254 70.6341 576.071C69.1118 576.166 67.5777 576.077 66.079 575.8C67.3004 574.301 68.5217 572.79 69.7431 571.291C69.7726 571.261 69.7962 571.232 69.8198 571.202C70.4393 570.435 71.0648 569.674 71.6843 568.907L71.6846 568.906C71.7234 566.55 71.4406 564.203 70.8813 561.924Z" fill="#F2F2F2"/>
<path d="M0 577.913C0 578.516 0.484194 579 1.08714 579H491.913C492.516 579 493 578.516 493 577.913C493 577.31 492.516 576.825 491.913 576.825H1.08714C0.484194 576.825 0 577.31 0 577.913Z" fill="#CCCCCC"/>
<path d="M353.872 556.996L363.567 556.914L367.859 518.636L353.55 518.756L353.872 556.996Z" fill="#A0616A"/>
<path d="M383.028 568.867L367.543 558.361L367.485 551.421L364.155 551.644L353.833 552.356L351.302 552.525L349.465 577.053L356.739 576.987L357.978 570.11L361.353 576.952L380.63 576.791C383.025 576.769 384.949 574.804 384.928 572.417C384.916 570.994 384.207 569.668 383.028 568.867Z" fill="#2F2E41"/>
<path d="M304.542 556.996L314.237 556.914L318.529 518.636L304.219 518.756L304.542 556.996Z" fill="#A0616A"/>
<path d="M333.698 568.867L318.213 558.361L318.154 551.421L314.824 551.644L304.502 552.356L301.972 552.525L300.135 577.053L307.409 576.987L308.648 570.11L312.023 576.952L331.3 576.791C333.695 576.769 335.619 574.804 335.598 572.417C335.586 570.994 334.876 569.668 333.698 568.867Z" fill="#2F2E41"/>
<path d="M381.005 47.3132C378.169 52.0848 379.737 58.2525 384.508 61.0891C386.694 62.3889 389.171 62.7537 391.488 62.3192L391.497 62.3294L403.953 75.979L418.588 70.6742L399.388 49.7015L399.321 49.7729C398.654 47.3602 397.098 45.1894 394.777 43.8093C390.007 40.9728 383.841 42.5416 381.005 47.3132Z" fill="#A0616A"/>
<path d="M391.918 247.515L352.617 248.756L315.385 257.032C315.385 257.032 319.108 261.584 306.697 273.998C306.697 273.998 290.15 302.964 301.733 331.102L304.979 404.695C304.979 404.695 307.748 410.524 305.253 410.899C302.757 411.275 302.936 415.639 305.587 418.482C308.238 421.326 305.833 424.043 305.833 424.043C310.94 427.448 307.173 436.62 306.698 443.654C306.698 443.654 292.223 522.996 303.282 548.247L317.899 549.161L342.631 444.569L354.686 331.929L360.478 442.826C360.478 442.826 338.321 518.944 352.312 549.161L368.142 548.247L395.228 442.826C395.228 442.826 399.787 394.947 402.776 353.541C402.994 350.514 401.737 343.681 403.404 344.583C405.071 345.485 400.865 338.287 403.882 337.317C406.898 336.348 401.824 328.855 404.361 329.403C406.898 329.951 402.735 269.823 402.331 264.162C400.676 240.989 391.918 247.515 391.918 247.515Z" fill="#2F2E41"/>
<path d="M371.321 149.715C367.143 149.716 363.112 148.095 360.013 145.06C355.855 140.988 354.208 135.184 355.606 129.535C357.217 123.028 362.547 118.239 369.186 117.332L424.206 109.816L395.942 70.0716L411.84 62.001L453.077 109.357C455.961 112.67 456.921 117.157 455.643 121.359C454.365 125.562 451.071 128.755 446.831 129.901L375.625 149.14C374.194 149.526 372.749 149.715 371.321 149.715Z" fill="#E6E6E6"/>
<path d="M405.597 264.073L306.023 268.642C303.288 264.488 304.029 258.242 307.858 250.42C322.319 220.888 311.337 165.019 303.949 135.928C301.876 127.766 307.441 119.652 315.818 118.814L325.207 117.875L333.885 91.376H364.28L376.889 105.785L398.288 118.788C394.393 158.92 377.796 215.588 401.441 244.007C406.612 250.223 408.078 256.944 405.597 264.073Z" fill="#E6E6E6"/>
<path d="M347.225 87.5421C344.92 88.3943 342.563 89.1946 340.111 89.7925C336.924 90.5694 335.124 90.9295 332.048 89.7354C331.94 89.6935 331.837 89.652 331.74 89.6112C320.251 84.8178 312.103 73.3859 311.852 59.9754C311.837 59.7581 311.837 59.5295 311.837 59.3066C311.837 58.2253 311.883 57.1495 311.991 56.0905C312.129 54.619 312.36 53.1754 312.687 51.7653L312.657 51.7597C310.166 49.2125 309.208 45.7233 309.526 42.2174C309.931 37.6357 312.508 33.0206 316.649 30.4232C319.728 28.4947 323.239 27.2072 327.005 26.7668C327.984 26.6554 328.973 26.5941 329.982 26.5941H339.329C341.312 26.137 343.285 25.8193 345.196 25.6688H345.212C364.023 24.1081 378.858 36.5823 377.475 51.7597C377.465 51.7764 377.449 51.7931 377.439 51.8099C377.039 52.462 376.686 53.0807 376.373 53.6715C376.071 54.2233 375.815 54.7528 375.594 55.2544C373.878 59.1338 382.036 119.322 379.11 120.236C377.444 120.754 370.731 75.9666 371.935 84.4834C373.452 95.1683 355.891 84.3378 347.225 87.5421Z" fill="#2F2E41"/>
<path d="M347.473 83.3707C359.693 83.3707 369.599 73.4621 369.599 61.2393C369.599 49.0165 359.693 39.1079 347.473 39.1079C335.253 39.1079 325.347 49.0165 325.347 61.2393C325.347 73.4621 335.253 83.3707 347.473 83.3707Z" fill="#A0616A"/>
<path d="M366.714 51.8806C366.345 52.0753 365.981 52.2547 365.612 52.4341C365.228 52.6186 364.843 52.8032 364.454 52.9774C357.049 56.3347 351.018 56.7089 347.359 51.8806C347.257 49.3536 346.693 46.8421 345.673 44.5099C345.863 47.0932 345.155 49.7278 343.721 51.8806H336.352C328.763 56.919 324.868 61.5475 330.136 78.0878C330.479 79.1745 332.831 117.781 333.503 120.748C322.014 116.34 312.103 69.5383 311.852 57.2061C311.837 57.0062 311.837 56.796 311.837 56.591C311.837 55.5967 311.883 54.6074 311.991 53.6335C312.129 52.2804 312.36 50.9528 312.687 49.6561L312.657 49.6509C310.166 47.3085 309.208 44.0999 309.526 40.8759C311.442 38.3643 313.825 36.2218 316.556 34.5714C319.001 33.3822 321.578 32.4186 324.253 31.6805C324.32 31.6652 324.376 31.6498 324.443 31.6344C325.252 31.414 326.083 31.2141 326.913 31.0398C328.609 30.6862 330.331 30.4196 332.093 30.2556C332.222 30.2505 332.345 30.2402 332.457 30.2402C333.18 30.2402 333.851 30.4401 334.435 30.7835C334.44 30.7835 334.44 30.7887 334.451 30.7887C334.876 31.0398 335.255 31.373 335.552 31.7728C336.06 32.4186 336.352 33.2285 336.352 34.1101H344.561C344.863 34.1101 345.166 34.1203 345.468 34.1357C356.901 34.5919 366.089 39.4817 366.678 50.7222C366.703 51.1117 366.714 51.491 366.714 51.8806Z" fill="#2F2E41"/>
<path d="M318.179 52.7705C326.23 52.7705 332.756 46.2426 332.756 38.1902C332.756 30.1377 326.23 23.6099 318.179 23.6099C310.129 23.6099 303.602 30.1377 303.602 38.1902C303.602 46.2426 310.129 52.7705 318.179 52.7705Z" fill="#2F2E41"/>
<path d="M338.191 31.4464C336.535 39.3266 328.365 44.0397 320.549 42.1118C312.732 40.1838 307.958 32.283 309.886 24.4647C311.813 16.6464 321.299 18.9003 327.529 13.7993C336.341 6.5831 340.425 20.8192 338.191 31.4464Z" fill="#2F2E41"/>
<path d="M365.013 198.507C363.868 193.075 358.537 189.601 353.107 190.746C350.618 191.271 348.549 192.681 347.139 194.57L347.125 194.569L328.718 192.967L321.545 206.786L349.872 209.205L349.873 209.107C351.997 210.43 354.612 210.973 357.254 210.416C362.684 209.27 366.158 203.939 365.013 198.507Z" fill="#A0616A"/>
<path d="M280.685 210.403C275.424 210.403 270.609 207.756 267.79 203.307C264.954 198.832 264.627 193.307 266.915 188.528L296.978 125.758C299.492 120.509 304.454 117.078 310.252 116.582C316.04 116.083 321.523 118.622 324.893 123.368C328.772 128.832 328.925 135.998 325.282 141.624L295.09 188.239L343.644 192.735L339.39 210.053L280.779 210.403L280.685 210.403Z" fill="#E6E6E6"/>
<path d="M393.732 69.3977C393.732 69.3799 393.733 69.3634 393.735 69.3493C393.769 69.1127 394.024 69.0681 394.108 69.0533C394.552 68.9751 397.026 69.0338 397.366 69.6718C397.47 69.8672 398.104 69.8148 398.566 69.7765C398.89 69.7496 399.226 69.7218 399.517 69.7461C406.983 70.3647 412.733 70.2546 416.145 69.428C418.728 68.802 420.89 67.1964 422.232 64.907C423.57 62.6246 423.927 59.9681 423.204 57.4151L421.164 50.1066C420.46 47.5821 418.807 45.4972 416.509 44.2361C414.197 42.9665 411.529 42.6909 408.997 43.4597C404.271 44.8946 397.439 49.182 392.541 52.5258C392.34 52.6626 392.057 52.8096 391.783 52.9519C391.549 53.0734 391.217 53.2453 391.062 53.3591C391.096 53.4364 391.08 53.5059 391.074 53.5332C391.021 53.747 390.812 53.7836 390.549 53.8295C390.385 53.8581 390.002 53.925 389.937 54.0319C389.928 54.0475 389.937 54.0829 389.944 54.1022C390.019 54.3286 389.917 54.4472 389.851 54.497C389.653 54.6455 389.463 54.5167 389.118 54.2824C388.854 54.1039 388.236 53.6854 388.043 53.8142C387.993 53.8475 387.759 54.0853 388.047 55.5024C388.129 55.9059 388.05 56.267 387.817 56.5461C387.256 57.2211 385.972 57.207 385.918 57.2061L382.46 56.8847C376.076 56.2897 369.866 58.598 365.42 63.2179L365.367 63.2727L362.039 64.1307L364.58 73.9942L368.001 73.1125L368.087 73.1518C373.283 75.5191 379.404 74.4329 386.8 69.831L388.9 68.5243L388.976 68.5242C390.359 68.5217 392.069 68.6012 392.357 68.9926C392.403 69.0546 392.428 69.1259 392.429 69.1992C392.639 69.3116 393.31 69.3972 393.732 69.3977Z" fill="#FF2D54"/>
<path d="M359.474 75.6573C359.575 76.0507 359.978 76.2881 360.371 76.1868L365.173 74.9488C365.566 74.8474 365.803 74.4451 365.702 74.0517L362.859 63.0192C362.758 62.6258 362.356 62.3883 361.962 62.4897L357.161 63.7276C356.767 63.829 356.53 64.2314 356.631 64.6248L359.474 75.6573Z" fill="#3F3D56"/>
<path d="M359.204 73.1519C360.717 73.1519 361.944 71.9246 361.944 70.4107C361.944 68.8967 360.717 67.6694 359.204 67.6694C357.69 67.6694 356.463 68.8967 356.463 70.4107C356.463 71.9246 357.69 73.1519 359.204 73.1519Z" fill="#3F3D56"/>
<path d="M203.433 563.955L190.88 563.954L184.909 515.525L203.435 515.526L203.433 563.955Z" fill="#FFB6B6"/>
<path d="M203.874 577.053L165.273 577.052V576.563C165.274 568.264 172 561.536 180.298 561.536H180.299L187.35 556.185L200.505 561.536L203.875 561.536L203.874 577.053Z" fill="#2F2E41"/>
<path d="M153.189 563.955L140.636 563.954L134.665 515.525L153.191 515.526L153.189 563.955Z" fill="#FFB6B6"/>
<path d="M153.631 577.053L115.03 577.052V576.563C115.03 568.264 121.757 561.536 130.054 561.536H130.055L137.106 556.185L150.262 561.536L153.631 561.536L153.631 577.053Z" fill="#2F2E41"/>
<path d="M151.962 38.0409C155.816 42.271 155.513 48.8257 151.283 52.681C149.346 54.4476 146.92 55.3303 144.489 55.3728L144.482 55.3849L122.405 93.2034L106.781 85.5935L133.892 44.2702L133.975 44.3283C134.147 41.7532 135.268 39.2378 137.325 37.3621C141.555 33.5067 148.108 33.8107 151.962 38.0409Z" fill="#FFB6B6"/>
<path d="M139.762 243.971C139.762 243.971 120.295 384.186 131.597 411.507L133.163 533.04H154.471L172.984 418.102C172.984 418.102 171.1 415.275 174.868 411.507C178.635 407.739 178.635 411.507 178.635 407.739C178.635 403.97 168.274 390.78 168.274 390.78L177.432 337.08L184.967 533.04L204.747 532.098C204.747 532.098 223.585 468.976 220.759 439.771C220.759 439.771 218.875 419.986 218.875 417.16C218.875 414.333 216.05 409.623 218.875 406.796C221.701 403.97 222.499 396.863 221.158 395.706C219.817 394.549 219.817 389.297 219.817 389.297L240.539 313.527V255.501L139.762 243.971Z" fill="#2F2E41"/>
<path d="M206.631 69.5186L178.374 72.3449L164.698 90.4704L148.234 102.545V202.535L151.638 225.696C144.236 231.017 133.705 239.851 137.935 249.453C137.935 249.453 218.386 275.524 240.991 252.913L239.107 195.762L244.814 117.186C245.945 101.611 236.026 87.3678 221.028 83.0302L209.108 79.5825L206.631 69.5186Z" fill="#E6E6E6"/>
<path d="M235.496 305.58C241.129 304.575 244.882 299.193 243.877 293.559C243.417 290.977 242.032 288.798 240.131 287.283L240.132 287.269L243.903 234.834L227.461 226.696L224.964 289.626L225.065 289.63C223.633 291.777 222.989 294.455 223.477 297.196C224.482 302.831 229.862 306.584 235.496 305.58Z" fill="#FFB6B6"/>
<path d="M244.817 254.022L226.546 254.936L219.625 217.871L204.08 115.36C203.183 109.445 204.849 103.402 208.648 98.7811C212.448 94.1606 218.055 91.3609 224.031 91.1004C235.323 90.5984 244.963 99.0438 245.975 110.304L253.527 194.299L244.817 254.022Z" fill="#E6E6E6"/>
<path d="M149.176 101.551L151.059 141.12L107.85 142.149C92.0892 142.525 82.2016 125.257 90.5 111.849L113.433 71.4219L128.34 84.6301L117.151 111.914L149.176 101.551Z" fill="#E6E6E6"/>
<path d="M186.896 62.5664C201.468 62.5664 213.281 50.7508 213.281 36.1755C213.281 21.6003 201.468 9.78467 186.896 9.78467C172.324 9.78467 160.512 21.6003 160.512 36.1755C160.512 50.7508 172.324 62.5664 186.896 62.5664Z" fill="#FFB6B6"/>
<path d="M213.163 54.205C210.286 57.8052 207.828 59.9159 203.864 61.4236C203.8 60.8753 203.763 60.318 203.772 59.7605C203.224 60.5098 202.685 61.2591 202.128 62.0084C199.662 62.7668 196.647 63.3607 192.746 63.9638L190.828 58.1067C190.526 55.4568 192.28 53.0171 194.235 51.1988C196.19 49.3896 198.474 47.8362 199.817 45.5336C201.16 43.231 201.141 39.7953 198.903 38.3515C196.702 36.917 193.678 38.0957 191.193 37.2459C188.325 36.2682 186.982 32.7594 187.457 29.7624C187.932 26.7653 189.75 24.1794 191.513 21.7214C187.402 23.5124 181.181 23.7408 175.124 22.6717C175.344 20.7803 174.887 18.7975 173.745 17.2715C173.635 19.0168 172.822 20.698 171.543 21.8768C165.724 20.3143 160.517 17.5365 158.142 13.7901C159.193 13.516 160.243 13.2328 161.294 12.9586C160.992 10.8022 160.691 8.6549 160.389 6.50762C161.668 7.13811 162.956 7.77773 164.244 8.40823C164.491 7.67719 164.865 7.03761 165.341 6.47104C166.428 6.12387 167.551 5.91366 168.693 5.83146C169.059 5.81317 169.433 5.79488 169.808 5.79488C170.356 5.79488 170.922 5.81317 171.47 5.87714C170.785 5.2558 170.091 4.64355 169.406 4.01312C169.323 3.94001 169.25 3.8669 169.168 3.79378C170.42 3.2547 171.772 2.8435 173.051 2.48714C178.641 0.933764 184.433 -0.6287 190.17 0.257603C193.835 0.824699 197.481 2.67847 199.859 5.44323C201.982 7.91136 204.98 9.37392 208.17 10.0199C209.703 10.3303 211.188 11.0164 212.423 11.9718C211.647 12.4743 210.825 12.913 209.966 13.2602C211.592 13.6531 213.209 14.046 214.835 14.4481C216.352 16.4492 217.384 18.834 218.169 21.228C221.805 32.2569 220.417 45.1406 213.163 54.205Z" fill="#2F2E41"/>
<path d="M121.441 47.7904C121.442 47.8086 121.442 47.8257 121.441 47.8404C121.424 48.0862 121.166 48.1514 121.081 48.173C120.629 48.2871 118.082 48.4145 117.683 47.7843C117.561 47.5913 116.914 47.6933 116.442 47.7677C116.11 47.82 115.767 47.8741 115.466 47.8712C107.742 47.8017 101.838 48.3513 98.3925 49.4601C95.7836 50.2999 93.6826 52.1149 92.4759 54.5709C91.273 57.0194 91.1074 59.7781 92.0447 62.3483L94.6968 69.7085C95.6127 72.2509 97.4704 74.2693 99.9283 75.3916C102.402 76.5216 105.167 76.6024 107.712 75.6198C112.463 73.7856 119.162 68.8587 123.946 65.0486C124.141 64.8927 124.421 64.72 124.692 64.5529C124.924 64.4102 125.252 64.2083 125.402 64.0796C125.362 64.0026 125.373 63.93 125.377 63.9014C125.415 63.6775 125.627 63.6241 125.895 63.5569C126.061 63.5151 126.45 63.4172 126.508 63.3024C126.517 63.2855 126.505 63.2498 126.496 63.2306C126.401 63.0034 126.498 62.8737 126.562 62.8176C126.754 62.6499 126.959 62.7679 127.332 62.9826C127.617 63.1461 128.283 63.5296 128.472 63.3825C128.521 63.3444 128.744 63.0821 128.341 61.6468C128.225 61.2382 128.28 60.8609 128.497 60.5562C129.023 59.8195 130.345 59.7366 130.4 59.7334L133.981 59.8014C140.59 59.9288 146.801 57.0839 151.021 51.9961L151.072 51.9358L154.429 50.8008L151.067 40.8516L147.617 42.0178L147.526 41.9838C142.003 39.944 135.792 41.5255 128.535 46.8188L126.475 48.3217L126.397 48.3277C124.975 48.4351 123.212 48.4831 122.885 48.1025C122.834 48.0422 122.802 47.9708 122.795 47.8956C122.571 47.796 121.874 47.7589 121.441 47.7904Z" fill="#FF2D54"/>
<path d="M156.192 38.7542C156.058 38.3574 155.626 38.1437 155.229 38.2779L150.386 39.9152C149.989 40.0493 149.775 40.481 149.91 40.8778L153.67 52.0063C153.804 52.4032 154.235 52.6168 154.632 52.4827L159.476 50.8454C159.872 50.7113 160.086 50.2795 159.952 49.8827L156.192 38.7542Z" fill="#3F3D56"/>
<path d="M156.868 46.9545C158.428 46.9545 159.693 45.6891 159.693 44.1281C159.693 42.5672 158.428 41.3018 156.868 41.3018C155.307 41.3018 154.042 42.5672 154.042 44.1281C154.042 45.6891 155.307 46.9545 156.868 46.9545Z" fill="#3F3D56"/>
</g>
<defs>
<clipPath id="clip0_201_785">
<rect width="493" height="579" fill="white"/>
</clipPath>
</defs>
</svg>
