<svg width="636" height="669" viewBox="0 0 636 669" fill="none" xmlns="http://www.w3.org/2000/svg">
<path d="M160.766 669H78.8478C78.6525 668.144 78.4571 667.288 78.2727 666.421C74.8007 650.831 71.8711 635.089 68.985 619.455C57.5056 557.265 46.0371 495.076 34.5577 432.887C30.4672 410.741 26.3767 388.098 29.7836 365.844C33.2014 343.59 45.5814 321.401 66.2074 312.3C67.8024 311.596 69.419 310.979 71.0465 310.448C78.3704 344.717 86.0197 378.921 94.0162 413.038C102.251 448.163 110.845 483.202 119.785 518.153C128.769 553.278 138.122 588.306 147.822 623.225C151.825 637.645 155.894 652.044 160.028 666.421C160.267 667.277 160.516 668.144 160.766 669Z" fill="#D7D7D8"/>
<path d="M608.918 535.142C580.958 579.985 552.465 625.088 519.676 666.421C518.993 667.288 518.309 668.144 517.615 669H396.614C397.265 668.144 397.938 667.277 398.611 666.421C417.62 641.947 437.15 617.873 457.256 594.286C480.203 567.385 503.911 541.122 528.584 515.781C552.324 491.403 576.943 467.871 602.712 445.65C605.772 443.006 608.842 440.395 611.935 437.795C614.615 435.541 610.752 431.728 608.104 433.959C582.14 455.812 557.337 479.009 533.445 503.104C508.544 528.218 484.619 554.297 461.498 581.047C438.051 608.165 415.428 635.966 393.457 664.276C392.904 664.991 392.35 665.706 391.808 666.421C391.135 667.277 390.462 668.133 389.822 669H166.408C166.158 668.144 165.909 667.277 165.67 666.421C162.643 655.912 159.659 645.403 156.708 634.883C146.921 599.974 137.482 564.979 128.4 529.876C119.373 494.957 110.693 459.94 102.371 424.837C94.0052 389.56 85.9978 354.208 78.3593 318.769C77.6649 315.529 76.9705 312.279 76.2761 309.039C97.4772 304.402 120.729 312.506 140.389 323.016C207.475 358.899 258.428 423.667 277.459 497.243C291.976 457.763 334.367 436.343 374.513 423.569C425.682 407.296 479.357 398.824 533.065 398.564C552.422 398.466 572.147 399.495 590.321 406.148C608.506 412.789 625.139 425.812 632.159 443.819C644.007 474.242 626.192 507.427 608.918 535.142Z" fill="#DDDEDF"/>
<path d="M377.898 450.081C389.649 458.705 403.732 459.377 409.352 451.565C414.962 443.764 409.982 430.449 398.22 421.825C393.565 418.314 388.13 416.007 382.347 415.118L332.067 379.224L315.325 404.176L366.668 436.906C369.294 442.183 373.146 446.701 377.898 450.081Z" fill="#F6A6A9"/>
<path d="M261.205 178.561C244.605 180.663 232.865 195.831 235.013 212.397L250.268 415.844L371.746 466.766L388.086 445.715L304.139 384.36L316.769 225.29C315.467 196.503 289.839 174.953 261.205 178.572V178.561Z" fill="#FF2D54"/>
<path d="M206.412 184.607L265.469 203.989V119.102H211.881L206.412 184.607Z" fill="#F6A6A9"/>
<path d="M258.156 142.591C290.659 142.591 317.007 116.281 317.007 83.8256C317.007 51.3703 290.659 25.0601 258.156 25.0601C225.654 25.0601 199.305 51.3703 199.305 83.8256C199.305 116.281 225.654 142.591 258.156 142.591Z" fill="#F6A6A9"/>
<path d="M242.001 78.0074C251.863 77.7149 258.319 67.7581 262.149 58.6898C265.979 49.6106 269.918 39.1879 279.043 35.4392C286.518 32.3731 299.701 53.0776 305.604 47.5629C311.745 41.8207 305.756 12.2862 299.235 6.97738C292.714 1.67937 283.784 0.639275 275.375 0.260073C254.869 -0.682517 234.232 0.975141 214.137 5.16804C201.703 7.75745 188.9 11.6578 179.938 20.6395C168.589 32.0264 165.67 49.2097 164.856 65.2554C164.021 81.6803 164.965 98.8853 172.961 113.262C180.958 127.64 197.71 138.236 213.758 134.574C215.374 125.863 213.725 116.924 213.107 108.073C212.488 99.2319 213.139 89.676 218.543 82.6445C223.946 75.613 235.501 72.8178 241.794 79.0584" fill="#2F2E41"/>
<path d="M169.587 98.3651C163.695 94.053 156.654 90.456 149.406 91.3336C141.572 92.287 134.964 98.7226 132.946 106.339C130.928 113.956 133.185 122.352 138.035 128.571C142.874 134.79 150.079 138.929 157.695 140.966C162.1 142.147 166.94 142.645 171.128 140.847C177.323 138.192 180.654 130.294 178.224 124.01" fill="#2F2E41"/>
<path d="M229.154 418.12L208.224 420.287C208.224 420.287 155.623 498.121 208.224 562.238L208.951 667.722H306.374C306.374 667.722 346.78 549.27 325.134 506.756L345.337 494.502L229.154 418.12Z" fill="#2F2E41"/>
<path d="M226.366 439.062L209.07 451.024C209.07 451.024 169.023 557.731 277.589 575.402L329.138 667.472L414.495 667.711C414.495 667.711 392.73 497.351 353.236 470.525L365.03 450.07L226.366 439.062Z" fill="#2F2E41"/>
<path d="M270.287 162.321L199.295 148.29L176.466 227.175C176.466 227.175 252.232 375.617 208.213 420.287L345.326 494.502C345.326 494.502 494.699 413.797 328.009 295.626C328.009 295.626 356.154 261.758 324.396 232.213C292.649 202.668 270.276 162.321 270.276 162.321H270.287Z" fill="#FF2D54"/>
<path d="M334.367 509.919C346.118 518.543 360.202 519.215 365.822 511.404C371.431 503.603 366.451 490.287 354.69 481.663C350.035 478.153 344.599 475.845 338.816 474.957L288.537 439.062L271.795 464.014L323.138 496.745C325.763 502.021 329.615 506.539 334.367 509.919Z" fill="#F6A6A9"/>
<path d="M173.406 178.561C156.806 180.663 145.066 195.831 147.214 212.397L162.469 415.845L314.609 498.11L324.7 463.602L216.329 384.349L228.959 225.279C227.657 196.492 202.029 174.943 173.395 178.561H173.406Z" fill="#FF2D54"/>
</svg>
