<svg width="524" height="80" viewBox="0 0 524 80" fill="none" xmlns="http://www.w3.org/2000/svg">
<path d="M6.25 62.25V15.375L9.5625 13.8125H29.375V14.125L27.9062 17.25H12.5V35.6875H29.375V36L27.9062 39.125H12.5V59.4375L6.5625 62.25H6.25ZM51.17 62.25V15.375L57.1075 12.5625H57.42V59.4375L51.4825 62.25H51.17ZM78.59 46.625L84.5275 43.8125H84.84V48.5625C84.84 51.1042 85.59 53.2396 87.09 54.9688C88.9442 57.1146 91.3712 58.1875 94.3712 58.1875C97.3504 58.1875 99.7775 57.1146 101.652 54.9688C103.132 53.2812 103.871 50.3958 103.871 46.3125C103.871 43.1042 103.267 40.7917 102.059 39.375C100.392 37.4167 97.8296 36.4375 94.3712 36.4375C90.3296 36.4375 87.0483 35.3125 84.5275 33.0625C82.4442 31.1875 81.4025 28.5417 81.4025 25.125C81.4025 21.2708 82.6942 18.2917 85.2775 16.1875C87.7358 14.1875 90.7671 13.1875 94.3712 13.1875C97.9754 13.1875 101.007 14.1875 103.465 16.1875C106.048 18.2917 107.34 21.1771 107.34 24.8438L101.402 27.6562H101.09V23.6562C101.09 21.2812 100.413 19.5104 99.0587 18.3438C97.7462 17.1979 96.1837 16.625 94.3712 16.625C92.3504 16.625 90.7254 17.2604 89.4962 18.5312C88.2671 19.8021 87.6525 22.0104 87.6525 25.1562C87.6525 27.9479 88.1212 29.8646 89.0587 30.9062C90.3087 32.3021 92.0796 33 94.3712 33C99.6212 33 103.527 34.1771 106.09 36.5312C108.777 39.0104 110.121 42.25 110.121 46.25C110.121 50.5 108.725 54.1146 105.934 57.0938C103.08 60.1146 99.2254 61.625 94.3712 61.625C89.5171 61.625 85.6629 60.1146 82.8087 57.0938C79.9962 54.1146 78.59 50.625 78.59 46.625ZM131.323 62.25V15.375L137.26 12.5625H137.573V59.4375L131.635 62.25H131.323ZM166.242 48.1875C166.242 50.9792 166.992 53.2396 168.492 54.9688C170.347 57.1146 172.774 58.1875 175.774 58.1875C178.774 58.1875 181.201 57.1146 183.055 54.9688C184.555 53.2396 185.305 50.9792 185.305 48.1875V26.625C185.305 23.8333 184.555 21.5729 183.055 19.8438C181.201 17.6979 178.774 16.625 175.774 16.625C172.774 16.625 170.347 17.6979 168.492 19.8438C166.992 21.5729 166.242 23.8333 166.242 26.625V48.1875ZM159.992 46V28.8125C159.992 24.2917 161.399 20.5938 164.211 17.7188C167.17 14.6979 171.024 13.1875 175.774 13.1875C180.524 13.1875 184.378 14.6979 187.336 17.7188C190.149 20.5729 191.555 24.2708 191.555 28.8125V46C191.555 50.5208 190.149 54.2188 187.336 57.0938C184.378 60.1146 180.524 61.625 175.774 61.625C171.024 61.625 167.17 60.1146 164.211 57.0938C161.399 54.2188 159.992 50.5208 159.992 46ZM216.569 62.25V17.25H203.194V16.9375L204.663 13.8125H236.194V14.125L234.725 17.25H222.819V59.4375L216.881 62.25H216.569ZM249.395 61V15.375L252.708 13.8125H272.52V14.125L271.051 17.25H255.645V35.6875H272.52V36L271.051 39.125H255.645V57.5625H277.739V57.875L276.27 61H249.395ZM295.503 62.25V15.375L298.815 13.8125H310.659C315.409 13.8125 319.263 15.3229 322.221 18.3438C325.034 21.2188 326.44 24.9167 326.44 29.4375C326.44 33.9792 325.034 37.6771 322.221 40.5312C320.555 42.2188 318.607 43.4375 316.378 44.1875L327.19 59.6562L321.69 62.25H321.378L309.346 45.0625H301.753V59.4375L295.815 62.25H295.503ZM301.753 41.625H310.659C313.388 41.625 315.815 40.5521 317.94 38.4062C319.44 36.8854 320.19 33.8958 320.19 29.4375C320.19 25.1875 319.44 22.1979 317.94 20.4688C316.086 18.3229 313.659 17.25 310.659 17.25H301.753V41.625ZM348.047 62.25V28.8125C348.047 24.3125 349.454 20.6146 352.266 17.7188C355.225 14.6979 359.079 13.1875 363.829 13.1875C368.495 13.1875 372.35 14.6979 375.391 17.7188C378.204 20.5104 379.61 24.2083 379.61 28.8125V59.4375L373.672 62.25H373.36V39.125H354.297V59.4375L348.36 62.25H348.047ZM354.297 35.6875H373.36V26.625C373.36 23.8333 372.61 21.5729 371.11 19.8438C369.235 17.6979 366.808 16.625 363.829 16.625C360.829 16.625 358.402 17.6979 356.547 19.8438C355.047 21.5938 354.297 23.8542 354.297 26.625V35.6875ZM408.28 41.625H417.186C419.915 41.625 422.342 40.5521 424.467 38.4062C425.967 36.8854 426.717 33.8958 426.717 29.4375C426.717 25.1875 425.967 22.1979 424.467 20.4688C422.613 18.3229 420.186 17.25 417.186 17.25H408.28V41.625ZM402.03 62.25V15.375L405.342 13.8125H417.186C421.936 13.8125 425.79 15.3229 428.749 18.3438C431.561 21.2188 432.967 24.9167 432.967 29.4375C432.967 33.9792 431.561 37.6771 428.749 40.5312C425.77 43.5521 421.915 45.0625 417.186 45.0625H408.28V59.4375L402.342 62.25H402.03ZM453.825 62.25V15.375L459.763 12.5625H460.075V59.4375L454.138 62.25H453.825ZM482.495 62.25V28.8125C482.495 24.3125 483.901 20.6146 486.714 17.7188C489.672 14.6979 493.526 13.1875 498.276 13.1875C502.943 13.1875 506.797 14.6979 509.839 17.7188C512.651 20.5104 514.057 24.2083 514.057 28.8125V59.4375L508.12 62.25H507.807V39.125H488.745V59.4375L482.807 62.25H482.495ZM488.745 35.6875H507.807V26.625C507.807 23.8333 507.057 21.5729 505.557 19.8438C503.682 17.6979 501.255 16.625 498.276 16.625C495.276 16.625 492.849 17.6979 490.995 19.8438C489.495 21.5938 488.745 23.8542 488.745 26.625V35.6875Z" fill="#FF99A8" fill-opacity="0.46"/>
<path d="M9.25 65.25V18.375L12.5625 16.8125H32.375V17.125L30.9062 20.25H15.5V38.6875H32.375V39L30.9062 42.125H15.5V62.4375L9.5625 65.25H9.25ZM54.17 65.25V18.375L60.1075 15.5625H60.42V62.4375L54.4825 65.25H54.17ZM81.59 49.625L87.5275 46.8125H87.84V51.5625C87.84 54.1042 88.59 56.2396 90.09 57.9688C91.9442 60.1146 94.3712 61.1875 97.3712 61.1875C100.35 61.1875 102.777 60.1146 104.652 57.9688C106.132 56.2812 106.871 53.3958 106.871 49.3125C106.871 46.1042 106.267 43.7917 105.059 42.375C103.392 40.4167 100.83 39.4375 97.3712 39.4375C93.3296 39.4375 90.0483 38.3125 87.5275 36.0625C85.4442 34.1875 84.4025 31.5417 84.4025 28.125C84.4025 24.2708 85.6942 21.2917 88.2775 19.1875C90.7358 17.1875 93.7671 16.1875 97.3712 16.1875C100.975 16.1875 104.007 17.1875 106.465 19.1875C109.048 21.2917 110.34 24.1771 110.34 27.8438L104.402 30.6562H104.09V26.6562C104.09 24.2812 103.413 22.5104 102.059 21.3438C100.746 20.1979 99.1837 19.625 97.3712 19.625C95.3504 19.625 93.7254 20.2604 92.4962 21.5312C91.2671 22.8021 90.6525 25.0104 90.6525 28.1562C90.6525 30.9479 91.1212 32.8646 92.0587 33.9062C93.3087 35.3021 95.0796 36 97.3712 36C102.621 36 106.527 37.1771 109.09 39.5312C111.777 42.0104 113.121 45.25 113.121 49.25C113.121 53.5 111.725 57.1146 108.934 60.0938C106.08 63.1146 102.225 64.625 97.3712 64.625C92.5171 64.625 88.6629 63.1146 85.8087 60.0938C82.9962 57.1146 81.59 53.625 81.59 49.625ZM134.323 65.25V18.375L140.26 15.5625H140.573V62.4375L134.635 65.25H134.323ZM169.242 51.1875C169.242 53.9792 169.992 56.2396 171.492 57.9688C173.347 60.1146 175.774 61.1875 178.774 61.1875C181.774 61.1875 184.201 60.1146 186.055 57.9688C187.555 56.2396 188.305 53.9792 188.305 51.1875V29.625C188.305 26.8333 187.555 24.5729 186.055 22.8438C184.201 20.6979 181.774 19.625 178.774 19.625C175.774 19.625 173.347 20.6979 171.492 22.8438C169.992 24.5729 169.242 26.8333 169.242 29.625V51.1875ZM162.992 49V31.8125C162.992 27.2917 164.399 23.5938 167.211 20.7188C170.17 17.6979 174.024 16.1875 178.774 16.1875C183.524 16.1875 187.378 17.6979 190.336 20.7188C193.149 23.5729 194.555 27.2708 194.555 31.8125V49C194.555 53.5208 193.149 57.2188 190.336 60.0938C187.378 63.1146 183.524 64.625 178.774 64.625C174.024 64.625 170.17 63.1146 167.211 60.0938C164.399 57.2188 162.992 53.5208 162.992 49ZM219.569 65.25V20.25H206.194V19.9375L207.663 16.8125H239.194V17.125L237.725 20.25H225.819V62.4375L219.881 65.25H219.569ZM252.395 64V18.375L255.708 16.8125H275.52V17.125L274.051 20.25H258.645V38.6875H275.52V39L274.051 42.125H258.645V60.5625H280.739V60.875L279.27 64H252.395ZM298.503 65.25V18.375L301.815 16.8125H313.659C318.409 16.8125 322.263 18.3229 325.221 21.3438C328.034 24.2188 329.44 27.9167 329.44 32.4375C329.44 36.9792 328.034 40.6771 325.221 43.5312C323.555 45.2188 321.607 46.4375 319.378 47.1875L330.19 62.6562L324.69 65.25H324.378L312.346 48.0625H304.753V62.4375L298.815 65.25H298.503ZM304.753 44.625H313.659C316.388 44.625 318.815 43.5521 320.94 41.4062C322.44 39.8854 323.19 36.8958 323.19 32.4375C323.19 28.1875 322.44 25.1979 320.94 23.4688C319.086 21.3229 316.659 20.25 313.659 20.25H304.753V44.625ZM351.047 65.25V31.8125C351.047 27.3125 352.454 23.6146 355.266 20.7188C358.225 17.6979 362.079 16.1875 366.829 16.1875C371.495 16.1875 375.35 17.6979 378.391 20.7188C381.204 23.5104 382.61 27.2083 382.61 31.8125V62.4375L376.672 65.25H376.36V42.125H357.297V62.4375L351.36 65.25H351.047ZM357.297 38.6875H376.36V29.625C376.36 26.8333 375.61 24.5729 374.11 22.8438C372.235 20.6979 369.808 19.625 366.829 19.625C363.829 19.625 361.402 20.6979 359.547 22.8438C358.047 24.5938 357.297 26.8542 357.297 29.625V38.6875ZM411.28 44.625H420.186C422.915 44.625 425.342 43.5521 427.467 41.4062C428.967 39.8854 429.717 36.8958 429.717 32.4375C429.717 28.1875 428.967 25.1979 427.467 23.4688C425.613 21.3229 423.186 20.25 420.186 20.25H411.28V44.625ZM405.03 65.25V18.375L408.342 16.8125H420.186C424.936 16.8125 428.79 18.3229 431.749 21.3438C434.561 24.2188 435.967 27.9167 435.967 32.4375C435.967 36.9792 434.561 40.6771 431.749 43.5312C428.77 46.5521 424.915 48.0625 420.186 48.0625H411.28V62.4375L405.342 65.25H405.03ZM456.825 65.25V18.375L462.763 15.5625H463.075V62.4375L457.138 65.25H456.825ZM485.495 65.25V31.8125C485.495 27.3125 486.901 23.6146 489.714 20.7188C492.672 17.6979 496.526 16.1875 501.276 16.1875C505.943 16.1875 509.797 17.6979 512.839 20.7188C515.651 23.5104 517.057 27.2083 517.057 31.8125V62.4375L511.12 65.25H510.807V42.125H491.745V62.4375L485.807 65.25H485.495ZM491.745 38.6875H510.807V29.625C510.807 26.8333 510.057 24.5729 508.557 22.8438C506.682 20.6979 504.255 19.625 501.276 19.625C498.276 19.625 495.849 20.6979 493.995 22.8438C492.495 24.5938 491.745 26.8542 491.745 29.625V38.6875Z" fill="black"/>
</svg>
