<svg width="655" height="81" viewBox="0 0 655 81" fill="none" xmlns="http://www.w3.org/2000/svg">
<path d="M6.25 63.25V29.8125C6.25 25.3125 7.65625 21.6146 10.4688 18.7188C13.4271 15.6979 17.2812 14.1875 22.0312 14.1875C26.3229 14.1875 29.9792 15.6979 33 18.7188C33.75 19.4688 34.3125 20.1979 34.6875 20.9062C35.1667 20.1771 35.75 19.4792 36.4375 18.8125C39.5833 15.7292 43.2188 14.1875 47.3438 14.1875C52.0104 14.1875 55.8646 15.6979 58.9062 18.7188C61.7188 21.5104 63.125 25.2083 63.125 29.8125V60.4375L57.1875 63.25H56.875V27.625C56.875 24.8333 56.125 22.5729 54.625 20.8438C52.7708 18.6979 50.3438 17.625 47.3438 17.625C44.3438 17.625 41.9167 18.6979 40.0625 20.8438C38.5625 22.5729 37.8125 24.8333 37.8125 27.625V60.4375L31.875 63.25H31.5625V27.625C31.5625 24.8333 30.8125 22.5729 29.3125 20.8438C27.4583 18.6979 25.0312 17.625 22.0312 17.625C19.0312 17.625 16.6042 18.6979 14.75 20.8438C13.25 22.5729 12.5 24.8333 12.5 27.625V60.4375L6.5625 63.25H6.25ZM85.545 62V16.375L88.8575 14.8125H108.67V15.125L107.201 18.25H91.795V36.6875H108.67V37L107.201 40.125H91.795V58.5625H113.889V58.875L112.42 62H85.545ZM131.652 63.25V29.8125C131.652 25.3125 133.059 21.6146 135.871 18.7188C138.83 15.6979 142.684 14.1875 147.434 14.1875C152.121 14.1875 155.975 15.6979 158.996 18.7188C161.809 21.5104 163.215 25.2083 163.215 29.8125V60.4375L157.277 63.25H156.965V27.625C156.965 24.8333 156.215 22.5729 154.715 20.8438C152.861 18.6979 150.434 17.625 147.434 17.625C144.434 17.625 142.007 18.6979 140.152 20.8438C138.652 22.5729 137.902 24.8333 137.902 27.625V60.4375L131.965 63.25H131.652ZM188.229 63.25V18.25H174.854V17.9375L176.322 14.8125H207.854V15.125L206.385 18.25H194.479V60.4375L188.541 63.25H188.229ZM221.055 62V16.375L224.367 14.8125H244.18V15.125L242.711 18.25H227.305V36.6875H244.18V37L242.711 40.125H227.305V58.5625H249.399V58.875L247.93 62H221.055ZM302.082 62V16.375L305.395 14.8125H325.207V15.125L323.739 18.25H308.332V36.6875H325.207V37L323.739 40.125H308.332V58.5625H330.426V58.875L328.957 62H302.082ZM389.36 42.625H398.266C400.995 42.625 403.422 41.5521 405.547 39.4062C407.047 37.8854 407.797 34.8958 407.797 30.4375C407.797 26.1875 407.047 23.1979 405.547 21.4688C403.693 19.3229 401.266 18.25 398.266 18.25H389.36V42.625ZM383.11 63.25V16.375L386.422 14.8125H398.266C403.016 14.8125 406.87 16.3229 409.829 19.3438C412.641 22.2188 414.047 25.9167 414.047 30.4375C414.047 34.9792 412.641 38.6771 409.829 41.5312C406.85 44.5521 402.995 46.0625 398.266 46.0625H389.36V60.4375L383.422 63.25H383.11ZM432.092 47.625L438.03 44.8125H438.342V49.5625C438.342 52.1042 439.092 54.2396 440.592 55.9688C442.447 58.1146 444.874 59.1875 447.874 59.1875C450.853 59.1875 453.28 58.1146 455.155 55.9688C456.634 54.2812 457.374 51.3958 457.374 47.3125C457.374 44.1042 456.77 41.7917 455.561 40.375C453.895 38.4167 451.332 37.4375 447.874 37.4375C443.832 37.4375 440.551 36.3125 438.03 34.0625C435.947 32.1875 434.905 29.5417 434.905 26.125C434.905 22.2708 436.197 19.2917 438.78 17.1875C441.238 15.1875 444.27 14.1875 447.874 14.1875C451.478 14.1875 454.509 15.1875 456.967 17.1875C459.551 19.2917 460.842 22.1771 460.842 25.8438L454.905 28.6562H454.592V24.6562C454.592 22.2812 453.915 20.5104 452.561 19.3438C451.249 18.1979 449.686 17.625 447.874 17.625C445.853 17.625 444.228 18.2604 442.999 19.5312C441.77 20.8021 441.155 23.0104 441.155 26.1562C441.155 28.9479 441.624 30.8646 442.561 31.9062C443.811 33.3021 445.582 34 447.874 34C453.124 34 457.03 35.1771 459.592 37.5312C462.28 40.0104 463.624 43.25 463.624 47.25C463.624 51.5 462.228 55.1146 459.436 58.0938C456.582 61.1146 452.728 62.625 447.874 62.625C443.02 62.625 439.165 61.1146 436.311 58.0938C433.499 55.1146 432.092 51.625 432.092 47.625ZM484.825 63.25V16.375L490.763 13.5625H491.075V60.4375L485.138 63.25H484.825ZM543.589 60.6562L538.089 63.25H537.776L536.37 61.2188C534.287 62.1562 531.922 62.625 529.276 62.625C524.526 62.625 520.672 61.1146 517.714 58.0938C514.901 55.2188 513.495 51.5208 513.495 47V29.8125C513.495 25.2917 514.901 21.5938 517.714 18.7188C520.672 15.6979 524.526 14.1875 529.276 14.1875C534.026 14.1875 537.88 15.6979 540.839 18.7188C543.651 21.5729 545.057 25.2708 545.057 29.8125V47C545.057 51.2083 543.828 54.7083 541.37 57.5L543.589 60.6562ZM519.745 49.1875C519.745 51.9792 520.495 54.2396 521.995 55.9688C523.849 58.1146 526.276 59.1875 529.276 59.1875C531.089 59.1875 532.703 58.7917 534.12 58L526.964 47.7812L532.464 45.1875H532.776L538.245 53C538.62 51.8542 538.807 50.5833 538.807 49.1875V27.625C538.807 24.8333 538.057 22.5729 536.557 20.8438C534.703 18.6979 532.276 17.625 529.276 17.625C526.276 17.625 523.849 18.6979 521.995 20.8438C520.495 22.5729 519.745 24.8333 519.745 27.625V49.1875ZM567.477 16.375L573.415 13.5625H573.727V49.1875C573.727 51.9792 574.477 54.2396 575.977 55.9688C577.832 58.1146 580.259 59.1875 583.259 59.1875C586.259 59.1875 588.686 58.1146 590.54 55.9688C592.04 54.2396 592.79 51.9792 592.79 49.1875V16.375L598.727 13.5625H599.04V47C599.04 51.5 597.634 55.1979 594.821 58.0938C591.863 61.1146 588.009 62.625 583.259 62.625C578.571 62.625 574.717 61.1146 571.696 58.0938C568.884 55.3021 567.477 51.6042 567.477 47V16.375ZM621.46 62V16.375L624.773 14.8125H644.585V15.125L643.116 18.25H627.71V36.6875H644.585V37L643.116 40.125H627.71V58.5625H649.804V58.875L648.335 62H621.46ZM624.991 11.3438L629.773 3.1875L635.273 0.5625H635.585L642.241 11.3438L638.616 13.0625H638.304L633.616 6.5625L628.991 13.0625H628.679L624.991 11.3438Z" fill="#FF99A8" fill-opacity="0.46"/>
<path d="M9.25 66.25V32.8125C9.25 28.3125 10.6562 24.6146 13.4688 21.7188C16.4271 18.6979 20.2812 17.1875 25.0312 17.1875C29.3229 17.1875 32.9792 18.6979 36 21.7188C36.75 22.4688 37.3125 23.1979 37.6875 23.9062C38.1667 23.1771 38.75 22.4792 39.4375 21.8125C42.5833 18.7292 46.2188 17.1875 50.3438 17.1875C55.0104 17.1875 58.8646 18.6979 61.9062 21.7188C64.7188 24.5104 66.125 28.2083 66.125 32.8125V63.4375L60.1875 66.25H59.875V30.625C59.875 27.8333 59.125 25.5729 57.625 23.8438C55.7708 21.6979 53.3438 20.625 50.3438 20.625C47.3438 20.625 44.9167 21.6979 43.0625 23.8438C41.5625 25.5729 40.8125 27.8333 40.8125 30.625V63.4375L34.875 66.25H34.5625V30.625C34.5625 27.8333 33.8125 25.5729 32.3125 23.8438C30.4583 21.6979 28.0312 20.625 25.0312 20.625C22.0312 20.625 19.6042 21.6979 17.75 23.8438C16.25 25.5729 15.5 27.8333 15.5 30.625V63.4375L9.5625 66.25H9.25ZM88.545 65V19.375L91.8575 17.8125H111.67V18.125L110.201 21.25H94.795V39.6875H111.67V40L110.201 43.125H94.795V61.5625H116.889V61.875L115.42 65H88.545ZM134.652 66.25V32.8125C134.652 28.3125 136.059 24.6146 138.871 21.7188C141.83 18.6979 145.684 17.1875 150.434 17.1875C155.121 17.1875 158.975 18.6979 161.996 21.7188C164.809 24.5104 166.215 28.2083 166.215 32.8125V63.4375L160.277 66.25H159.965V30.625C159.965 27.8333 159.215 25.5729 157.715 23.8438C155.861 21.6979 153.434 20.625 150.434 20.625C147.434 20.625 145.007 21.6979 143.152 23.8438C141.652 25.5729 140.902 27.8333 140.902 30.625V63.4375L134.965 66.25H134.652ZM191.229 66.25V21.25H177.854V20.9375L179.322 17.8125H210.854V18.125L209.385 21.25H197.479V63.4375L191.541 66.25H191.229ZM224.055 65V19.375L227.367 17.8125H247.18V18.125L245.711 21.25H230.305V39.6875H247.18V40L245.711 43.125H230.305V61.5625H252.399V61.875L250.93 65H224.055ZM305.082 65V19.375L308.395 17.8125H328.207V18.125L326.739 21.25H311.332V39.6875H328.207V40L326.739 43.125H311.332V61.5625H333.426V61.875L331.957 65H305.082ZM392.36 45.625H401.266C403.995 45.625 406.422 44.5521 408.547 42.4062C410.047 40.8854 410.797 37.8958 410.797 33.4375C410.797 29.1875 410.047 26.1979 408.547 24.4688C406.693 22.3229 404.266 21.25 401.266 21.25H392.36V45.625ZM386.11 66.25V19.375L389.422 17.8125H401.266C406.016 17.8125 409.87 19.3229 412.829 22.3438C415.641 25.2188 417.047 28.9167 417.047 33.4375C417.047 37.9792 415.641 41.6771 412.829 44.5312C409.85 47.5521 405.995 49.0625 401.266 49.0625H392.36V63.4375L386.422 66.25H386.11ZM435.092 50.625L441.03 47.8125H441.342V52.5625C441.342 55.1042 442.092 57.2396 443.592 58.9688C445.447 61.1146 447.874 62.1875 450.874 62.1875C453.853 62.1875 456.28 61.1146 458.155 58.9688C459.634 57.2812 460.374 54.3958 460.374 50.3125C460.374 47.1042 459.77 44.7917 458.561 43.375C456.895 41.4167 454.332 40.4375 450.874 40.4375C446.832 40.4375 443.551 39.3125 441.03 37.0625C438.947 35.1875 437.905 32.5417 437.905 29.125C437.905 25.2708 439.197 22.2917 441.78 20.1875C444.238 18.1875 447.27 17.1875 450.874 17.1875C454.478 17.1875 457.509 18.1875 459.967 20.1875C462.551 22.2917 463.842 25.1771 463.842 28.8438L457.905 31.6562H457.592V27.6562C457.592 25.2812 456.915 23.5104 455.561 22.3438C454.249 21.1979 452.686 20.625 450.874 20.625C448.853 20.625 447.228 21.2604 445.999 22.5312C444.77 23.8021 444.155 26.0104 444.155 29.1562C444.155 31.9479 444.624 33.8646 445.561 34.9062C446.811 36.3021 448.582 37 450.874 37C456.124 37 460.03 38.1771 462.592 40.5312C465.28 43.0104 466.624 46.25 466.624 50.25C466.624 54.5 465.228 58.1146 462.436 61.0938C459.582 64.1146 455.728 65.625 450.874 65.625C446.02 65.625 442.165 64.1146 439.311 61.0938C436.499 58.1146 435.092 54.625 435.092 50.625ZM487.825 66.25V19.375L493.763 16.5625H494.075V63.4375L488.138 66.25H487.825ZM546.589 63.6562L541.089 66.25H540.776L539.37 64.2188C537.287 65.1562 534.922 65.625 532.276 65.625C527.526 65.625 523.672 64.1146 520.714 61.0938C517.901 58.2188 516.495 54.5208 516.495 50V32.8125C516.495 28.2917 517.901 24.5938 520.714 21.7188C523.672 18.6979 527.526 17.1875 532.276 17.1875C537.026 17.1875 540.88 18.6979 543.839 21.7188C546.651 24.5729 548.057 28.2708 548.057 32.8125V50C548.057 54.2083 546.828 57.7083 544.37 60.5L546.589 63.6562ZM522.745 52.1875C522.745 54.9792 523.495 57.2396 524.995 58.9688C526.849 61.1146 529.276 62.1875 532.276 62.1875C534.089 62.1875 535.703 61.7917 537.12 61L529.964 50.7812L535.464 48.1875H535.776L541.245 56C541.62 54.8542 541.807 53.5833 541.807 52.1875V30.625C541.807 27.8333 541.057 25.5729 539.557 23.8438C537.703 21.6979 535.276 20.625 532.276 20.625C529.276 20.625 526.849 21.6979 524.995 23.8438C523.495 25.5729 522.745 27.8333 522.745 30.625V52.1875ZM570.477 19.375L576.415 16.5625H576.727V52.1875C576.727 54.9792 577.477 57.2396 578.977 58.9688C580.832 61.1146 583.259 62.1875 586.259 62.1875C589.259 62.1875 591.686 61.1146 593.54 58.9688C595.04 57.2396 595.79 54.9792 595.79 52.1875V19.375L601.727 16.5625H602.04V50C602.04 54.5 600.634 58.1979 597.821 61.0938C594.863 64.1146 591.009 65.625 586.259 65.625C581.571 65.625 577.717 64.1146 574.696 61.0938C571.884 58.3021 570.477 54.6042 570.477 50V19.375ZM624.46 65V19.375L627.773 17.8125H647.585V18.125L646.116 21.25H630.71V39.6875H647.585V40L646.116 43.125H630.71V61.5625H652.804V61.875L651.335 65H624.46ZM627.991 14.3438L632.773 6.1875L638.273 3.5625H638.585L645.241 14.3438L641.616 16.0625H641.304L636.616 9.5625L631.991 16.0625H631.679L627.991 14.3438Z" fill="black"/>
</svg>
