<svg width="329" height="80" viewBox="0 0 329 80" fill="none" xmlns="http://www.w3.org/2000/svg">
<path d="M6.25 62.25V28.8125C6.25 24.3125 7.65625 20.6146 10.4688 17.7188C13.4271 14.6979 17.2812 13.1875 22.0312 13.1875C26.7188 13.1875 30.5729 14.6979 33.5938 17.7188C36.4062 20.5104 37.8125 24.2083 37.8125 28.8125V59.4375L31.875 62.25H31.5625V26.625C31.5625 23.8333 30.8125 21.5729 29.3125 19.8438C27.4583 17.6979 25.0312 16.625 22.0312 16.625C19.0312 16.625 16.6042 17.6979 14.75 19.8438C13.25 21.5729 12.5 23.8333 12.5 26.625V59.4375L6.5625 62.25H6.25ZM60.2325 15.375L66.17 12.5625H66.4825V48.1875C66.4825 50.9792 67.2325 53.2396 68.7325 54.9688C70.5867 57.1146 73.0137 58.1875 76.0137 58.1875C79.0137 58.1875 81.4408 57.1146 83.295 54.9688C84.795 53.2396 85.545 50.9792 85.545 48.1875V15.375L91.4825 12.5625H91.795V46C91.795 50.5 90.3887 54.1979 87.5762 57.0938C84.6179 60.1146 80.7637 61.625 76.0137 61.625C71.3262 61.625 67.4721 60.1146 64.4512 57.0938C61.6387 54.3021 60.2325 50.6042 60.2325 46V15.375ZM118.371 62.25V17.25H104.996V16.9375L106.465 13.8125H137.996V14.125L136.527 17.25H124.621V59.4375L118.684 62.25H118.371ZM151.197 62.25V15.375L157.135 12.5625H157.447V59.4375L151.51 62.25H151.197ZM211.43 43.8125V46C211.43 50.5208 210.024 54.2188 207.211 57.0938C204.732 59.6354 201.617 61.1042 197.867 61.5C199.388 63.2917 200.149 65.2708 200.149 67.4375C200.149 70.2917 199.013 72.8333 196.742 75.0625H196.43L190.492 72.25C193.284 70.4375 194.68 68.2708 194.68 65.75C194.68 64.3958 194.19 62.9688 193.211 61.4688C189.565 61.0312 186.524 59.5729 184.086 57.0938C181.274 54.2396 179.867 50.5417 179.867 46V28.8125C179.867 24.2917 181.274 20.5938 184.086 17.7188C187.045 14.6979 190.899 13.1875 195.649 13.1875C200.565 13.1875 204.42 14.6979 207.211 17.7188C210.024 20.7396 211.43 24.2292 211.43 28.1875L205.492 31H205.18V26.625C205.18 23.8333 204.43 21.5729 202.93 19.8438C201.076 17.6979 198.649 16.625 195.649 16.625C192.649 16.625 190.222 17.6979 188.367 19.8438C186.867 21.5729 186.117 23.8333 186.117 26.625V48.1875C186.117 50.9792 186.867 53.2396 188.367 54.9688C190.222 57.1146 192.649 58.1875 195.649 58.1875C198.649 58.1875 201.076 57.1146 202.93 54.9688C204.43 53.2396 205.18 50.4583 205.18 46.625L211.117 43.8125H211.43ZM233.85 62.25V28.8125C233.85 24.3125 235.256 20.6146 238.069 17.7188C241.027 14.6979 244.881 13.1875 249.631 13.1875C254.298 13.1875 258.152 14.6979 261.194 17.7188C264.006 20.5104 265.413 24.2083 265.413 28.8125V59.4375L259.475 62.25H259.163V39.125H240.1V59.4375L234.163 62.25H233.85ZM240.1 35.6875H259.163V26.625C259.163 23.8333 258.413 21.5729 256.913 19.8438C255.038 17.6979 252.61 16.625 249.631 16.625C246.631 16.625 244.204 17.6979 242.35 19.8438C240.85 21.5938 240.1 23.8542 240.1 26.625V35.6875ZM242.319 9.8125C242.319 3.85417 243.788 0.875 246.725 0.875C248.058 0.875 249.485 1.60417 251.006 3.0625C252.069 4.08333 252.85 4.59375 253.35 4.59375C254.058 4.59375 254.413 3.84375 254.413 2.34375L257.85 0.875H258.038C258.038 6.83333 256.569 9.8125 253.631 9.8125C252.298 9.8125 250.871 9.08333 249.35 7.625C248.288 6.60417 247.506 6.09375 247.006 6.09375C246.298 6.09375 245.944 6.84375 245.944 8.34375L242.506 9.8125H242.319ZM294.082 48.1875C294.082 50.9792 294.832 53.2396 296.332 54.9688C298.187 57.1146 300.614 58.1875 303.614 58.1875C306.614 58.1875 309.041 57.1146 310.895 54.9688C312.395 53.2396 313.145 50.9792 313.145 48.1875V26.625C313.145 23.8333 312.395 21.5729 310.895 19.8438C309.041 17.6979 306.614 16.625 303.614 16.625C300.614 16.625 298.187 17.6979 296.332 19.8438C294.832 21.5729 294.082 23.8333 294.082 26.625V48.1875ZM287.832 46V28.8125C287.832 24.2917 289.239 20.5938 292.051 17.7188C295.01 14.6979 298.864 13.1875 303.614 13.1875C308.364 13.1875 312.218 14.6979 315.176 17.7188C317.989 20.5729 319.395 24.2708 319.395 28.8125V46C319.395 50.5208 317.989 54.2188 315.176 57.0938C312.218 60.1146 308.364 61.625 303.614 61.625C298.864 61.625 295.01 60.1146 292.051 57.0938C289.239 54.2188 287.832 50.5208 287.832 46Z" fill="#FF99A8" fill-opacity="0.46"/>
<path d="M9.25 65.25V31.8125C9.25 27.3125 10.6562 23.6146 13.4688 20.7188C16.4271 17.6979 20.2812 16.1875 25.0312 16.1875C29.7188 16.1875 33.5729 17.6979 36.5938 20.7188C39.4062 23.5104 40.8125 27.2083 40.8125 31.8125V62.4375L34.875 65.25H34.5625V29.625C34.5625 26.8333 33.8125 24.5729 32.3125 22.8438C30.4583 20.6979 28.0312 19.625 25.0312 19.625C22.0312 19.625 19.6042 20.6979 17.75 22.8438C16.25 24.5729 15.5 26.8333 15.5 29.625V62.4375L9.5625 65.25H9.25ZM63.2325 18.375L69.17 15.5625H69.4825V51.1875C69.4825 53.9792 70.2325 56.2396 71.7325 57.9688C73.5867 60.1146 76.0137 61.1875 79.0137 61.1875C82.0137 61.1875 84.4408 60.1146 86.295 57.9688C87.795 56.2396 88.545 53.9792 88.545 51.1875V18.375L94.4825 15.5625H94.795V49C94.795 53.5 93.3887 57.1979 90.5762 60.0938C87.6179 63.1146 83.7637 64.625 79.0137 64.625C74.3262 64.625 70.4721 63.1146 67.4512 60.0938C64.6387 57.3021 63.2325 53.6042 63.2325 49V18.375ZM121.371 65.25V20.25H107.996V19.9375L109.465 16.8125H140.996V17.125L139.527 20.25H127.621V62.4375L121.684 65.25H121.371ZM154.197 65.25V18.375L160.135 15.5625H160.447V62.4375L154.51 65.25H154.197ZM214.43 46.8125V49C214.43 53.5208 213.024 57.2188 210.211 60.0938C207.732 62.6354 204.617 64.1042 200.867 64.5C202.388 66.2917 203.149 68.2708 203.149 70.4375C203.149 73.2917 202.013 75.8333 199.742 78.0625H199.43L193.492 75.25C196.284 73.4375 197.68 71.2708 197.68 68.75C197.68 67.3958 197.19 65.9688 196.211 64.4688C192.565 64.0312 189.524 62.5729 187.086 60.0938C184.274 57.2396 182.867 53.5417 182.867 49V31.8125C182.867 27.2917 184.274 23.5938 187.086 20.7188C190.045 17.6979 193.899 16.1875 198.649 16.1875C203.565 16.1875 207.42 17.6979 210.211 20.7188C213.024 23.7396 214.43 27.2292 214.43 31.1875L208.492 34H208.18V29.625C208.18 26.8333 207.43 24.5729 205.93 22.8438C204.076 20.6979 201.649 19.625 198.649 19.625C195.649 19.625 193.222 20.6979 191.367 22.8438C189.867 24.5729 189.117 26.8333 189.117 29.625V51.1875C189.117 53.9792 189.867 56.2396 191.367 57.9688C193.222 60.1146 195.649 61.1875 198.649 61.1875C201.649 61.1875 204.076 60.1146 205.93 57.9688C207.43 56.2396 208.18 53.4583 208.18 49.625L214.117 46.8125H214.43ZM236.85 65.25V31.8125C236.85 27.3125 238.256 23.6146 241.069 20.7188C244.027 17.6979 247.881 16.1875 252.631 16.1875C257.298 16.1875 261.152 17.6979 264.194 20.7188C267.006 23.5104 268.413 27.2083 268.413 31.8125V62.4375L262.475 65.25H262.163V42.125H243.1V62.4375L237.163 65.25H236.85ZM243.1 38.6875H262.163V29.625C262.163 26.8333 261.413 24.5729 259.913 22.8438C258.038 20.6979 255.61 19.625 252.631 19.625C249.631 19.625 247.204 20.6979 245.35 22.8438C243.85 24.5938 243.1 26.8542 243.1 29.625V38.6875ZM245.319 12.8125C245.319 6.85417 246.788 3.875 249.725 3.875C251.058 3.875 252.485 4.60417 254.006 6.0625C255.069 7.08333 255.85 7.59375 256.35 7.59375C257.058 7.59375 257.413 6.84375 257.413 5.34375L260.85 3.875H261.038C261.038 9.83333 259.569 12.8125 256.631 12.8125C255.298 12.8125 253.871 12.0833 252.35 10.625C251.288 9.60417 250.506 9.09375 250.006 9.09375C249.298 9.09375 248.944 9.84375 248.944 11.3438L245.506 12.8125H245.319ZM297.082 51.1875C297.082 53.9792 297.832 56.2396 299.332 57.9688C301.187 60.1146 303.614 61.1875 306.614 61.1875C309.614 61.1875 312.041 60.1146 313.895 57.9688C315.395 56.2396 316.145 53.9792 316.145 51.1875V29.625C316.145 26.8333 315.395 24.5729 313.895 22.8438C312.041 20.6979 309.614 19.625 306.614 19.625C303.614 19.625 301.187 20.6979 299.332 22.8438C297.832 24.5729 297.082 26.8333 297.082 29.625V51.1875ZM290.832 49V31.8125C290.832 27.2917 292.239 23.5938 295.051 20.7188C298.01 17.6979 301.864 16.1875 306.614 16.1875C311.364 16.1875 315.218 17.6979 318.176 20.7188C320.989 23.5729 322.395 27.2708 322.395 31.8125V49C322.395 53.5208 320.989 57.2188 318.176 60.0938C315.218 63.1146 311.364 64.625 306.614 64.625C301.864 64.625 298.01 63.1146 295.051 60.0938C292.239 57.2188 290.832 53.5208 290.832 49Z" fill="black"/>
</svg>
