<svg width="830" height="628" viewBox="0 0 830 628" fill="none" xmlns="http://www.w3.org/2000/svg">
<g clip-path="url(#clip0_147_423)">
<path d="M390.043 527.192C390.043 527.192 400.606 509.84 414.169 520.099C427.731 530.359 452.848 547.67 452.848 547.67C452.848 547.67 457.992 558.743 444.678 554.584C431.363 550.425 387.897 543.732 387.897 543.732L390.043 527.192Z" fill="#FEB8B8"/>
<path d="M94.8241 416.991C98.1905 389.888 114.967 363.184 140.783 354.365C130.602 382.261 130.604 412.863 140.789 440.758C144.756 451.501 150.285 463.037 146.554 473.865C144.232 480.603 138.553 485.757 132.204 488.98C125.855 492.203 118.809 493.74 111.851 495.245L110.482 496.379C99.436 471.407 91.4577 444.093 94.8241 416.991Z" fill="#F0F0F0"/>
<path d="M141.039 354.877C126.005 371.743 116.661 392.923 114.334 415.408C113.747 420.24 113.925 425.134 114.86 429.91C115.921 434.534 118.2 438.788 121.459 442.232C124.433 445.503 127.854 448.505 129.982 452.444C131.041 454.476 131.66 456.71 131.797 458.998C131.933 461.287 131.585 463.578 130.776 465.723C128.897 471.118 125.194 475.516 121.423 479.691C117.236 484.326 112.814 489.074 111.035 495.219C110.819 495.964 109.678 495.585 109.893 494.842C112.989 484.151 123.355 478.078 128.299 468.448C130.605 463.955 131.574 458.738 129.411 453.995C127.52 449.847 123.995 446.748 120.955 443.462C117.727 440.149 115.357 436.096 114.054 431.655C112.879 426.942 112.514 422.062 112.973 417.226C113.835 406.322 116.403 395.622 120.585 385.516C125.293 373.957 131.942 363.289 140.243 353.974C140.757 353.398 141.55 354.304 141.039 354.877Z" fill="white"/>
<path d="M114.657 408.124C110.942 407.221 107.669 405.025 105.422 401.929C103.174 398.832 102.099 395.037 102.389 391.22C102.45 390.448 103.652 390.507 103.59 391.28C103.314 394.834 104.315 398.369 106.414 401.248C108.513 404.127 111.57 406.16 115.034 406.981C115.787 407.16 115.406 408.302 114.657 408.124Z" fill="white"/>
<path d="M119.732 440.772C126.442 436.76 131.395 430.364 133.604 422.859C133.823 422.115 134.964 422.494 134.746 423.237C132.433 431.042 127.265 437.688 120.273 441.847C119.607 442.243 119.069 441.165 119.732 440.772Z" fill="white"/>
<path d="M126.409 375.097C127.773 375.746 129.278 376.046 130.787 375.97C132.296 375.893 133.762 375.442 135.054 374.658C135.715 374.254 136.252 375.331 135.595 375.733C134.163 376.593 132.543 377.089 130.876 377.177C129.209 377.265 127.546 376.944 126.032 376.24C125.883 376.186 125.761 376.077 125.69 375.936C125.619 375.795 125.605 375.632 125.649 375.48C125.7 375.329 125.808 375.204 125.95 375.132C126.093 375.061 126.257 375.048 126.409 375.097Z" fill="white"/>
<path d="M219.474 402.773C219.068 403.037 218.662 403.301 218.256 403.575C212.819 407.155 207.682 411.171 202.894 415.583C202.519 415.919 202.143 416.264 201.778 416.609C190.357 427.363 181.03 440.147 174.271 454.31C171.586 459.948 169.334 465.783 167.533 471.763C165.047 480.023 163.008 489.176 158.086 495.932C157.581 496.642 157.032 497.321 156.443 497.964H111.969C111.868 497.913 111.767 497.872 111.665 497.821L109.89 497.903C109.961 497.588 110.042 497.263 110.113 496.948C110.154 496.765 110.204 496.582 110.245 496.399C110.275 496.277 110.306 496.155 110.326 496.043C110.336 496.003 110.346 495.962 110.356 495.932C110.377 495.82 110.407 495.718 110.428 495.617C110.874 493.798 111.334 491.98 111.807 490.161C111.807 490.151 111.807 490.151 111.817 490.141C115.46 476.294 120.29 462.63 127.037 450.135C127.24 449.759 127.443 449.373 127.667 448.997C130.739 443.381 134.265 438.026 138.209 432.986C140.378 430.233 142.684 427.592 145.119 425.072C151.424 418.574 158.71 413.109 166.711 408.878C182.662 400.446 201.129 397.216 218.175 402.367C218.611 402.499 219.038 402.631 219.474 402.773Z" fill="#F0F0F0"/>
<path d="M219.374 403.338C197.228 407.742 177.031 419.02 161.652 435.571C158.278 439.075 155.476 443.09 153.351 447.467C151.418 451.799 150.679 456.569 151.211 461.283C151.618 465.688 152.544 470.147 151.875 474.575C151.499 476.836 150.649 478.992 149.383 480.902C148.116 482.812 146.46 484.432 144.524 485.656C139.779 488.831 134.178 490.11 128.657 491.17C122.526 492.348 116.141 493.473 111.024 497.307C110.404 497.772 109.721 496.781 110.34 496.318C119.241 489.647 131.17 491.047 140.907 486.338C145.451 484.141 149.361 480.56 150.487 475.469C151.471 471.017 150.52 466.418 150.069 461.962C149.483 457.371 150.029 452.706 151.659 448.375C153.555 443.903 156.197 439.787 159.472 436.203C166.717 428.016 175.203 421.02 184.618 415.472C195.328 409.081 207.052 404.571 219.282 402.138C220.039 401.987 220.126 403.189 219.374 403.338Z" fill="white"/>
<path d="M166.29 429.95C163.867 426.989 162.574 423.263 162.642 419.436C162.709 415.609 164.133 411.931 166.66 409.058C167.173 408.478 168.097 409.25 167.583 409.83C165.225 412.501 163.899 415.927 163.843 419.491C163.788 423.055 165.006 426.521 167.279 429.264C167.772 429.861 166.781 430.543 166.29 429.95Z" fill="white"/>
<path d="M150.71 459.077C158.48 459.919 166.281 457.798 172.558 453.137C173.179 452.674 173.863 453.664 173.242 454.126C166.701 458.964 158.579 461.155 150.496 460.261C149.725 460.175 149.944 458.991 150.71 459.077Z" fill="white"/>
<path d="M195.533 410.664C196.233 412.005 197.253 413.151 198.504 413.999C199.755 414.848 201.197 415.372 202.7 415.524C203.472 415.6 203.252 416.784 202.486 416.709C200.826 416.532 199.234 415.952 197.85 415.017C196.466 414.083 195.331 412.824 194.545 411.349C194.459 411.216 194.427 411.056 194.456 410.9C194.484 410.745 194.57 410.606 194.697 410.512C194.828 410.422 194.99 410.387 195.146 410.415C195.303 410.444 195.442 410.533 195.533 410.664Z" fill="white"/>
<path d="M453.502 596.619C454.807 586.115 461.308 575.766 471.313 572.348C467.368 583.159 467.369 595.019 471.316 605.83C472.853 609.993 474.996 614.464 473.55 618.66C472.514 621.254 470.524 623.351 467.989 624.518C465.474 625.662 462.823 626.478 460.101 626.946L459.57 627.386C455.289 617.708 452.197 607.122 453.502 596.619Z" fill="#F0F0F0"/>
<path d="M471.413 572.546C465.586 579.083 461.965 587.291 461.063 596.006C460.836 597.878 460.905 599.775 461.267 601.626C461.678 603.418 462.561 605.067 463.825 606.401C465.082 607.582 466.191 608.91 467.128 610.359C467.538 611.146 467.778 612.012 467.831 612.899C467.884 613.786 467.749 614.674 467.435 615.505C466.601 617.534 465.369 619.375 463.811 620.918C462.188 622.715 460.474 624.555 459.785 626.937C459.701 627.225 459.259 627.078 459.342 626.79C460.542 622.647 464.559 620.293 466.475 616.561C466.969 615.722 467.265 614.781 467.339 613.811C467.414 612.84 467.266 611.865 466.906 610.96C466.038 609.433 464.931 608.055 463.629 606.878C462.378 605.594 461.46 604.023 460.955 602.302C460.499 600.475 460.358 598.584 460.536 596.71C460.87 592.484 461.865 588.337 463.486 584.421C465.311 579.941 467.887 575.806 471.105 572.196C471.304 571.973 471.611 572.325 471.413 572.546Z" fill="white"/>
<path d="M461.189 593.182C459.749 592.832 458.48 591.981 457.609 590.781C456.738 589.581 456.322 588.11 456.434 586.631C456.458 586.332 456.923 586.355 456.899 586.654C456.792 588.032 457.181 589.402 457.994 590.518C458.807 591.633 459.992 592.421 461.335 592.739C461.626 592.809 461.479 593.251 461.189 593.182Z" fill="white"/>
<path d="M463.155 605.835C465.756 604.281 467.675 601.802 468.531 598.893C468.616 598.605 469.058 598.751 468.974 599.039C468.077 602.065 466.075 604.64 463.365 606.252C463.107 606.405 462.898 605.988 463.155 605.835Z" fill="white"/>
<path d="M465.743 580.383C466.272 580.634 466.855 580.751 467.44 580.721C468.024 580.691 468.593 580.517 469.093 580.213C469.35 580.056 469.558 580.474 469.303 580.629C468.748 580.962 468.12 581.155 467.474 581.189C466.828 581.223 466.184 581.098 465.597 580.826C465.539 580.805 465.492 580.763 465.464 580.708C465.437 580.653 465.431 580.59 465.449 580.531C465.468 580.473 465.51 580.424 465.565 580.396C465.62 580.369 465.684 580.364 465.743 580.383Z" fill="white"/>
<path d="M501.81 591.108C501.653 591.211 501.496 591.313 501.339 591.42C499.231 592.807 497.24 594.363 495.385 596.073C495.239 596.203 495.094 596.337 494.952 596.471C490.526 600.639 486.912 605.593 484.292 611.082C483.251 613.267 482.378 615.528 481.681 617.846C480.717 621.047 479.927 624.594 478.02 627.212C477.824 627.488 477.611 627.751 477.382 628H460.147C460.108 627.98 460.068 627.964 460.029 627.945L459.341 627.976C459.368 627.854 459.4 627.728 459.427 627.606C459.443 627.535 459.463 627.464 459.478 627.394C459.49 627.346 459.502 627.299 459.51 627.256C459.514 627.24 459.518 627.224 459.522 627.212C459.529 627.169 459.541 627.13 459.549 627.09C459.722 626.386 459.9 625.681 460.084 624.976L460.088 624.968C461.435 619.585 463.415 614.38 465.986 609.464C466.065 609.318 466.144 609.168 466.23 609.023C467.421 606.846 468.787 604.771 470.316 602.818C471.156 601.751 472.05 600.727 472.994 599.751C475.437 597.232 478.261 595.114 481.362 593.475C487.544 590.207 494.701 588.955 501.307 590.951C501.476 591.002 501.641 591.053 501.81 591.108Z" fill="#F0F0F0"/>
<path d="M501.772 591.328C493.189 593.034 485.362 597.405 479.401 603.82C478.094 605.178 477.008 606.734 476.184 608.43C475.435 610.109 475.149 611.957 475.355 613.784C475.649 615.485 475.735 617.214 475.612 618.936C475.466 619.812 475.137 620.648 474.646 621.388C474.155 622.128 473.514 622.756 472.763 623.23C470.877 624.348 468.786 625.074 466.614 625.367C464.238 625.824 461.763 626.26 459.781 627.746C459.54 627.926 459.275 627.542 459.515 627.362C462.965 624.777 467.588 625.319 471.362 623.495C472.26 623.122 473.062 622.549 473.706 621.819C474.349 621.089 474.817 620.221 475.074 619.282C475.298 617.54 475.244 615.773 474.912 614.047C474.685 612.268 474.897 610.46 475.529 608.782C476.263 607.049 477.287 605.453 478.557 604.064C481.364 600.891 484.653 598.18 488.302 596.03C492.453 593.553 496.996 591.805 501.736 590.862C502.029 590.804 502.063 591.27 501.772 591.328Z" fill="white"/>
<path d="M481.199 601.641C480.26 600.494 479.759 599.05 479.785 597.567C479.811 596.083 480.363 594.658 481.342 593.544C481.541 593.32 481.899 593.619 481.7 593.844C480.786 594.879 480.272 596.207 480.251 597.588C480.229 598.969 480.701 600.312 481.582 601.376C481.773 601.607 481.389 601.871 481.199 601.641Z" fill="white"/>
<path d="M475.161 612.929C478.172 613.255 481.195 612.433 483.628 610.627C483.869 610.448 484.134 610.832 483.893 611.011C481.358 612.886 478.21 613.735 475.078 613.388C474.779 613.355 474.864 612.896 475.161 612.929Z" fill="white"/>
<path d="M492.532 594.167C492.803 594.686 493.199 595.131 493.684 595.459C494.168 595.788 494.727 595.991 495.31 596.05C495.609 596.08 495.523 596.539 495.227 596.509C494.583 596.441 493.966 596.216 493.43 595.854C492.893 595.492 492.454 595.004 492.149 594.432C492.116 594.381 492.104 594.319 492.114 594.258C492.125 594.198 492.159 594.144 492.208 594.108C492.259 594.073 492.321 594.059 492.382 594.07C492.443 594.081 492.497 594.116 492.532 594.167Z" fill="white"/>
<path d="M749.626 373.505C744.452 331.847 718.666 290.801 678.986 277.245C694.634 320.123 694.631 367.16 678.976 410.036C672.879 426.549 664.38 444.28 670.115 460.923C673.683 471.279 682.413 479.202 692.171 484.156C701.93 489.11 712.76 491.471 723.455 493.785L725.56 495.528C742.538 457.145 754.801 415.162 749.626 373.505Z" fill="#F0F0F0"/>
<path d="M678.592 278.032C701.7 303.956 716.062 336.511 719.639 371.072C720.36 378.481 720.448 386.06 718.83 393.363C717.199 400.469 713.697 407.008 708.687 412.301C704.116 417.33 698.858 421.944 695.587 427.998C692.139 434.379 692.007 441.63 694.367 448.408C697.255 456.701 702.947 463.461 708.743 469.877C715.178 477.002 721.975 484.3 724.71 493.746C725.041 494.89 726.796 494.308 726.465 493.165C721.705 476.732 705.773 467.398 698.174 452.597C694.629 445.69 693.14 437.672 696.464 430.381C699.371 424.006 704.789 419.243 709.462 414.192C714.368 408.887 718.13 403.067 720.068 396.044C722.051 388.86 722.259 381.262 721.73 373.867C720.406 357.107 716.458 340.659 710.031 325.127C702.794 307.359 692.574 290.962 679.815 276.645C679.025 275.759 677.807 277.152 678.592 278.032Z" fill="white"/>
<path d="M719.141 359.876C724.852 358.488 729.883 355.113 733.337 350.353C736.791 345.594 738.443 339.76 737.998 333.894C737.904 332.707 736.058 332.798 736.152 333.986C736.577 339.448 735.037 344.882 731.812 349.308C728.586 353.733 723.887 356.858 718.562 358.119C717.405 358.394 717.991 360.15 719.141 359.876Z" fill="white"/>
<path d="M711.341 410.057C701.028 403.891 693.414 394.061 690.019 382.525C689.684 381.381 687.929 381.963 688.264 383.105C691.82 395.103 699.763 405.317 710.51 411.709C711.534 412.318 712.36 410.662 711.341 410.057Z" fill="white"/>
<path d="M701.079 309.112C698.982 310.11 696.669 310.571 694.35 310.453C692.031 310.335 689.777 309.642 687.791 308.437C686.774 307.815 685.95 309.472 686.96 310.089C689.16 311.411 691.65 312.173 694.212 312.309C696.775 312.445 699.331 311.95 701.659 310.869C701.887 310.785 702.074 310.618 702.183 310.401C702.293 310.184 702.315 309.933 702.246 309.7C702.169 309.468 702.002 309.276 701.784 309.166C701.565 309.056 701.312 309.036 701.079 309.112Z" fill="white"/>
<path d="M558.034 351.651C558.657 352.057 559.281 352.463 559.905 352.885C568.262 358.387 576.159 364.559 583.517 371.341C584.094 371.857 584.672 372.388 585.233 372.919C602.787 389.448 617.123 409.097 627.513 430.866C631.64 439.532 635.102 448.5 637.869 457.693C641.691 470.388 644.825 484.457 652.389 494.841C653.166 495.933 654.01 496.976 654.916 497.964H723.273C723.428 497.885 723.585 497.823 723.741 497.745L726.47 497.87C726.36 497.386 726.236 496.886 726.126 496.402C726.064 496.121 725.986 495.84 725.924 495.559C725.877 495.372 725.83 495.184 725.799 495.012C725.784 494.95 725.768 494.887 725.753 494.841C725.721 494.669 725.674 494.513 725.643 494.357C724.957 491.561 724.25 488.766 723.522 485.971C723.522 485.956 723.522 485.956 723.507 485.94C717.907 464.657 710.484 443.655 700.113 424.448C699.801 423.87 699.489 423.277 699.146 422.699C694.423 414.068 689.003 405.837 682.941 398.09C679.608 393.858 676.063 389.799 672.32 385.926C662.63 375.938 651.43 367.539 639.133 361.036C614.615 348.075 586.231 343.11 560.03 351.026C559.359 351.229 558.704 351.432 558.034 351.651Z" fill="#F0F0F0"/>
<path d="M558.187 352.52C592.227 359.288 623.27 376.624 646.909 402.063C651.94 407.544 656.567 413.542 659.667 420.348C662.638 427.006 663.774 434.338 662.957 441.584C662.331 448.355 660.907 455.208 661.936 462.014C663.021 469.187 667.275 475.056 673.235 479.045C680.528 483.926 689.138 485.892 697.624 487.522C707.046 489.331 716.862 491.061 724.726 496.954C725.678 497.668 726.729 496.146 725.778 495.433C712.096 485.181 693.761 487.332 678.794 480.095C671.81 476.718 665.8 471.213 664.07 463.388C662.557 456.545 664.019 449.477 664.712 442.626C665.44 435.433 664.944 428.519 662.268 421.743C659.531 414.812 655.128 408.62 650.259 403.034C639.123 390.45 626.081 379.698 611.609 371.17C595.146 361.346 577.126 354.414 558.329 350.674C557.166 350.443 557.031 352.29 558.187 352.52Z" fill="white"/>
<path d="M639.779 393.423C643.504 388.873 645.491 383.145 645.387 377.263C645.283 371.381 643.094 365.727 639.211 361.311C638.423 360.421 637.003 361.606 637.793 362.498C641.416 366.603 643.455 371.87 643.541 377.347C643.626 382.825 641.753 388.153 638.26 392.37C637.502 393.287 639.025 394.335 639.779 393.423Z" fill="white"/>
<path d="M663.726 438.192C651.784 439.487 639.794 436.227 630.146 429.062C629.191 428.352 628.139 429.874 629.094 430.583C639.147 438.02 651.632 441.387 664.056 440.013C665.24 439.881 664.904 438.061 663.726 438.192Z" fill="white"/>
<path d="M594.831 363.779C593.757 365.841 592.187 367.602 590.265 368.906C588.342 370.21 586.126 371.016 583.815 371.25C582.63 371.367 582.968 373.187 584.145 373.071C586.697 372.8 589.143 371.907 591.271 370.471C593.398 369.035 595.142 367.099 596.35 364.833C596.482 364.629 596.531 364.382 596.488 364.143C596.445 363.904 596.312 363.69 596.117 363.546C595.915 363.407 595.667 363.354 595.426 363.398C595.185 363.442 594.972 363.579 594.831 363.779Z" fill="white"/>
<path d="M829.317 498.98H1.01467C0.745563 498.98 0.487477 498.873 0.297189 498.682C0.106902 498.492 0 498.233 0 497.964C0 497.694 0.106902 497.436 0.297189 497.245C0.487477 497.055 0.745563 496.948 1.01467 496.948H828.985C829.254 496.948 829.513 497.055 829.703 497.245C829.893 497.436 830 497.694 830 497.964C830 498.525 829.877 498.98 829.317 498.98Z" fill="#CACACA"/>
<path d="M290.527 588.379H107.555C107.286 588.379 107.028 588.272 106.837 588.082C106.647 587.891 106.54 587.633 106.54 587.364C106.54 587.094 106.647 586.836 106.837 586.645C107.028 586.455 107.286 586.348 107.555 586.348H290.196C290.465 586.348 290.723 586.455 290.913 586.645C291.103 586.836 291.21 587.094 291.21 587.364C291.21 587.925 291.087 588.379 290.527 588.379Z" fill="#CACACA"/>
<path d="M577.679 628H394.707C394.437 628 394.179 627.893 393.989 627.703C393.799 627.512 393.692 627.254 393.692 626.984C393.692 626.715 393.799 626.456 393.989 626.266C394.179 626.075 394.437 625.968 394.707 625.968H577.347C577.616 625.968 577.874 626.075 578.065 626.266C578.255 626.456 578.362 626.715 578.362 626.984C578.362 627.545 578.239 628 577.679 628Z" fill="#CACACA"/>
<path d="M750.173 587.364H567.2C566.931 587.364 566.673 587.257 566.483 587.066C566.293 586.876 566.186 586.617 566.186 586.348C566.186 586.078 566.293 585.82 566.483 585.629C566.673 585.439 566.931 585.332 567.2 585.332H749.841C750.11 585.332 750.368 585.439 750.559 585.629C750.749 585.82 750.856 586.078 750.856 586.348C750.856 586.909 750.733 587.364 750.173 587.364Z" fill="#CACACA"/>
<path d="M338.147 548.759C326.781 548.759 316.375 547.668 308.108 545.091C298.281 542.027 292.11 537.073 289.766 530.354C288.664 527.502 288.335 524.408 288.812 521.387C289.29 518.367 290.556 515.526 292.482 513.153C307.02 494.187 357.468 488.837 364.237 488.205L377.97 462.17C378.849 455.958 374.691 451.255 381.874 451.138L466.837 449.983C473.891 449.834 471.889 454.208 473.097 460.264L486.041 483.401L430.329 506.942L438.753 527.493L438.203 527.812C421.898 537.282 375.007 548.757 338.147 548.759Z" fill="#2F2E41"/>
<path d="M478.329 484.388C478.329 484.388 556.134 475.474 551.059 511.133C545.985 546.792 486.786 572.051 397.141 511.133L407.289 493.303C407.289 493.303 440.695 491.64 460.992 482.725L478.329 484.388Z" fill="#2F2E41"/>
<path d="M368.177 322.839C368.177 322.839 353.389 320.147 349.356 343.029C345.323 365.911 338.862 420.112 338.862 420.112L318.803 489.736C316.437 490.994 314.478 492.899 313.153 495.23C311.828 497.561 311.194 500.221 311.323 502.9C311.452 505.579 312.339 508.165 313.882 510.358C315.424 512.55 317.558 514.258 320.033 515.282C322.509 516.306 325.225 516.603 327.863 516.139C330.501 515.676 332.953 514.47 334.932 512.663C336.912 510.856 338.337 508.523 339.041 505.935C339.745 503.348 339.699 500.613 338.909 498.051L365.749 424.156L370.865 360.532V327.195C370.865 326.29 370.614 325.404 370.139 324.634C369.664 323.865 368.985 323.243 368.177 322.839Z" fill="#FEB8B8"/>
<path d="M472.266 322.839C472.266 322.839 487.054 320.147 491.087 343.029C495.12 365.911 501.58 420.112 501.58 420.112L521.639 489.736C524.005 490.994 525.965 492.899 527.289 495.23C528.614 497.561 529.249 500.221 529.12 502.9C528.991 505.579 528.103 508.165 526.561 510.358C525.019 512.55 522.885 514.258 520.409 515.282C517.933 516.306 515.218 516.603 512.58 516.139C509.941 515.676 507.49 514.47 505.51 512.663C503.531 510.856 502.106 508.523 501.402 505.935C500.697 503.348 500.743 500.613 501.533 498.051L474.693 424.156L469.577 360.532V327.195C469.577 326.29 469.829 325.404 470.304 324.634C470.778 323.865 471.458 323.243 472.266 322.839Z" fill="#FEB8B8"/>
<path d="M471.138 303.925L443.167 293.45L388.95 292.75L365.613 303.925L372.167 341.642C372.167 341.642 358.933 364.078 373.504 386.517L376.774 466.47C376.774 466.47 429.046 496.819 473.168 460.375L463.196 386.037C463.196 386.037 479.875 351.547 466.947 338.733L471.138 303.925Z" fill="#FC7790"/>
<path d="M459.746 315.646L471.138 303.925C471.138 303.925 496.003 317.02 495.491 360.816L464.126 351.138L459.746 315.646Z" fill="#FC7790"/>
<path d="M378.269 315.646L366.165 303.527C366.165 303.527 344.807 320.067 345.319 363.864L373.89 351.138L378.269 315.646Z" fill="#FC7790"/>
<path d="M457.173 518.528C457.173 518.528 448.461 500.174 433.91 508.972C419.36 517.771 392.588 532.385 392.588 532.385C392.588 532.385 386.326 542.865 399.999 540.109C413.673 537.352 457.597 535.201 457.597 535.201L457.173 518.528Z" fill="#FEB8B8"/>
<path d="M432.968 190.431C433.091 190.313 433.22 190.206 433.341 190.085C441.127 182.289 442.705 171.23 436.866 165.384C431.347 159.859 421.183 160.974 413.511 167.692C406.932 161.421 398.112 159.673 392.402 164.002C385.819 168.993 385.87 180.164 392.518 188.953C392.973 189.555 393.45 190.124 393.941 190.671C385.095 193.913 377.457 199.798 372.061 207.529C366.665 215.259 363.771 224.463 363.771 233.895V277.701C363.771 278.985 364.024 280.257 364.515 281.444C365.006 282.631 365.726 283.709 366.633 284.617C367.54 285.526 368.617 286.246 369.802 286.738C370.988 287.229 372.258 287.482 373.541 287.482H454.406C456.91 287.482 459.312 286.486 461.082 284.714C462.853 282.941 463.848 280.536 463.848 278.029V233.895C463.846 224.336 460.872 215.016 455.339 207.227C449.805 199.438 441.986 193.568 432.968 190.431Z" fill="#2F2E41"/>
<path d="M442.22 271.859C457.206 256.856 457.206 232.53 442.22 217.526C427.235 202.522 402.939 202.522 387.953 217.526C372.968 232.53 372.968 256.856 387.953 271.859C402.939 286.863 427.235 286.863 442.22 271.859Z" fill="#FFB6B6"/>
<path d="M374.766 220.527C383.535 226.578 393.943 229.798 404.592 229.756C400.793 232.393 396.469 234.174 391.916 234.977C406.075 238.018 420.709 238.1 434.902 235.219C438.057 234.712 441.101 233.665 443.901 232.124C445.296 231.344 446.512 230.279 447.469 228.997C448.426 227.716 449.102 226.247 449.455 224.687C450.398 219.292 446.2 214.392 441.837 211.089C435.157 206.109 427.456 202.678 419.289 201.044C411.122 199.41 402.695 199.614 394.616 201.641C389.342 203.006 384.057 205.313 380.631 209.554C377.205 213.795 376.19 220.334 379.454 224.701L374.766 220.527Z" fill="#2F2E41"/>
<path d="M169.52 143.859L170.73 142.227L202.945 166.152C201.194 160.81 194.997 143.874 184.839 137.117C172.703 129.044 164.165 131.555 159.513 138.565C154.862 145.575 155.858 154.429 167.993 162.502C178.28 169.345 196.606 168.394 201.952 167.945L169.52 143.859Z" fill="#F2F2F2"/>
<path d="M654.226 12.8737L655.721 14.2477L628.605 43.8385C634.094 42.6508 651.561 38.2416 659.33 28.829C668.612 17.584 667.005 8.82065 660.526 3.45943C654.046 -1.90179 645.148 -1.83078 635.866 9.41419C627.998 18.9461 627.037 37.2934 626.927 42.6641L654.226 12.8737Z" fill="#F2F2F2"/>
<path d="M216.903 328.821L218.399 330.195L191.282 359.786C196.771 358.599 214.239 354.189 222.008 344.777C231.289 333.532 229.682 324.768 223.203 319.407C216.723 314.046 207.825 314.117 198.543 325.362C190.675 334.894 189.715 353.241 189.604 358.612L216.903 328.821Z" fill="#F2F2F2"/>
<path d="M446.195 46.7827L447.952 47.8006L427.864 82.5598C432.967 80.2124 449.07 72.1277 454.623 61.2564C461.258 48.2689 457.798 40.0602 450.314 36.2278C442.83 32.3953 434.157 34.3903 427.522 47.3779C421.898 58.387 424.92 76.5086 425.972 81.7762L446.195 46.7827Z" fill="#F2F2F2"/>
<path d="M633.909 264.187L635.666 265.205L615.578 299.964C620.68 297.617 636.783 289.532 642.337 278.661C648.971 265.673 645.511 257.465 638.028 253.632C630.544 249.8 621.871 251.795 615.236 264.782C609.612 275.792 612.634 293.913 613.686 299.181L633.909 264.187Z" fill="#F2F2F2"/>
</g>
<defs>
<clipPath id="clip0_147_423">
<rect width="830" height="628" fill="white"/>
</clipPath>
</defs>
</svg>
