<svg width="670" height="521" viewBox="0 0 670 521" fill="none" xmlns="http://www.w3.org/2000/svg">
<g clip-path="url(#clip0_47_94)">
<path opacity="0.1" d="M657.042 138.622C650.408 123.227 641.445 108.945 630.466 96.2776L261.752 92.6451L565.328 50.0072C545.717 42.1974 524.838 38.0549 503.731 37.7858C474.691 14.574 438.934 1.35633 401.778 0.0990586C364.622 -1.15821 328.053 9.61205 297.51 30.8078C273.102 18.2601 246.044 11.7394 218.599 11.791C136.674 11.791 68.4054 68.5284 53.0927 143.774L657.042 138.622Z" fill="#FC7790"/>
<path opacity="0.1" d="M670.007 201.725C670.024 181.32 666.123 161.103 658.515 142.17L19.4867 209.244C12.897 221.162 7.8563 233.873 4.4869 247.069L202.373 276.572L-0.0325928 298.093C6.05861 383.271 79.0813 450.535 168.284 450.535C213.186 450.535 253.992 433.487 284.219 405.693C314.551 434.016 355.742 451.428 401.126 451.428C468.469 451.428 526.589 413.088 553.654 357.648C607.96 340.418 650.142 297.141 664.581 243.006L414.358 204.164H670.007C669.994 203.348 670.007 202.54 670.007 201.725Z" fill="#FC7790"/>
<path d="M186.962 521C268.723 521 335.003 510.135 335.003 496.733C335.003 483.331 268.723 472.467 186.962 472.467C105.201 472.467 38.9211 483.331 38.9211 496.733C38.9211 510.135 105.201 521 186.962 521Z" fill="#FC7790"/>
<path d="M340.071 340.412C333.412 342.081 326.577 338.834 326.577 338.834C326.577 338.834 320.747 332.084 315.83 331.171C310.912 330.258 309.008 338.247 306.086 340.301C304.065 341.742 289.482 340.712 280.652 339.942L279.132 339.805C278.982 339.694 278.832 339.577 278.669 339.473C278.669 339.473 270.191 336.864 268.424 334.555C266.657 332.247 254.846 327.975 251.181 328.223C247.516 328.471 236.683 329.058 236.683 329.058C236.683 329.058 232.438 324.225 230.52 324.727C228.603 325.23 221.938 324.688 221.938 324.688C221.938 324.688 220.105 319.98 218.273 313.23C217.418 310.08 214.575 307.869 211.79 306.415C214.294 297.937 209.834 273.755 195.982 269.027C192.962 267.997 191.417 264.573 188.847 262.695C186.545 261.018 182.775 257.066 184.621 249.925C187.23 239.928 193.699 224.185 193.699 224.185L198.519 214.559C198.069 215.241 197.558 215.88 196.992 216.47C197.645 215.635 198.297 214.813 198.858 214.122C203.667 216.551 208.913 217.997 214.288 218.374C219.727 220.572 225.159 222.509 227.272 222.437C232.105 222.267 244.431 228.437 244.431 228.437C244.431 228.437 274.085 236.915 280.248 237.6C286.411 238.284 289.411 230.269 289.411 230.269C289.411 230.269 292.613 214.468 286.926 210.281C281.239 206.094 277.932 225.28 277.932 225.28L239.135 211.298L236.742 210.04C238.6 208.073 240.075 205.778 241.092 203.27C241.692 201.777 242.24 200.068 243.668 199.325C244.052 199.134 244.467 199.012 244.894 198.966C245.248 198.943 245.603 198.943 245.957 198.966C252.687 199.377 258.472 204.672 265.215 204.698C265.463 204.698 265.711 204.698 265.959 204.698C267.244 204.695 268.5 204.309 269.565 203.59C270.167 203.1 270.661 202.492 271.018 201.803C271.375 201.114 271.586 200.359 271.639 199.585C271.541 199.795 271.432 200 271.313 200.199C271.489 199.239 271.489 198.256 271.313 197.296C270.896 195.007 269.702 192.953 268.633 190.886C268.33 190.403 268.159 189.85 268.137 189.281C268.167 188.984 268.258 188.697 268.402 188.436C268.547 188.174 268.743 187.945 268.978 187.762C268.988 187.823 269.001 187.884 269.017 187.945C269.526 187.466 270.091 187.052 270.7 186.712C272.348 185.631 273.757 184.223 274.838 182.575C275.92 180.927 276.651 179.074 276.987 177.132C276.824 177.614 276.628 178.09 276.419 178.56C277.423 175.249 277.179 171.686 275.735 168.543C275.361 167.648 274.763 166.865 274 166.267C271.567 164.558 268.3 166.378 265.333 166.573C262.724 166.743 260.194 165.576 257.839 164.395C253.822 162.38 249.824 160.202 246.479 157.222C242.677 153.811 239.853 149.461 236.422 145.685C232.992 141.909 228.59 138.544 223.483 138.166C214.203 137.448 205.451 146.644 196.627 143.644C192.323 142.189 189.493 138.211 186.499 134.794C183.506 131.377 179.391 128.096 174.904 128.833C171.786 129.355 169.086 131.774 165.93 131.683C164.28 131.631 162.747 130.894 161.182 130.379C157.393 129.107 152.202 129.727 150.852 133.496C150.587 134.264 150.493 135.08 150.578 135.888C150.662 136.696 150.923 137.476 151.341 138.172C151.142 138.452 150.963 138.746 150.806 139.052C150.482 139.65 150.37 140.339 150.487 141.009C147.805 143.416 145.817 146.499 144.732 149.936C143.646 153.372 143.502 157.037 144.315 160.549C145.127 164.06 146.867 167.289 149.352 169.899C151.837 172.51 154.976 174.406 158.443 175.391C158.567 175.867 158.691 176.343 158.808 176.825C160.074 182.153 160.732 188.153 158.861 192.197C158.743 192.444 158.619 192.686 158.482 192.92L158.319 192.992L158.084 192.751L156.663 191.264C156.584 189.712 155.711 185.551 149.632 177.83C141.63 167.662 140.13 150.837 140.13 150.837C140.13 150.837 138.135 142.176 140.13 139.679C142.126 137.181 145.465 109.679 145.465 109.679L150.982 94.1973C150.982 94.1973 177.806 66.872 166.634 63.546C159.05 61.283 150.004 72.9435 144.982 80.652C142.516 84.437 140.921 88.7228 140.313 93.1995L125.15 134.683C125.15 134.683 123.65 139.685 125.15 148.346C126.65 157.006 129.983 172.338 129.983 172.338L138.461 193.827C138.461 193.827 141.585 203.107 141.311 207.137C140.939 207.379 139.635 209.961 138.506 212.309L137.678 213.613L137.62 214.142C137.065 215.322 136.68 216.17 136.68 216.17C136.68 216.17 131.959 230.106 135.904 238.656C139.85 247.206 140.006 251.171 140.006 251.171L142.948 263.836L144.174 274.922L154.752 301.08L164.495 314.991C164.495 314.991 163.582 325.236 161.58 326.651C159.578 328.067 160.497 335.397 160.497 335.397L159.245 354.635C159.245 354.635 155.332 360.387 155.084 369.713C154.837 379.039 153.415 381.713 153.415 381.713C153.415 381.713 152.763 389.539 154.582 393.125C156.402 396.712 151.667 400.456 151.667 400.456L155.73 414.405L154.145 432.066C154.145 432.066 154.882 432.268 156.102 432.574L155.854 433.839L149.228 467.295C149.228 467.295 145.648 476.464 145.485 478.623L133.902 499.538C133.902 499.538 124.237 509.118 128.822 510.031C133.407 510.944 146.737 502.701 146.737 502.701C146.737 502.701 157.732 490.87 162.063 489.794C166.393 488.718 171.193 485.621 169.81 481.127C168.428 476.634 165.245 469.799 168.31 462.547C170.267 457.982 174.428 445.591 177.284 436.944C177.441 436.468 177.591 436.011 177.741 435.568C178.496 435.5 179.243 435.358 179.971 435.144C186.969 432.979 190.634 434.492 190.634 434.492L203.129 383.93L205.875 358.561L223.372 373.157C226.834 376.044 231.133 377.743 235.633 378.002C242.527 378.406 253.281 379.404 261.068 381.811L264.328 368.233C264.328 368.233 273.654 368.572 275.656 365.402C276.472 364.098 277.274 362.989 277.932 362.142L279.445 361.907L320.721 355.522C328.384 355.522 338.884 350.351 338.884 350.351L345.301 349.105C345.301 349.105 354.875 347.188 355.736 345.603C356.596 344.018 346.742 338.755 340.071 340.412Z" fill="url(#paint0_linear_47_94)"/>
<path d="M152.776 136.763C154.08 133.085 159.18 132.466 162.891 133.711C164.417 134.22 165.923 134.944 167.534 135.016C170.626 135.107 173.267 132.733 176.319 132.231C180.708 131.501 184.732 134.709 187.66 138.055C190.588 141.4 193.366 145.294 197.579 146.722C206.208 149.63 214.777 140.657 223.855 141.355C228.838 141.739 233.142 145.02 236.501 148.717C239.859 152.415 242.624 156.667 246.342 160.006C249.602 162.941 253.515 165.073 257.461 167.049C259.763 168.204 262.222 169.345 264.791 169.175C267.7 168.986 270.896 167.219 273.269 168.875C274.017 169.461 274.6 170.229 274.965 171.106C277.887 177.184 275.533 185.277 269.813 188.851C268.815 189.471 267.602 190.155 267.544 191.349C267.562 191.906 267.729 192.449 268.026 192.92C269.07 194.942 270.243 196.957 270.635 199.194C271.026 201.431 270.498 204.007 268.678 205.364C267.49 206.154 266.079 206.54 264.654 206.466C258.055 206.433 252.394 201.248 245.807 200.851C244.964 200.754 244.111 200.885 243.335 201.229C241.94 201.953 241.379 203.629 240.811 205.09C237.759 212.713 230.181 218.015 222.094 219.47C214.007 220.924 205.562 218.876 198.323 214.989C197.794 214.736 197.307 214.402 196.882 213.998C196.277 213.264 195.851 212.4 195.636 211.474C193.419 204.464 190.419 197.127 184.275 193.077C180.291 190.468 174.884 189.001 173.078 184.599C171.943 181.814 172.654 178.651 172.367 175.651C172.084 173.079 171.082 170.639 169.475 168.611C167.868 166.583 165.722 165.049 163.282 164.187C162.213 163.828 161.039 163.573 160.256 162.758C159.621 161.958 159.215 161 159.082 159.987C158.11 155.572 157.465 150.909 156.108 146.598C155.071 143.22 151.387 140.631 152.776 136.763Z" fill="#663D5B"/>
<g opacity="0.1">
<path d="M269.441 203.335C268.249 204.115 266.839 204.492 265.417 204.411C258.824 204.411 253.163 199.194 246.576 198.803C245.734 198.704 244.881 198.832 244.105 199.175C242.703 199.899 242.148 201.575 241.581 203.035C238.529 210.666 230.944 215.968 222.857 217.422C214.77 218.876 206.325 216.828 199.092 212.942C198.564 212.688 198.077 212.353 197.651 211.95C197.048 211.216 196.622 210.352 196.406 209.426C194.188 202.409 191.188 195.079 185.045 191.023C181.054 188.381 175.647 186.953 173.847 182.545C172.706 179.753 173.417 176.59 173.136 173.597C172.855 171.024 171.852 168.582 170.244 166.554C168.635 164.526 166.487 162.993 164.045 162.132C162.976 161.774 161.802 161.513 161.019 160.704C160.383 159.902 159.979 158.941 159.852 157.926C158.874 153.517 158.234 148.848 156.878 144.544C155.965 141.661 153.089 139.326 153.232 136.248C153.148 136.411 153.074 136.578 153.011 136.75C151.615 140.618 155.306 143.207 156.356 146.533C157.713 150.837 158.352 155.506 159.33 159.915C159.457 160.93 159.861 161.891 160.497 162.693C161.28 163.502 162.454 163.763 163.523 164.121C165.966 164.982 168.115 166.516 169.724 168.546C171.332 170.575 172.334 173.018 172.615 175.593C172.895 178.586 172.184 181.749 173.325 184.54C175.125 188.968 180.532 190.41 184.523 193.018C190.653 197.081 193.653 204.405 195.884 211.422C196.1 212.348 196.526 213.211 197.129 213.946C197.556 214.349 198.042 214.683 198.571 214.937C205.803 218.85 214.223 220.865 222.336 219.418C230.448 217.97 237.987 212.661 241.059 205.031C241.646 203.57 242.187 201.894 243.583 201.17C244.359 200.828 245.212 200.7 246.055 200.798C252.642 201.196 258.302 206.381 264.896 206.407C266.32 206.482 267.73 206.098 268.92 205.311C269.509 204.834 269.994 204.24 270.344 203.567C270.694 202.893 270.902 202.155 270.954 201.398C270.625 202.163 270.104 202.83 269.441 203.335Z" fill="black"/>
<path d="M270.576 186.803C269.578 187.455 268.359 188.108 268.3 189.301C268.294 189.541 268.332 189.779 268.411 190.005C268.906 189.536 269.459 189.131 270.054 188.799C271.668 187.742 273.046 186.365 274.104 184.753C275.162 183.141 275.877 181.328 276.204 179.427C275.24 182.464 273.251 185.071 270.576 186.803Z" fill="black"/>
</g>
<path d="M169.843 458.752C166.823 465.847 169.928 472.525 171.31 476.934C172.693 481.342 167.971 484.349 163.732 485.412C159.493 486.475 148.732 498.044 148.732 498.044C148.732 498.044 135.689 506.111 131.202 505.218C126.715 504.324 136.172 494.946 136.172 494.946L147.506 474.482C147.669 472.369 151.171 463.395 151.171 463.395L157.654 430.657L158.515 426.307L181.497 424.918C181.497 424.918 180.291 428.648 178.628 433.689C175.83 442.168 171.734 454.324 169.843 458.752Z" fill="#CC818C"/>
<path d="M353.264 344.318C352.449 345.87 343.077 347.742 343.077 347.742L336.797 348.962C336.797 348.962 326.525 354.022 319.025 354.022L278.63 360.276L273.211 361.118V338.201C273.211 338.201 275.937 338.488 279.798 338.853C288.426 339.61 302.702 340.614 304.678 339.205C307.534 337.171 309.406 329.345 314.212 330.245C319.019 331.145 324.732 337.744 324.732 337.744C324.732 337.744 331.416 340.92 337.938 339.29C344.46 337.66 354.079 342.766 353.264 344.318Z" fill="#CC818C"/>
<path opacity="0.1" d="M280.059 358.503C280.059 358.503 279.478 359.155 278.63 360.27L273.211 361.111V338.201C273.211 338.201 275.937 338.488 279.798 338.853C286.28 343.973 280.059 358.503 280.059 358.503Z" fill="black"/>
<path d="M202.047 353.207L223.744 371.311C227.133 374.136 231.34 375.798 235.744 376.052C242.487 376.45 253.013 377.422 260.657 379.782L263.839 366.491C263.839 366.491 272.97 366.818 274.926 363.72C276.075 361.891 277.354 360.147 278.754 358.503C278.754 358.503 285.361 343.099 277.861 338.371C277.861 338.371 269.546 335.84 267.83 333.558C266.115 331.275 254.546 327.121 250.959 327.362C247.372 327.603 236.774 328.177 236.774 328.177C236.774 328.177 232.614 323.449 230.742 323.938C228.87 324.427 222.342 323.938 222.342 323.938C222.342 323.938 220.549 319.328 218.755 312.721C216.962 306.115 206.286 303.754 206.286 303.754L202.047 353.207Z" fill="#565987"/>
<path opacity="0.1" d="M202.047 353.207L223.744 371.311C227.133 374.136 231.34 375.798 235.744 376.052C242.487 376.45 253.013 377.422 260.657 379.782L263.839 366.491C263.839 366.491 272.97 366.818 274.926 363.72C276.075 361.891 277.354 360.147 278.754 358.503C278.754 358.503 285.361 343.099 277.861 338.371C277.861 338.371 269.546 335.84 267.83 333.558C266.115 331.275 254.546 327.121 250.959 327.362C247.372 327.603 236.774 328.177 236.774 328.177C236.774 328.177 232.614 323.449 230.742 323.938C228.87 324.427 222.342 323.938 222.342 323.938C222.342 323.938 220.549 319.328 218.755 312.721C216.962 306.115 206.286 303.754 206.286 303.754L202.047 353.207Z" fill="black"/>
<path d="M192.343 190.899L189.943 191.349H189.793L189.44 191.414L185.332 192.177L184.067 193.677L184.014 193.729L179.951 198.542L176.528 201.901L176.495 201.94L173.599 204.757L168.702 209.629L167.88 211.657L166.093 216.15L165.63 217.291L160.739 222.509L157.615 229.193L150.311 233.432L142.452 229.356L138.865 224.139L139.68 216.665L139.843 215.172L142.237 211.331L144.409 207.835L148.648 201.803L156.8 196.259L158.26 195.875L159.897 195.444C160.022 195.266 160.138 195.081 160.243 194.89C160.381 194.661 160.505 194.423 160.615 194.179C162.447 190.227 161.802 184.351 160.563 179.14C159.613 175.242 158.355 171.426 156.8 167.728L178.321 164.63C178.321 164.63 178.112 168.804 178.112 175.312C178.112 176.943 178.112 178.71 178.158 180.601C178.262 186.471 183.714 189.014 187.83 190.097C188.889 190.379 189.965 190.597 191.051 190.749C191.847 190.873 192.343 190.899 192.343 190.899Z" fill="#CC818C"/>
<path d="M158.43 193.977C158.43 193.977 159.408 190.064 151.582 180.119C143.756 170.173 142.289 153.706 142.289 153.706C142.289 153.706 140.332 145.228 142.289 142.783C144.245 140.337 147.506 113.436 147.506 113.436L152.887 98.2732C152.887 98.2732 179.136 71.5349 168.212 68.2741C160.791 66.0568 151.908 77.476 147.024 85.0149C144.611 88.7195 143.052 92.914 142.459 97.295L127.615 137.892C127.615 137.892 126.148 142.783 127.615 151.261C129.083 159.739 132.343 174.738 132.343 174.738L140.659 195.79C140.659 195.79 145.035 208.898 142.765 210.496L147.832 203.003L158.43 193.977Z" fill="#CC818C"/>
<path d="M288.374 231.495C288.374 231.495 285.439 239.321 279.406 238.669C273.374 238.017 244.353 229.702 244.353 229.702C244.353 229.702 232.287 223.67 227.559 223.833C222.831 223.996 201.147 213.887 201.147 213.887C201.147 213.887 199.621 215.896 197.918 218.009C196.066 220.324 194.006 222.77 193.484 222.854C192.506 223.017 177.343 225.137 177.343 225.137L167.071 220.409L166.093 216.15L165.63 214.194L167.906 211.657L170.899 208.324L176.514 201.92L176.547 201.881L184.04 193.736L184.093 193.683L188.893 191.727L189.819 191.349H189.969C190.543 191.251 192.747 191.049 195.701 192.718C197.759 193.883 200.043 194.591 202.399 194.792C207.088 195.127 211.528 197.029 215.005 200.192L239.135 212.889L277.124 226.585C277.124 226.585 280.385 207.835 285.928 211.911C291.471 215.987 288.374 231.495 288.374 231.495Z" fill="#CC818C"/>
<path opacity="0.1" d="M197.918 218.009C196.066 220.324 194.006 222.77 193.484 222.854C192.506 223.017 177.343 225.137 177.343 225.137L167.071 220.409L166.093 216.15L165.63 217.291L160.739 222.509L157.615 229.193L150.311 233.432L142.452 229.356L138.865 224.139L139.68 216.665C140.091 215.778 141.213 213.365 142.237 211.331C142.721 210.21 143.329 209.147 144.05 208.161C144.702 207.731 145.387 203.107 145.387 203.107C148.348 194.57 158.267 193.26 158.267 193.26L159.852 194.746L160.543 195.464C160.263 195.418 160.595 194.812 160.236 194.91C159.663 195.073 159.408 195.94 158.671 196.416C154.661 199.025 148.393 205.109 145.915 207.998C145.315 208.696 144.695 209.381 144.063 210.046C140.482 213.835 141.141 218.857 141.141 218.857C140.248 222.77 148.152 225.704 148.152 225.704C150.356 222.039 165.271 211.931 165.271 211.931L175.315 200.681C178.393 195.32 184.445 191.779 187.823 190.123C189.316 189.392 190.295 189.027 190.295 189.027L194.051 190.631C193.059 190.366 192.01 190.411 191.045 190.762C190.49 190.933 189.951 191.151 189.434 191.414C189.238 191.512 189.043 191.616 188.86 191.727C187.833 192.323 186.867 193.02 185.977 193.807L177.538 203.022C171.088 210.059 175.947 221.439 185.488 221.602H185.573C191.403 222.946 195.584 220.246 197.918 218.009Z" fill="black"/>
<path opacity="0.1" d="M181.497 424.938C181.497 424.938 180.291 428.668 178.628 433.709C172.249 434.185 161.717 431.72 157.654 430.677L158.515 426.327L181.497 424.938Z" fill="black"/>
<path d="M160.55 195.464L158.463 193.325C158.463 193.325 150.93 194.355 146.254 202.403C146.254 202.403 144.069 208.435 143.398 208.866C142.726 209.296 138.865 217.728 138.865 217.728C138.865 217.728 134.248 231.365 138.102 239.739C141.956 248.112 142.126 251.967 142.126 251.967L145.009 264.358L146.202 275.222L156.558 300.819L166.093 314.404C166.093 314.404 165.2 324.427 163.243 325.817C161.287 327.206 162.18 334.373 162.18 334.373L160.96 353.207C160.96 353.207 157.126 358.829 156.884 367.959C156.643 377.089 155.254 379.698 155.254 379.698C155.254 379.698 154.602 387.36 156.395 390.869C158.189 394.378 153.539 398.043 153.539 398.043L157.537 411.653L155.984 428.935C155.984 428.935 174.408 434.074 181.256 431.955C188.103 429.835 191.69 431.303 191.69 431.303L203.918 381.798L208.158 342.916C208.158 342.916 208.405 315.363 212.07 306.963C215.214 299.789 211.092 274.231 196.934 269.405C193.979 268.401 192.479 265.049 189.956 263.21C187.699 261.573 184.014 257.706 185.821 250.714C188.351 240.932 194.71 225.528 194.71 225.528L199.419 216.15C199.419 216.15 194.299 224.433 184.927 222.313H184.843C175.302 222.144 170.443 210.763 176.893 203.733L185.332 194.512C185.332 194.512 189.982 190.227 193.406 191.31L189.656 189.705C189.656 189.705 179.097 193.618 174.656 201.359L164.613 212.609C164.613 212.609 149.711 222.672 147.506 226.363C147.506 226.363 139.602 223.428 140.496 219.515C140.496 219.515 139.843 214.487 143.417 210.698C144.069 210.046 144.669 209.355 145.269 208.657C148.485 204.901 157.374 194.936 160.55 195.464Z" fill="#565987"/>
<path opacity="0.1" d="M161.776 262.636C161.776 262.636 159.408 279.84 161.202 283.342L161.776 262.636Z" fill="black"/>
<path opacity="0.1" d="M163.321 269.32L165.852 279.187C165.852 279.187 166.745 273.155 163.321 269.32Z" fill="black"/>
<path opacity="0.1" d="M148.322 267.018C148.322 267.018 153.376 292.126 158.919 299.711L148.322 267.018Z" fill="black"/>
<path opacity="0.1" d="M183.949 297.285C183.949 297.285 175.308 305.437 171.962 304.843C171.962 304.843 185.253 305.417 189.408 298.407C189.408 298.426 186.721 296.47 183.949 297.285Z" fill="black"/>
<path opacity="0.1" d="M195.929 296.633C195.929 296.633 184.843 304.7 182.645 305.437C182.645 305.437 194.625 302.013 195.929 296.633Z" fill="black"/>
<path opacity="0.1" d="M158.43 236.713C158.43 236.713 152.887 243.808 150.115 242.993C150.115 242.993 156.884 243.234 158.43 236.713Z" fill="black"/>
<path opacity="0.1" d="M164.71 245.843C164.71 245.843 176.775 229.461 182.482 230.113C182.482 230.113 168.786 242.015 164.71 245.843Z" fill="black"/>
<path opacity="0.1" d="M181.419 239.882C181.419 239.882 173.756 243.723 174.571 244.845C175.386 245.967 181.419 239.882 181.419 239.882Z" fill="black"/>
<path opacity="0.1" d="M186.962 365.676C186.962 365.676 161.365 380.598 159.004 381.328C159.004 381.328 163.406 384.674 167.56 383.043C171.715 381.413 186.962 365.676 186.962 365.676Z" fill="black"/>
<path opacity="0.1" d="M165.526 396.738C165.526 396.738 155.254 395.675 155.658 399.021C156.063 402.366 165.526 396.738 165.526 396.738Z" fill="black"/>
<path opacity="0.1" d="M178.321 164.63C178.321 164.63 178.112 168.804 178.112 175.312C175.698 177.291 172.848 178.669 169.797 179.334C166.746 179.998 163.582 179.93 160.563 179.134C159.613 175.236 158.355 171.42 156.8 167.721L178.321 164.63Z" fill="black"/>
<path d="M165.604 178.514C176.499 178.514 185.332 169.682 185.332 158.787C185.332 147.891 176.499 139.059 165.604 139.059C154.708 139.059 145.876 147.891 145.876 158.787C145.876 169.682 154.708 178.514 165.604 178.514Z" fill="#CC818C"/>
<path opacity="0.1" d="M170.775 170.825C171.33 178.893 173.025 188.121 180.03 192.177C185.09 195.105 191.469 194.336 197.071 192.666C202.673 190.997 208.157 188.505 213.988 188.225C218.468 188.01 222.896 189.112 227.364 189.392C231.831 189.673 236.722 188.975 239.911 185.832C244.476 181.358 243.642 173.225 239.318 168.523C234.994 163.821 228.231 162.113 221.827 162.289C214.001 162.504 205.262 164.897 199.073 160.15C194.919 156.954 193.347 151.411 189.851 147.504C184.014 140.983 158.202 131.566 152.737 142.196C150.174 147.172 161.821 150.726 164.521 154.326C168.786 160.006 170.267 163.378 170.775 170.825Z" fill="black"/>
<path d="M171.382 170.128C171.943 178.201 173.632 187.429 180.636 191.479C185.697 194.407 192.075 193.638 197.677 191.975C203.279 190.312 208.764 187.814 214.601 187.534C219.075 187.318 223.503 188.414 227.977 188.701C232.451 188.988 237.329 188.284 240.518 185.14C245.083 180.66 244.248 172.534 239.924 167.832C235.601 163.13 228.838 161.421 222.44 161.597C214.614 161.806 205.868 164.206 199.679 159.452C195.525 156.256 193.953 150.72 190.458 146.807C184.621 140.285 158.808 130.874 153.343 141.505C150.78 146.474 162.428 150.028 165.134 153.635C169.393 159.308 170.873 162.674 171.382 170.128Z" fill="#663D5B"/>
<path opacity="0.1" d="M147.656 225.698C147.959 223.124 148.807 220.644 150.144 218.424C151.481 216.204 153.277 214.295 155.41 212.824" fill="black"/>
<path opacity="0.1" d="M221.625 327.851C221.564 328.491 221.408 329.117 221.162 329.71C220.307 332.27 219.279 334.77 218.083 337.19C219.825 337.04 221.259 335.671 221.996 334.092C222.64 332.469 222.996 330.745 223.046 328.999C223.11 328.454 223.126 327.904 223.092 327.356C223.046 326.847 222.72 324.904 221.879 325.249C221.201 325.536 221.638 327.336 221.625 327.851Z" fill="black"/>
<path opacity="0.1" d="M241.692 183.099C238.496 186.242 233.618 186.947 229.144 186.66C224.67 186.373 220.223 185.277 215.768 185.499C209.899 185.779 204.46 188.271 198.851 189.94C193.243 191.61 186.871 192.379 181.804 189.451C174.806 185.395 173.11 176.167 172.556 168.099C172.047 160.652 170.56 157.28 166.302 151.6C163.726 148.163 153.03 144.772 154.256 140.155C153.902 140.571 153.595 141.026 153.343 141.511C150.78 146.48 162.428 150.035 165.134 153.641C169.393 159.315 170.873 162.693 171.382 170.134C171.943 178.208 173.632 187.436 180.636 191.486C185.697 194.414 192.075 193.644 197.677 191.981C203.279 190.318 208.764 187.821 214.601 187.54C219.075 187.325 223.503 188.421 227.977 188.708C232.451 188.994 237.329 188.29 240.518 185.147C241.424 184.248 242.144 183.18 242.637 182.003C242.351 182.392 242.035 182.759 241.692 183.099Z" fill="black"/>
<path d="M146.241 242.399L143.848 247.617L151.458 246.097L146.241 242.399Z" fill="#CC818C"/>
<path opacity="0.1" d="M146.241 242.399L144.272 247.617H143.848L146.241 242.399Z" fill="black"/>
<path opacity="0.1" d="M334.573 479.203C349.34 479.203 361.312 477.56 361.312 475.532C361.312 473.504 349.34 471.86 334.573 471.86C319.805 471.86 307.834 473.504 307.834 475.532C307.834 477.56 319.805 479.203 334.573 479.203Z" fill="#FC7790"/>
<path opacity="0.1" d="M436.995 489.586C451.762 489.586 463.734 487.942 463.734 485.914C463.734 483.886 451.762 482.242 436.995 482.242C422.228 482.242 410.256 483.886 410.256 485.914C410.256 487.942 422.228 489.586 436.995 489.586Z" fill="#FC7790"/>
<path opacity="0.1" d="M557.639 475.532C572.406 475.532 584.377 473.888 584.377 471.86C584.377 469.832 572.406 468.188 557.639 468.188C542.871 468.188 530.9 469.832 530.9 471.86C530.9 473.888 542.871 475.532 557.639 475.532Z" fill="#FC7790"/>
<path opacity="0.1" d="M396 518.091C406.496 518.091 415.004 516.923 415.004 515.483C415.004 514.042 406.496 512.874 396 512.874C385.505 512.874 376.996 514.042 376.996 515.483C376.996 516.923 385.505 518.091 396 518.091Z" fill="#FC7790"/>
<path opacity="0.1" d="M502.303 515.483C512.798 515.483 521.307 514.315 521.307 512.874C521.307 511.433 512.798 510.266 502.303 510.266C491.807 510.266 483.299 511.433 483.299 512.874C483.299 514.315 491.807 515.483 502.303 515.483Z" fill="#FC7790"/>
<path d="M437.576 485.092C437.576 485.092 400.076 362.161 443.445 312.923C475.884 276.09 512.711 280.498 529.204 285.05C533.472 286.187 537.442 288.238 540.838 291.061C544.234 293.884 546.976 297.412 548.874 301.4C554.639 313.843 553.602 334.008 512.9 357.596C444.749 397.051 440.51 451.18 440.51 451.18L437.576 485.092Z" fill="#FC7790"/>
<path d="M523.335 302.489C523.335 302.489 412.793 337.053 437.575 485.092" stroke="#565987" stroke-miterlimit="10"/>
<path d="M458.771 314.88C458.771 314.88 473.986 325.138 469.153 340.549" stroke="#565987" stroke-miterlimit="10"/>
<path d="M512.248 324.01C512.248 324.01 502.942 314.541 491.614 319.765" stroke="#565987" stroke-miterlimit="10"/>
<path d="M468.553 371.617C468.553 371.617 452.21 363.322 447.984 373.711" stroke="#565987" stroke-miterlimit="10"/>
<path d="M428.119 388.9C428.119 388.9 440.386 387.921 440.608 393.791" stroke="#565987" stroke-miterlimit="10"/>
<path d="M436.089 486.071C436.089 486.071 480.005 396.725 492.07 398.682C497.803 399.608 500.444 405.249 501.638 410.91C503.111 418.237 502.263 425.842 499.212 432.666C492.983 446.954 476.242 474.104 436.089 486.071Z" fill="#FC7790"/>
<path d="M491.712 415.638C491.712 415.638 445.617 482.484 436.708 485.418" stroke="#565987" stroke-miterlimit="10"/>
<path d="M495.951 426.072H485.19" stroke="#565987" stroke-miterlimit="10"/>
<path d="M483.064 450.528L466.199 451.252" stroke="#565987" stroke-miterlimit="10"/>
<path d="M472.799 430.964L474.631 439.748" stroke="#565987" stroke-miterlimit="10"/>
<path d="M454.864 457.702L455.19 465.684" stroke="#565987" stroke-miterlimit="10"/>
<path d="M437.393 486.071C437.393 486.071 393.476 396.725 381.411 398.682C375.679 399.608 373.037 405.249 371.844 410.91C370.35 418.231 371.175 425.835 374.205 432.666C380.433 446.954 397.174 474.104 437.393 486.071Z" fill="#FC7790"/>
<path d="M381.705 415.638C381.705 415.638 427.8 482.484 436.708 485.418" stroke="#565987" stroke-miterlimit="10"/>
<path d="M377.459 426.072H388.22" stroke="#565987" stroke-miterlimit="10"/>
<path d="M390.352 450.528L407.217 451.252" stroke="#565987" stroke-miterlimit="10"/>
<path d="M400.611 430.964L398.785 439.748" stroke="#565987" stroke-miterlimit="10"/>
<path d="M418.545 457.702L418.219 465.684" stroke="#565987" stroke-miterlimit="10"/>
<path d="M512.77 506.933C513.969 505.961 514.842 504.646 515.274 503.164C515.594 501.664 514.955 499.87 513.526 499.322C511.922 498.709 510.207 499.818 508.909 500.94C507.611 502.061 506.118 503.346 504.416 503.105C505.29 502.312 505.944 501.305 506.313 500.184C506.682 499.063 506.754 497.865 506.522 496.707C506.452 496.226 506.249 495.775 505.935 495.403C505.048 494.451 503.431 494.862 502.361 495.612C498.97 497.998 498.025 502.603 498.011 506.75C497.666 505.25 497.953 503.692 497.946 502.185C497.94 500.679 497.516 498.925 496.225 498.129C495.427 497.687 494.527 497.462 493.616 497.477C492.09 497.425 490.394 497.575 489.351 498.69C488.046 500.072 488.392 502.401 489.52 503.907C490.649 505.413 492.357 506.385 493.929 507.442C495.196 508.19 496.276 509.219 497.085 510.448C497.182 510.618 497.26 510.797 497.32 510.983H506.874C509.013 509.905 510.996 508.542 512.77 506.933Z" fill="#FC7790"/>
<path d="M345.438 470.954C346.635 469.978 347.506 468.661 347.936 467.178C348.262 465.678 347.623 463.917 346.188 463.336C344.584 462.723 342.875 463.832 341.571 464.96C340.266 466.089 338.779 467.36 337.084 467.126C337.957 466.328 338.609 465.317 338.976 464.193C339.343 463.068 339.412 461.868 339.177 460.708C339.104 460.228 338.901 459.777 338.59 459.404C337.697 458.452 336.086 458.856 335.016 459.606C331.625 461.993 330.679 466.597 330.66 470.745C330.321 469.252 330.608 467.693 330.601 466.18C330.595 464.667 330.171 462.919 328.873 462.117C328.072 461.686 327.173 461.475 326.264 461.504C324.745 461.445 323.043 461.595 322.006 462.71C320.701 464.099 321.047 466.421 322.169 467.928C323.29 469.434 325.006 470.406 326.584 471.462C327.846 472.215 328.923 473.243 329.734 474.469C329.831 474.64 329.91 474.822 329.969 475.01H339.529C341.671 473.928 343.659 472.564 345.438 470.954Z" fill="#FC7790"/>
<path d="M401.191 506.933C402.39 505.961 403.264 504.646 403.696 503.164C404.015 501.664 403.376 499.87 401.948 499.322C400.344 498.709 398.628 499.818 397.331 500.94C396.033 502.061 394.539 503.346 392.837 503.105C393.713 502.312 394.367 501.306 394.738 500.185C395.108 499.063 395.181 497.865 394.95 496.707C394.88 496.226 394.677 495.775 394.363 495.403C393.476 494.451 391.859 494.862 390.789 495.612C387.398 497.998 386.452 502.603 386.439 506.75C386.094 505.25 386.381 503.692 386.374 502.185C386.368 500.679 385.944 498.925 384.653 498.129C383.855 497.687 382.955 497.462 382.044 497.477C380.518 497.425 378.822 497.575 377.779 498.69C376.474 500.072 376.82 502.401 377.948 503.907C379.076 505.413 380.785 506.385 382.357 507.442C383.624 508.19 384.704 509.219 385.513 510.448C385.61 510.618 385.688 510.797 385.748 510.983H395.302C397.439 509.904 399.42 508.542 401.191 506.933Z" fill="#FC7790"/>
<path d="M559.347 434.198C559.347 434.198 562.934 438.881 557.697 445.937C552.461 452.993 548.143 458.98 549.871 463.389C549.871 463.389 557.776 450.254 564.219 450.072C570.662 449.889 566.45 442.096 559.347 434.198Z" fill="#FC7790"/>
<path opacity="0.1" d="M559.347 434.198C559.661 434.649 559.907 435.143 560.078 435.665C566.358 443.035 569.697 449.915 563.665 450.091C558.05 450.248 551.313 460.297 549.695 462.834C549.749 463.029 549.812 463.22 549.885 463.408C549.885 463.408 557.789 450.274 564.232 450.091C570.676 449.909 566.45 442.096 559.347 434.198Z" fill="black"/>
<path d="M566.032 440.165C566.032 441.815 565.85 443.152 565.621 443.152C565.393 443.152 565.217 441.796 565.217 440.165C565.217 438.535 565.445 439.298 565.673 439.298C565.902 439.298 566.032 438.535 566.032 440.165Z" fill="#FFD037"/>
<path d="M568.321 442.135C566.873 442.924 565.608 443.4 565.504 443.204C565.4 443.009 566.476 442.2 567.923 441.411C569.371 440.622 568.804 441.196 568.908 441.411C569.012 441.626 569.782 441.346 568.321 442.135Z" fill="#FFD037"/>
<path d="M540.435 434.198C540.435 434.198 536.848 438.881 542.085 445.937C547.322 452.993 551.639 458.98 549.911 463.389C549.911 463.389 542.013 450.254 535.563 450.072C529.113 449.889 533.378 442.096 540.435 434.198Z" fill="#FC7790"/>
<path opacity="0.1" d="M540.435 434.198C540.12 434.65 539.872 435.144 539.698 435.665C533.424 443.035 530.085 449.915 536.111 450.091C541.733 450.248 548.502 460.297 550.087 462.834C550.034 463.03 549.969 463.221 549.891 463.408C549.891 463.408 541.993 450.274 535.543 450.091C529.094 449.909 533.378 442.096 540.435 434.198Z" fill="black"/>
<path d="M533.789 440.165C533.789 441.815 533.978 443.152 534.207 443.152C534.435 443.152 534.617 441.815 534.617 440.165C534.617 438.515 534.389 439.298 534.161 439.298C533.933 439.298 533.789 438.535 533.789 440.165Z" fill="#FFD037"/>
<path d="M531.507 442.135C532.954 442.924 534.213 443.4 534.324 443.204C534.435 443.009 533.352 442.2 531.904 441.411C530.457 440.622 531.024 441.196 530.913 441.411C530.802 441.626 530.059 441.346 531.507 442.135Z" fill="#FFD037"/>
<path d="M534.93 462.795C534.93 462.795 544.948 462.489 547.974 460.337C551 458.184 563.384 455.621 564.134 459.071C564.884 462.521 579.186 476.217 567.878 476.308C556.569 476.399 541.602 474.547 538.589 472.708C535.576 470.869 534.93 462.795 534.93 462.795Z" fill="#A8A8A8"/>
<path opacity="0.2" d="M568.073 475.108C556.765 475.199 541.791 473.347 538.778 471.508C536.489 470.112 535.57 465.097 535.27 462.782H534.93C534.93 462.782 535.583 470.862 538.583 472.695C541.583 474.527 556.563 476.386 567.871 476.295C571.132 476.295 572.26 475.108 572.202 473.386C571.739 474.436 570.499 475.088 568.073 475.108Z" fill="black"/>
</g>
<defs>
<linearGradient id="paint0_linear_47_94" x1="240.14" y1="510.083" x2="240.14" y2="63.2394" gradientUnits="userSpaceOnUse">
<stop stop-color="#808080" stop-opacity="0.25"/>
<stop offset="0.54" stop-color="#808080" stop-opacity="0.12"/>
<stop offset="1" stop-color="#808080" stop-opacity="0.1"/>
</linearGradient>
<clipPath id="clip0_47_94">
<rect width="670" height="521" fill="white"/>
</clipPath>
</defs>
</svg>
